<svg xmlns="http://www.w3.org/2000/svg" viewBox="0 0 487.27 662.14"><defs><style>.cls-1{fill:#222;stroke:#fffefd;}.cls-1,.cls-2{stroke-miterlimit:10;}.cls-2{fill:#ffb726;stroke:#ffb726;}</style></defs><g id="Ebene_1" data-name="Ebene 1"><path class="cls-1" d="M37.93,647l.18,1.86L37,648.68l-.39-2Zm-4.4-30.22L32,616.68l.4-1.14Zm-1.19-2.63,1.56.51,1.54,0,.72,1-.1,1.41-.7.35-3.47-2.83Zm12-3.78.13.59-2.18,1.71-.52-1.13Zm-2.27-.25-.92.33-.8-1.42.74-1.5,2.39-.34,1.18,1.08-.21,1.3Zm-17,1-.5,1.45-2.59-.29-.35-2.85L22.2,608l.29-2.36.75-.81-.44-2.05.73-.89.35-1.81,1.27.48.41,2-.56.79,1,1.26-.48.48.43,1.47Zm4-.14-1.31.17-1-.85.59-2.33,1.48,1.19Zm9.78,1.82-1,1.42H36.69l-.52-1,1.6-1.89ZM24.71,595.3l.67.49.86.75.33.38,1.87-.56,1.61-.14.43-.77,1.16-.14,1.47-1.79.07-4,1.08-1.7,2.13.69L39,590l.76-.06.16.81,1.36.42.12.7,1.63.82-.09.91,2.25-.73,1.39.77,1.57.13v-1.4l1-1.87.51-1.71,1.06-.45.29-1.74,1.5-1.85,2.37-.2.47-.75,2.48-1.53.69.61,2.16-.43.65.73L61,585.52l.23.62-1.13,2.37,0,.79,1.29.49,1.48-.27,1.16-.87,4.07-2,2.93-.29.26,1-.24,3,2.42,1.53-2.89.81-.36,1.5-1.09,1.48L67.79,595l-.56,3.53.85,2.09-1.75,1.61-1.86.63.09,1.45-1.78,3.76-.35,2.26.3.94-.29,2.78,1.59.48.42,1-1,.7.33,1.76-3.1,2.67-2.21,2.25-1.08.7-1,2.11L54.44,627l.09,1.16,1,.38L53.9,631l-1.1,2.71,1.43.39-.18,1L55.12,637l-.6.76-2.42.62-.72-.17L51,639.66l.6,1.53.94-.78,1.22.71,0,1.21.58,1.73-.82,2.16.68,3.21-1,1.22.18,2.07L52,654.83l-3.43,1.53-1.55.3-1.23-1.72-3.56-1.7-2.81-2L38.32,649l-.09-2.48-2.77.07L33.36,645l.28-1.13-1.15-1.06-1-.08-1.14-1.15-.2-1.44-2-4.39.26-1-.67-.91-.14-2.67,1.33-1.44-.11-1.11.73-1.14.63-2.4L30,622.91l.63-.88-.41-.93.21-1.72,1.46-.08,2.44,2.49.76.34L34.69,624l2.28.15.52-1.44,2.17.82.65,1.11-.55,1.13,3.32.8.1-1.36.59-.91,1.89-1.21,2.39-1.17h2.09l3.59-.88-.17-.54-3.93.74-2,.08-1.64.94-2.81,2-1,1.45-.78-1.1-.62-1.8.67-1,.95-.38-.62-1.14-1.88-.19-1.12-2.16-.09-.95,2.52-1.57,1.31.45.89-.73-1.16-.67L44.33,612l.11-.73L47.67,609h1.19l1.61-1.45L46,609.15l-.8-1.52.58-1.08L43,605l.94-1.69,2.21-.89.07-.73,1.77.12,1.39-2.42.49-1.66L53,597l1.15-1.34-4.18,1.42.77-1.63,1-1.3.11-1.85-1,.16.22,1.94-.87.71-.7,1.82-1.21.94.19,1.25-1.63,2.13-3.55.81-1.7,2.36-.76-2.52.16-2.3,1.34.4,2-.41.1-1-3.42-.1-.9-1.67.2-1.74-1.4.91.77,2.68L37,600.05l.49.36,1.77-.42.44,2.15.62.72L40,604.22l-1.81.84L37,604.67l-2.93,2-.21-1.63,1-.08-.8-3-.16-4.19.26-1.37-1-.08-1.69,2.45,2.21.1.09,3.06-.46.3-.09,2.35-1.87,2.6-3.14-1.26-.46-1.26.17-1.3-1.55.36-.51-2.53-.91-2.05-.34-1.74Z" transform="translate(-18.6 -10.46)"/><path class="cls-1" d="M270.86,146.58l-1.82.51-.69-.55,1.31-2,.26,1.63ZM268.2,151l-1.12-1.6-1.71-1,.53-1.71,1.42.2,1,1,1.56.32.84-.58,1,.33.44,1.17-.36,1.55-.77,1.34-1.72-.21Zm9.06,5.41.57-2.27L279,151.9l1.16,2.3,1.92,2-.75,1.13-2.51.63-1.65.91-.93.12.26-2.22Zm-4.69-8.59,1.51.08-1.4,1.49Zm13.9-7,.81,1-.4,1-.92.52-.8,2-.63.47-.57-2.16.81-2.4Zm-1.62,8.13.95,1.37,1.07.59-1,1.48L283.35,155l-1.43-.41-.08-1.2-1.79-3.46.26-.91,1.34.53.79-.91Zm-.9-32.69,1.77,1.45.6,1.5,1.18.37-.75-3.16.66-.32,1.26,2.46.94-1.5,1.23-.18,1.43,2.44,2,1.42-.69,2.35,1.13.5-.16,3.67-1.77.76-.39,1.19,1.06,3.5-.47,1.33,1.56,1-.76.75-2.16,1.05-1.89-.38-1.1,1-2.16-.76.15-1.12-.86-.58-2.58,4.22-.86.7-1.48,2.63,1.1,1.2-1.26,1-1.9.49.08-1.5.75-1.45-1.51.09-.49-.46-1.66,1.25-1.8,0L274,141.2l.49-1.32,1.77.74-.34-1.26,3.1-.7,0-1.86-3-.72-.32-1.66,1.48-.29,1.45.42.3-1.18-2.53-1-1.12-1.65,2.8-1.44-2.45-2,3.44-1.7,2.1-.13,2.34,2.18.19-1.07-1.1-.28-.17-1,.67-1-2.44-.8-1-2.05.4-.34,1.9,1.37.25-1.65-.6-1.57,2.13,1,.61,0,1.45,1.32.64,1.23,1.48-.44-1.36-1.2-2.71-3.65Zm-14,53.7,1.27,1.1-1.35.9.73,1-1.15,1.2-1.1-.14-1.47.62-2.1,1.43-1-1.35,1.06-1.4,0-2.49,1.35-2.42,2.65-.63,1.18,1.15Zm24-58.54,1.24,1.1-1.23.79Zm14.52-29.2.6-.18.89,1.22.26,4.87-1.7,1.26-2.51-2,1.82-2.12,1-.13-1.48-1.7ZM316,88.11l0,.9-1.13.4-1.18-.24L312,88.23l.15-1.44,1-.72,1.24,1.1Zm-2.33,14.58-1.47,1.3-2.28.77-.51-.21-1.27-2.07-1.29-.57-1-1.35-2.25-.84-.86-.73.36-2,1.23.4,1-.49-1.21-1.06V94.52l.9-1,1,0,2.06-1.93.36-.93,1.22-.48,1,.71,1-.69-.21,2.41,1.62,2,.58-2.64,1.08-.65,2.08,1.21,1.4,1.15-.7,1.85-2.42,1,.49,1.68-.7.89Zm-5.12,5.85.56.41-.74,2.68-1.06.28,0-2.08Zm.19-3.94.59.94-.71,1.89L306.46,110l-1.4.64-.6,2.09,1.4-.12.29,1.15-.66,2.23-1.3.37-1-.85-.72,1.36-1.81.52-1.38.85-2.88.77-.84-.27-1.15-1.49-1.51-.13v-2l1.18-.42.95-1.09,2.25.48-1.35-1.79-.8-2.32,2.83.81.69-.59L301,110l0-.61-3.63.17-.57-3,1.16-1,2.32.85.19-1,.79-.6,1.21.14-.44,1.81.62,1.43,1,.48.1-2.72.77-1.34-2.09-1.1-.49-1.66,1-1,1.27-.19,1.75,2.11,1.49,0Zm-8.54-2.2.7,0,.49,1.27-2.43.55-.2-.76Zm19.1-8.22.57-1.18,1,.22.91,1.18-1.37,2.54-.2,2.5-.39,1-1.63.25-3.46,1.08.79-2.72.69-1.45,1.3-.81,1.66-2ZM314.2,81.92l.64-.44.26-1.33.76-.21.67,1.15.33,1.78.83-.39.57,1.1.25,1.89,1-.57V83.13l1.35.76-.15.81,1.37,2.23,2.69.57-.45.92-1.32.51v1.24l-1.68.68-2.25-.13-.74-.57-.55-1.57,0-1.42-.57-1.25-1.56-2.06-1.17-.31Zm9.42,3.19-1.56.38L322,84.34Zm1.73-3.64L325,79.41l1.75.33-.65,1.43Zm5.51-.2,1.29-.78,2.22-.27,1.12,1.72L335,86.51l1.19,2.17-1.07.62-1.26,0-1.24.93-1.26-.62-1,.2L329,88.49,329,85.65l.19-2.05,1.64-1.08Zm6.51,6.46-.79.21-1.24-2.1.91-2.21L338,86.19Zm1.37,4.06,1.12-.15-.74,2.08-1.59,1.09L336,93.38l0-.92L335,90.79l1.15-1.44.91.19ZM303.8,93.54l-.54.24L302.5,96l-.92-1-.16-3,.45-.86-.21-1.21,1.53.18.66,1.48,1.38-1.24,1.14.51-.59,1.66Zm.89-5.87-1.86.19.56-2,1.16-.07Zm46.57,1.87-2.5-.84.91-1.54,2,1.29ZM349.71,76.6l-1-.88-.15-3-.47-1,1-.37,1.28,1-.33,3.41Zm14.43-8.5,1.9.29.08,1.07,1.8,1,1-.2.18,1.25,1.2,1.7L370,74.52l-1.85-.27-1.94.46-2.89-.24-.36-.42-2.67-.78-1.11-2.21L361.78,69ZM352.27,92.25l.13.8-1.77-.16.6-1.09Zm-19,6-.05-1.52,1.52-.54.91.61,0,1.38,1,1.08-.29.85-2.21,1.78-.6-.66L333,99.32Zm73.1-30.91L406,65.81l1.31.34ZM378.51,57l-1.14-1.69.23-3.15-1.11-.43-.26-1.31.42-2,2-.35,1.12,1.47,2.18.21,1.36,1,1.71,3-.12,1.06-1.47,2.27.2,1-1.35,1.18-1.9.17-.87-.64Zm2.42-25.29-.93.95-.11.88-1.4.18.84-1.49Zm-.7,2.77-.33.68,1.44,1.56,1.44-.11.47.94-1.89,1-1,1.14-1.58-.71-.82-1.1-.36-3.26,2.25-.61ZM362.29,50.21l2.36,1.33.69,0,.54,2.74L367,52.55l.05-1.34.7-1.5L366,48.34l2.11-2.52,2.51,2.72.32-1.2-.67-.38L370,43.73l1.19.9,0,.83,2.25,1.17.18.82-1.47.92.28,1.23-1.47,3-1.14.54L369.07,56l-.32,2.15-1.1.09-1.18.83.38,1.8L364,62.28l-.67-1.37-1.1-.64-.8.29.66,2-.81.95-2.63.75-1.74-.09L354.8,65l-.54-1.85L355.6,62l.74-3.18-1.6.06-1.42.86-2.07-.07.78-1.26-1.89-.29.58-1.49.87.68,3.31.28.67-1,2,.87-1.35-2.3.05-1,2.12,0,1-.82,1.69.88-1.3,1.68.46,1,1.64-1.49,1.87-.28-1.18-1.32-.49-1.58-1-1Zm15.23,9.9.86,1.71.33,1.43-2.86,5-1.36.48.87,1.17L373,72.15,371.19,72l-.85-1.76-2.87-1.58.18-.75-1.08-3.19.75-.71.7-1.61.8-1,1.87-.54-.91-.85,1.81-.95,1.83-.43.85-1.59-1.38-1.88,2.26,0,1.59,1.17-.19,2.67Zm33.31-14.42-.87-.58.82-1.71.8.92Zm-7.54-23.88.33,1.48L404.79,22l.78.25-.15,1.94,1.58.43.56-1.09,1-.72L409.59,24l-.72,1.66-1,.56.27,1.26,1.09.59-.87,1.21,2.56-.76.23-1.5,1.64-1.3.26,1.49-1,2-1.49,1.37-1.81.64-1.59-.07-1-.48-.61,1.66.41.77-2,.9-1.12-.59-.53-1.14-1.41-.85L402.54,30l-1-.74L399.44,31l-1.1-.66-.28-1.49.92-.56-.32-1.11,2.14-.05.86-1.63,2.29.63-2-2.54Zm-13.13,6.78,1.28-.37-.94,2,.64.64L391,32l-.89.13-2.1-1.35.93-2.48ZM483,64.81l1.34-.06,1.61.87.83,2,1-.41.54.85-1.74,1.65-1.3,2-2.43.89.44-5-.86-2.45Zm4.56,0-.64,1.77-.68-1.63ZM264.15,168.86l-1.09.49-1.06-1.2.55-.58-1.32-2.15-1.12,2.71.1,1.2-1.1,0L258,171.47l-1.4.39-1.38-3.67,1-1.18-.4-1.74.83-1.24,1,.2.69-1.61-.07-1.69h1.35l2-2.32-.08,2-1.68,2.56-1.5,1-.4.79.71,2.79.47-.05-.54-2.49,1.88-1.47,2.15-2.77-.06-1.75.48-.53,1.3.53,1.55-.15-.09-1.07-1.43-.43-1.44-2.17.6-1.42,1.11-1,1.2.11.44,1,1,.35-.83-2.15.77-.15,2.74,1.68,1,1.33.43,3.14.66,2,.21,2.43-1.33,2.58L271,167l-.84.5-1-.51-3.31.76-.77,1.33Zm35.27-2.57L297.29,163l-4.8.94-3.47.32-3.54,2-2.45.43-5.82-.3-2.46,3.16L272,170.7l.35,1.71-.85-1.91-1.34-.78.13-1.5,2.69-1.28-1.11-.85.08-1.5.66-1.46,1.23-.53,1.87-1.67,1.73-.08,1-1.48,1.39-.24.09,1,1.3,1.16.49,1.14,1.26-.75-1.61-.64-.11-1.93,2.32-1.15-.19-1,2.65-3.15.83-.22,3.2,1.62,1.8.17.33-.8-2-.09-3.28-1.75,2.27-2.81.81-.28,1.14,1.09,2.16.1-2.57-3-3.17,1.37-1.15.88-.08-2.83,1.45-.3-.24-1.32-1-.49.88-1.88.68-.51,1.56-2.28-1-1,1.45-.68,1,.1,2.33-1.65,2.18-.3-.29-1.52.39-2.4-1.59-.91-.39-2.75,1.06-.57.71-1.24-.16-2,.69-.9.06-1.45-.62-1.07,2.7-1.55,1.42,1.73,0,2,2.22,1,.51,4.26.83.47-.28-3.65.89.49-.24,1,.72.82,1.1-1.13,2.27-.76-3.16-1.39-.94-1.69-2-1.65-.31-1.78-.71-1.32,1.47-.57,1.11-.89.86,0,3.2-1.3.53,2.21,1,2.81,1.57,1.13-.12,1.3,2,2,3.43-.19,1.13,1.53L315,130.15l1,1.23,2.3-1.5-.39-.88-.21-2.55-1.28-2.1-1.31-.46-2.8.55-.77-.84-.44-1.82-1.68-1.32.35-2.75-1.32-1.85-.41-2.27.63-2.1,1.21-1.86.22-2.39,1.19-.47.33-1,1.18-.87,1.38,0,5-2.54,1,.27,0,1.39-.63,1.31.48.61-.27,1.82,0,2.13,1.42.57-.56,4.15-.49.9,0,1.66.87.92-1.64,2.59,1.39-.14,1.18-3-.06-1.52-.54-1.25.85-2.92,3.4,1.09-.83-1-1.79-.52-.48-1.63-.93-.94.26-1.93.68-.76-.29-1,.86-1.63.34-1.91.94-.35.2,2L326,95.63l1.17-.42,1.14-1.83L329.59,95l1,2.13-.23,3.43-.48,3,.14,5.07,1.47.86-.31,2.44-1.51.64.3,3.81.74.09-.15,1.47-1.14.94,0,2.52-1.62,1.47.59.87,1.92-2,1.14.46-.25-1.94.86-2.14.43-3.64.07-2.7,2.15.59.35,1.16,1-.13.55,1.09,1.1-.33-1.55-1.3-1.4-2.16-1-.37-.53-1.22.71-3.37-.93-2.75.83,0,1.56-1.37,1-.32.88-1.47.07-1.19-.83-1,.21-.76,1.19-1,.44-1,1.32-.68.71-1.29.89.65L340,94.67l-1.48,3.58.79.77.65,1.55.77.76,1.06-.91-1-1,1-1.2-.51-1.62,2.31-.82.67-.76-1.05-1.57.39-3.7,1.71-.88,1.31.15,1.82,1.38.8,1.25.49,1.83,2.6,1.13.71,0,2,1.92L356.48,99l1.56.52,1.44,1,.77-.56-3.43-3.12.68-1-.21-.9-1.51-.27-.67-.69-.8-2.39.8-.92-.9-1.21,1.16-.63,1.51-.07L356,87.1l-1.36.89-1.18.16-1.3-1,1.26-1.38L353,85.3l-1.44,1.15-2.79-1.09-2.3-.46-1-1.91-2.34-.72-1.49-2.64,1.26-1.82.65.07,1.13-1.14.45.93,1,.52-.61-3.38,1.16-.75.07,1.58.86,1,1.58.9.68,1.27.93.07-.15-2.48.73-.83,1.39-2.67,1.08.09,2.41,1.35,1.44-.18,1.09.41-.26,1.53.36,2.69-.51,2.68,2.12-.18-.67-1L360,78.1l-.27-3,1.69.07,2.88,1,3.15.24,1.72-.26.9.32L370,78.41l-1.79,3.06-3.44,1.85h-2l-2.55,2.5.51.77,1.36-1.89,1.64-.4,5.54-3,1.44-2.18.59,1.44.52,2.38-.54.94,1.35,1,.66-.91,1.21,3.19,1.32.35.82-1.13,1.82-.82.33.63,1.38-.88.57-1.75-.52-.47-2.26.64L375,82.42l-1.28-1.16,1.41-1.09,1.65-.35.58-1-2-1.42-.2-1.13-1.25-.63.54-2.17,1.4-1.87,1.23-.72-.39-2,1.62-3.22,2.52-3.25.18-1.49.75-1,1.54-1,1.23-.4,1.14.75,2.76.16-.47-1.24-2.08-.85-.79-.86.74-1.08.42-1.6.1-2.92,1-1.52,2.44,0,.12.57,1.58.67,1,1.35,1.16-.79-.25-.93-1.09-1-1.5-2-1.37-1.06H387l-1.88-.89.09-1.83-.77-1L386,40.41l1.56,2.07L390.49,44l.2-1.67-1.46-2.05,1.43-.5,0-.75-1.92-.37-.83-3.2,1.21-1.2,2.24-.47V35L393,36.55l1.27-.55.3-1.48,1.35,0,.07,1.11-1,2.14,1.26.35.26-1.5.89-1,1.43,1,.89,1.39,1.14,2.63.94-1.27-.21-2.2.2-1.25-2-2.58.62-.72,1.52.4.26.56,1.9,1.28L403,37.07l.85.65,1.26-2.79,1.5-.24.76.61,1.37-.81.72.17-.21,1.46-.75,2.15.14,1.63-2,1.23-.16,1.32.84.25-2.1,3.8-.7.89-1.75,4.81L401.48,54l1.38.11.25,1.37-.72.55-1.45-.08.38,1.31,2.11-.89.22,1.91-.6,1,1.4.27-.18,1.16L403,60.08l-.6,2,.3,2.53.92-1.16.69.21.19,1.56-1.31,1.88-1.82,1.81v1.53l.95,1.11-.51,1.52.67,3,1,0-.25-2.4.36-1.42L405.21,74l-.07,1.57,1.27.56.94-1.45,0-4,.95-1.51.3-2.52,1.06-1.35.16-2-.9.33-1.46-.9L408,61l1.46-1.86.77-3.3.06-1.54,1-1.26,1.28-3.23,1.43-2-.35-.92.31-1.65L413.56,43l.25-1.16.9-.44-.16-1.65.93-.66.33-1.85,1.59-4.06,1.88-3.61,1.37-1.15,1.23,1.44-.24.81.59,1.79-.46,1,.36,1.64,1.11,1-.36,1.59.39,1.28-2,2.76-1.61,1.18-.6,1.8,2.77-1.73,1.88.64.27,3.59.4,1.14-.61,1.57.29,1.41.65.2-.54,1.71,0,1.34,1,2,.79-2.79,1.22.69.61-2.83L430,50.48l1,1,.82-2-2.06-2.28L429.44,46l.64-2.44,3.05.34.32-.58L430.51,42l-.14-.67,1.1-1.51L429.93,39l-.12-2.17,2.39-.34-.52-4,1.26-.27,1.27.55.65-1.94L433.79,30l-2-.49-2.32.43-1.8-1.11,0-2.66.77-.11,2,1.21.19-.58-1.29-1.76-1.18-.47.78-1.7,1.69.59,2.24.17.33,1.54.84.17-.17-2-1.51-1.11-.52-2.14,1.5-2.29,2,.25-.5,2.47,2.5.89.65-.28,2.34-3.21h1.06l.73-.86,1,.25.73,1.63-.6,1.24.57,1.14,2.75-.82,1.91.2.66.91.08,2.66L449,26l-1,2.79-1.47,2.3-5.46.72.2,1.33,1.55-.26,2.22.3.89.74-.86,1.71-2.83,2.48,1.62.67,3-2.86.3-1,1-.94.82,1.44.11,2.79-.4,1.7-1.54,2.61-2.27,2.69-.38,1.69,2.23-.51.94-1.24L450,45l.31-1.19,1.57-.6.58,1.61,1-.94,1.21-.34-2.42-1.8.08-2.27.34-.61-.11-2.84-.36-1.34.29-.92-.72-1.1L453.07,29l.64-3.13,1-1.49,2-.9.43.59,1.47-.48,1,.9,1.73-.35,1.2,2.36,1.8-.12-.48,1.74.61,2.46-.85,1.71,1.05.53.38-1.41L466.39,30l2-.94L470,27.23l1.49.12.58,1.47.12,1.85.88.42.89-3.36L476,27l1.72.64,1.67,1.7,1.73.91-.28,1.94L480,33.55l-1.92.67.19.84,1.35,1,.76-1.35,2.29-1.87,3.7-.42-.06,1.36,3.06,1.24.26,1.75.85.18,1-1.32,1-.69,2.56,2.21.68,1.27.58,2.67-1.2,1.94-1.87,1.41-.62,0-3.46,2L489,48.24l-1.75,1.06,0,1.67.91.91L485,55l-.4,1-1.08.92-1.87.95-4.57-.23-2.5.19-2,.47-.66-.5-1.83.53-1.34-.39-1.45.75-.86-.34-2.9-.32-1,.63-2,2.41,1.7.39.48-.67,2-.39.46,1.35,1-.35,3.56.5.62-.27.85,1.2,1.64,0,.5-.61,2.57.24.64.36,2.62,0,.22,1.19-2,2.22-1.47,2.59,1.34.55.83-3.36,1.24-.24,2.82.62.55,3-.25,2.63-.91.67.4.84-.42,2.38.92-.48.42-1.84,1.44-.87,1.24-.13,2.76-2.66.52.4-.25,1.63,1.63,1-.87-2.12,1.45-1-1.3-1.64.13-.75-1-1,0-1.11,2.32-1,.51,1.11,1.11.19,1.28,2.66,1,2.88.78-.92L494.5,69l-.88-2.4,1.13-.85.63.41,1.62-.4,2,1.33,1.09-1.26,2,2.4.18,1.15,1.39,1.06-.11.69.88,1.21.85,3.5-1.4,2-2.12.21-2.88.73-2.27-1.82-3.79-1.89-1.57-.52-.93.84,1,.58,1.86,3.36.22,1.33-.59,1.46.55,2-1,2.81-.79.75-1.76-.42-.81,1.57-.89.63L488,90.88l-1.39,2.6-2.9.52-1.4,1.77.32,2.28.89.76.3,2.58-.41.79.46,2.43-1.77,5.27-4.08-2-1.27-1.4-.37-2.91-.64-2.43,4.12-9.79.85-4.26L476,80.4,474.63,78l-3.93-.66-9.34-1.91-1.56-1.13-.17-1.53-3.44-1.11L452.26,68l-.61-1.85-.92-1.63-2.21,1.26-.69.83-.84-.33-1.37.36-.8,1.15,0,1.58-1.51.59-.79,1.57-1.23,1,.67.78-3.64,3.19-1.13-1-1.37.46L434.8,75l-2,1.21-.85-.77-3.15,2-.51,2,.11,2.31L426.57,84l.05,1L425.67,88l-1.15,1.15h-.65l-1.42,3.13,1.21.85.73,1.59-.22,1.84-1.26,1.89.7.49,0,2.83-.26,2.42,1.08,1-.86,4.08.43,1.54-.35,1.52.31,2.53,1.42,2.61v1.75l1.28,3.47.62.56-.62,1.58.08,1.06-.72,3.71-1.44.53-1.08-.63-3.08,3.3-.81,2.22-.54.57-.19,2.23.44,3.71.56,1.73-.55,1.05-1.88.57-.64.87L417,148l-.77-.19-2-3.24L410.84,143l-5.56-.65-2.88-1.2-.25-1.74-1.32.73-2-1.92-2-.08-1.47,1.13-.23,3.52-.54,2.15-3.87,1.36-4.17,3.82-2.59-2.5-4.21.79-3.67-1.27-1.35-.69-2.56,1.8-1.43-5.15-3.25-4-.56-1.71-4.15-5-2.86-3-2.58-3-2.08-2.71-6.11-.83-2.72,2.85-1.31,2-.11,1.66,1.63,3.15,1,.73-.39,3.17L341,133.24l-2.41,3.22-8.31,1.74,3.53,4.07,1.36,1.28,1.27,5.82L335,156l-2.14,3.85-1.85,2,1.7,1.12,3.7,1.44-3.66,5.3-.79,1.65-17.36-5.83-6.3,1.15-4.12-3.22Z" transform="translate(-18.6 -10.46)"/><path class="cls-1" d="M149.56,620.47l.92.68-.21,2.79-.83-.34Zm1.13-.13-1.63-1.12.72-2.07,0-1.65,1,.53.76,1.75.18,1.36ZM73.48,591.82l-2.41-1.53.23-3-.26-1L72.35,585l.43-1.15-.4-.87.26-1.26L75,578l1.34-1.12.85.17,2.9-1.38.29-1.81,1.24-1.9,3.87-1.05,2.79.72,1.11.71,2.7-1.46,3.34-1.06,1.18-.89,2.51,0,1.75.74,2.42-.14,2.39.75,1.91-.3,2.23.39,1.55-.46,2.53,1.76,2.56,2.5.74,1.58.11,2.68,1.52,2.51,1.1.22,2,2.11-.45,2.44.09,1.87,3.37,1.75.77.8-.48,1,.16,1.9-.58,1.2,1.74.47.34,2.09,1,4.07,1,1-1.21,2,0,.58,2-.15.76,1.79,1.72,2.14,2.9-.09v-2.17l1.12-.54.78.56,1.68.19.61-.58,1.89.26.92-.39-.78-1.91-.86-.92L138.91,600l.32-1,1.2-.63.53-1.84.87.81,1.27-.06.69-1.33,3.53,0,1,.32.75,1.85-.16,1.12.25,2.08.92,1.41-1.15,0L147,601.21l1.11,3,1.81,2.9,1.79-.44.13,1,.89.52-.94,2.17.13,1,1.3,1.47-.1,1.34-.69,1.13-1.08.75-1.81-1.1v1.94l-.87.83-.62,2.89.12,1.31-1.07,0,.55,1.48-1.25,1.64-1.08-.53.23,1.75-1.91,1.48-.57-.93,1.19-.67-.2-.69L141,627.88l-.19,1.17-1.41-.39-.51,1-.93-.61-1.37.36-.63-.75.24-1.36-1-1.4-.17-1.41-1,.51-.44-.91-1.23.13.14,1.19,1.13,1.69-1.85.66-.64,1.59-1.51.73-.26,1-2-.19-1.19,1.91-1.25,1-2.13-.44-.68.86.82.74,2-.51,1.41,1.17-2.47,1.27-.22,1.53-.89-.77-3.26-1-.21-2.84-.49-1.1-2.11-1.39-.9-1.07-.86-3-1.37.27-2.61-.24-.33.87-1.54.94-.06.52,1.67,1.3-1.35,2.1.07,1.15-1.11.52-.46-.92-1.68-1-1-2.2-1.07-.69-1.6.82-.72,1L100,630.4l-2.18-.58-.33-.83-2.85-2.38-1.88.22.53,1-1.68.12-1.7-.66-1-1.3-1.44-2.59-.15-1-1.36-2.82-1.47-1.42-.22-1,.91-3-.71-1.6L84,609.31,82,608.93l-.34-2.2-1.26-1.17,1.18-2.09,1.12-.76-.86-2-1.09-1.2-.4-1.82,1-1.16-1-1.07-1.52-2.42-1.17,1Z" transform="translate(-18.6 -10.46)"/><polygon class="cls-1" points="137.78 571.48 134.72 569.14 136.99 566.38 136.86 564.41 137.62 563.62 139.44 563.67 140.81 564.1 141.96 566.92 142.72 567.1 142.49 568.95 143.98 570.9 145.17 571 145.62 572.97 144.85 574.48 144.62 576.46 145.14 578.07 143.88 579.27 141.07 578.28 141.46 576.1 140.46 574.32 139.03 575.04 138.28 574.37 137.78 571.48"/><path class="cls-1" d="M224.17,188.77l.88,1.32-1,.67-1.09-1.1-.18,2.39-1.73.3-.27-1.12-2.1,2.44-.76-1.24L219,189l-.8-2.52,1.75-1.19-1.28-.71.91-1.82,1.65-1.31,2.14,1.44,1.09-.73,1.28-2.28,1.37-.19.56,1.39.05,1.73,1.75-.36.95,1.22-1.61,1.73-1.09,1.75-2.13-.6Zm-8.84-.53,1.18.24,1.3,1.21-.77,1.82.09,1.2-1.84,3.3-.91.48v-1.88l-1.36,1-.2-1.51,1-1.37.07-1.39,1.57.18-.25-1.72ZM212.77,198l-.58.82-1.24,0,.38,1.36-2,2.24-1.42.59-.49,1.68-1.13.19.95-2.25-.34-1.39.94-1,.28-2.33.8-.46.45-2.7,1.08-1.94.68-.56-.27-1.2,2.07,1.23L212,193l.5,1.25.52,3.16Zm17.1-18.46,2.3,2.13-.42,1.69-.8.36-1.58-2.12-1.13-.71.35-1ZM243.44,171l-.45.54-2.55.18-1.53-1.18-1.23-1.86,1-1.06,4.27.62,1.41.46.06,1.31Zm14.39-34.24.38-2.56,1.22-.68.45-.81,1.82-1.15,1.31,1.31V134l-.84.89-.06,3.33-.3,1.12-1.22,1.2-1.36,2.17-.37,1.57-1.18,2-2.37,1.54L254,148l-.35,2.8-1.37,2.55L251,152l.41-1-.48-2.6,2.13-5.08.56-1.89,1.14-1,1.3-.25,1.11-1.16,0-1.39Zm-16.7,24.83-.74,1.49-1.68-.33-.54,2.46-.52.83-2.07,1.06-.92-1.46-.2-1.27-.74-.34.66-2.72.85-.6-.88-1.07.18-1.16,1-.27.58-1.07,1.11-.06.11-1.05,1.41-.26.06,2.22-.33,1.06.88.46.59-1.28,2.75-1,.08-1.34-.51-1.19,1.07-.72,2.52.44-1.21-1.41.19-1.21-.92-1.33.25-2.42,1.11-1.48,1.49.22-.07,2.86,2.32,2.45-.08,1.68,1.8,1-.34,2.11-1.09,1.83,1.91,1.3.3,2.05-.78,1.22L248.85,165l-2,1L245,167.8l-1.29-.44-1.85.13-.65-2.15.49-1.06,1.6-.75,2.12-.51-.3-.61,1.23-2.07.12-1.21-1.29-.08-.52,2.38-1.26-.21-.57,1.57-2.08.3Zm1.3-10.34.9-.25.56,1.84-.65.78-1.3.13-1-.59.52-1.35Zm24.66,39.46,1.24-1,.95.86-.12,1.69-2.25-.76Zm-6.62-3.68-.28,1.83-1.46-.76.79-1Zm-4.32,8.49L255,194.31l2-.84,4.62.07,1,1.38-1.18.75-1.68-.49-1.1-1.14-1,1.52Zm-5.29,1.33L249,197l-.43-1.37.71-1.34.7-.32Zm-3.13-.12.4.69,1.92.28.26,1-1.34.93-1.4-.39-2.17.36-.42-1.74.64-1.15Zm-5.54-11.5L242,186l-1.29.67-.15-1.51Zm-.18-2.89.77-1.11,1.07-.51.55.65-.68,2.23-.78,1-1.31-.45Zm-4.68-4.78-.44-2,1.73-.74,1.68-.25,1.57.47,1.23-.89h1.21l1.38-.84,2.35.08-2.23,4.23-.91.28-.53,1.33-3,3.15-1.11.86-.69-.94-1,1.79-1.46.44-.8,1.18-3.81,1.75-1.34,0,.3-1.3-.22-1.35,1.2-.64-.24-.67.65-1.41-.07-1.54.92-1,.91.88,1.57-.44-1.08-1-.52-2,1.67-.66ZM226,240.33l.14.94-1,.55-.6-1.38Zm1.61-1.24-1.81.2.07-1.07Zm5.14-2.5.39-1.27.81-.81.28,2.17-1.43,2.48.59,1.94-.23,2.08-1.37-.28-.34-2-.85-.39-1.45-1.61.63-.54.12-1.76,1.52.82,1.1.08Zm7.21-3.74-2.78,1.35-1.39.94-.4-1.27,2.56-1.37ZM236,223.17l-.34,2-1.28.25-1-.36.55-1.17,1.4-1.14Zm-7,7.54-1.81,1.17,0-1,.91-.57Zm-22.72,51.64-.41-1.52-.74-1,1.54-1.47,1.45.06.31,2.3L207,282.6Zm.43-15.08-.14-1.28,1.27-.61.35,1.88ZM203,265l.36-1.29,1,.47-.31,1.7Zm8.23-1.17-1.05-.48.47-1.53.85-.16Zm-.05,10.42-.55-1.38.89-1.27,1.08.56-.08,1.52Zm1,4.59,1.77.19-3.44,2.53-.87-.68.63-1.28Zm-6.09,13,3-1.07.29,1.59L206,294.05l-.9.11-1.93,1.71-1.27,1.5-2.43.45-.9-.47.68-1.13.82,0,0-1.52.92-1.33,1.94-1.69,1.14.18.5.81Zm.38-6.18-1.56-.64-.31-1.39,1.36.05ZM210,284l-1.74.86-.16-1.49,1.79-1Zm7.43-29.09,1.93.17-.06.63-2.16.8-1.89-.42Zm.93-3,1.64-.16.78.77-4,1,.38-1.24ZM197,291.8l1-1.2.72-1.71-.27-.94,1.93-.63.1-.68,1.45-2-1.31-.34-.39-1,1.72-.39.64-1.18.85,1.82-.36,2.73.74-.14.36,1.55-1.71,1.55L200,291Zm4.75,5.93-1.22,1.73-.55-.65Zm-12.33,8.83,1.63.14.62,2.41-2.29,3.13-.53.23-1.1-1.27-1.75-.06.78-1.33.57-2.14.89-1Zm9.94.65-1.23,2.1-1.08-.45,1-1.25Zm1.4-3.92-.52.73-1.19-.68,1.81-1.44Zm-6.16,14.65-.56.84L193,322.05l-1-.64-.17-.89,1.33-1.22,1-1.68Zm-2.83,12.82-1.53-.25,1.06-1.38Zm-1.39,6.56h-.47l-.77.31.51-4,1.68-.85.33.81-.73,2.41,1.11-.44,1.32-2.2-.18-1.44,1.85-1.43,1.29,1,.71,1.76-1.28,2.14,2-.1-.65,1.28-1.34,1-2.24.55-.7-.82Zm4.24,3.49-1-1-1,1-.72-.73,0-2.44,2.37.88.62,1.31Zm66.94-182.2-2,2.32h-1.36l.07,1.69-.69,1.61-1-.2-.83,1.24.41,1.74-1,1.18,1.38,3.67,1.4-.39,1.16-2.11,1.1,0-.1-1.2,1.12-2.71,1.32,2.15-.55.58,1.06,1.2,1.09-.49-.46,3.17-1.12,1.19L262.5,175l-2.31,1.41.38-3.87-.46.16-.48,2.59-1.71.23.35.95-1,2.4-.83.18-.2,1.24L255,180l-1-.9-3.38-1.35,1.47-2,1.55-1.52.76-1.87,1-.81-.45-.92-2.11,3.53-3.37,3.52-1.21,2.62-1,.57-2.12.22-.41-.58,1.1-1.33,1.06-3,2.32-3.82-.79-1.06.7-1.39-1.46,0,.44-2,4.06-1.68,1-1.91-1.31-2.87.36-2.33-.31-3,1.78-.56v-2.83l.77-.17-.13-1.51.38-1.15,1.35-1.12,1.17.46,1.14-.8,1,.24.39,2.62.63.49-.74,2.9-.16,2.18,1.8-.18Zm10.79,13.79-.34-1.7,2.75-1.16,2.47-3.16,5.81.3,2.46-.43,3.53-2,3.47-.32,4.81-.94,2.12,3.27.14,6.29,1.83,9.82-3.45,11.24-4.51-2.95-7.17-3.3-1.54,3.43-3.85,3.46-3.63,3.64L274.81,211l-.93,2.52-1.41,3-4.53,1-1.06,4.26,5,8,1.55,2.65.2,7.57-3.41,3.17-2.71,3.55-.73,1.93-6.3,13.76L257.35,266,256,268.13l1.22,4.37,1.29,5.13-8.34,6.54-10,1.38,1.37,8.49.32,2.71.95,4.29-1.46,5.39-.54,8.63.5,10.07-2.43,3-.93,6.34-3.27-.87-2,.9-1-.34-1.63.56-2,.08-4.15.72-2-.51-2.4.88-2.17-.1-3.07-.64-1.36.31-.62,1.76-1.16.25-.55,1.73-1.16.77.79.8-.85,1.24-2.69,0-.11,1.68-1.07-.57-1.76.64-1.38-2.43-1.16.6-2.33-.65-2.3,1.52-1.79-.87-.18-.5.67-.49,0-1.23-.64-1.26,2.53-1,.41-.63,2.14-1,2.16-1.47,1.05-.29,1.31-1.11,1.17-1.57,1.58-1.51,1.31-2.31,2.16-2.19-.52-.68-2.15,2.59-1.62,2.55-5,4.37-1.67-.18-1.31-.87.38-.94,1.08-.65.41-1.44-.49-.5v-1.81l-1.21.08-.63-1,1.48-1.59.4-2.1-1.68,1.92-2.28.26.87,1.36L195,329.25l-1.18.41-.72-.42,0-1.2.64-.91-.19-3.17,1.26-2.85,1.2-1.18,2-1.41-.45-1-1.45.76H194.9l.94-1.6.43-3.66,1.24-.08,0,1.73,1.06,1,2.16,2.9,1,1,1.8-.71-1.89-3.08-.68.55-2-1.46-1-4.37,1.81-3.38,2.74-3.23.59-1.78-.23-1,.57-1.34.26-2.22,1-1.63,2.93-2.09,1.15.81.71,1.35,1.75.17.54,1.27.81.59,1.31-1.09-2.22-1.83-1.25,0-1.76-1.74,1.09-1.19-.07-1.86-2.78-.21.49-.76-3,.41-.05-.39,3-2.87,3-1.15,1.63-.36,3.44-1.54,0-.73,1.42-1.07,1.09.38,3.88-.83.6,1.56-.2,1.23.91.66,2-.51,1,.76.8-.44-1.75-1.11-1.37.61-.89-2.18,1.51-1,1-.13,1.6.93,2.39-1.28.14-1.13,2.73-1.67-.2-1.23-1.88,1.28-1.57.17-1.2,1.37-1.25.06-3.71,1.8-1.19-1.49-1.82,1.29-1.52.39-1.29-.63L215.33,282l-1.64,1.2-2.36,1.1-.18-1.43,1.38-1.57,1.64-1.14.26-1,3.52-1.26,1.3.11.15-1.65-1.06,0-3.22,1.44-2,.26-2.59-1.33.08-1.44,1.54-.8,1.35-1.25-.31-1.36-1-1.06.15-2.09-1.05.19-.38-1.77,1.28-.93,2.31,1.51.13,1.18,1.11.27,1.11-2.14,2-.84,2.12.12,2.3,1.36-.15-.94-2.06-1-4.07-.13-.91.61-1.32-.42.06-2.57.55-.64-1.8-1.62,1.1-.93.69.41,2.06-.14,3,.63-.6-1-2-.57-1.89-.23-1.23-1.5,2.94-.38,4,1.91,2.27-.33.16-1.47-1.6.9-1.16.07-.3-1.67-1.27-2.09.09-.69,3.77-.54,2.26.84,3.39-.19-.37-.52h-3L223.7,252l-.15-1.51-.87-.43-.53-1.25-1.85.28.19-1.45-.76-1.06,4.2.39,1.37-.74.19-1.23,1.1-.79,2.29-.42-.57,1.24.94,1,.92-1.41-.92-1.88.39-1.74,1.16.46.51,2.08,1.73,1,1-3.07,1.49-1.15-1-.7.09-1.65.54-1-.13-1.23,2.38-.49,2,.08-.63-1.52,1.53-.55,1.5.39,2.17-1.45,1.49.42,1.31-1,.85.56H249l1.34,1.22,1.11-.6,1.51,1.29,1.66.11.65.94-.62,1.91.1,1.2,1.4.43-.35-1.76.59-2.57-.94-1.16-1.59-.61,1.27-1.1-1.42-.83-2.13-.13-1.1.76-1.82-1.37,1.45-.29,1.81-1.4-.06-1.28-1.62.84-2.41.44-.87,1.14-1.72,0-1,1.46-2.07,1.36-.31-3.08-2,1.33-5.19,1,3-3.74,2.51-2.42.1-2.44,2.79-.21,2.9.3-.15-.83-2.16-.62-1.09.52-1.15-.09-.89-1.2,2.07-2.22,2.77-2.5,2.21-.93.73.29,1.18,1.36.13,1.17,1.53,1.24,3,.2,1.4.77.09,1.7,1.28,1.69.19,1.8,1.21-.22-.37-1.29L256.3,221l.24-1.27.81-1.51,1.74-1.79-.29-.52-2.59,2.76-.86-.72-1.61-.44-1.9,0-1.34-1.1.63-2.15.94-.77-.34-.8-1.69.65-.65-.28,1.21-2.62.46-1.59.85-1,2.84,1.9.14-1-1.28-1.4,2.26-1.19,1.45.27,1.89,1.44.25-.9-1.28-1.06-1.67-.41L254,204.32l-2.27,1-1.24,1.5-1.16,2.09-1.19.52-.79,1-1.93,1.21-2.59.45-1.31-.87L244,209.9l-1.42-.55-.23-1.09,1.86,0,1.54-.79.29-1.27-3.08.52-.48-1.16-.81-.34,1-2.21,1.45-1.94,1.71-1,1-.2,1.48.69,2.59.15,2.51-1.93,5.35-2.42,1.69.61.73,1.87,1.64-3.08-.64-2.68-2.11-.38-1.14.5-.67-.56-1.85,0-.25-1.14L255,192l-2.25,1.34.88,1.11h-2.46l-.62-2,1.11-2.12,1-.68.17-1.21,1.11-.53.65,1,2.11-.58-.17-2.32,1.66.83.4,3.49h1.42l.9-.94.76-1.62-1.15-2.45,1.4.08.57-.66-.56-2.3.59-.43,1.43.39.3,1.32.79.92-1.46,1.08,2.27,1.07-.54,1.92.26,1.72-.43,1.91,1.29.87,1.57,3.12-.55,2.66,1.32.47,1,1.27,2.37,1.24.44-1L268.31,199l.65-2.79v-1.31l-1.75-1.21,1.39-.76,1.23,2.59,2,2.58.18-1.46-1-.22-1.4-2.35-.31-1.21h1.33l1.32,1.1.94-1-2.88-.54,0-2.55-1.58-1.15.92-2.26,1.4-.23.93-1.13-.57-1.72-2.22.19-.93.74-1.34,0-.27-1.08,1.51-.14,1-.67L266.65,181l-1.23-.13.41-1.78,1.66.42,1.75-.27,3.35,2,1.41,2-.17,1.14,1.27.6-1.33-4.42-3-.85-2.73-1.19-.51-2.06,2.33-.89,1.31-1,2.59-.73.51.78,1.08-.91,1.59,1,1.46.44-.31,2.31L281,176l-.09-.86,4.58-1.27.79-1.22,1.29.95,2.82,1.26.4-.4-3.23-1.3-.58-1.56,2.59-.58,1.52.16,2.38,1.11-2.38-2.45-2.86.77,0-.74,1-1.08.47-1.83-2.6.87-2,2.53-.81.61-2.76.79-1.32-.19,1.49-1.48-.7-.83-1.22-.36-1.16.61-1,1.67-1.4.24-2.11.77Z" transform="translate(-18.6 -10.46)"/><path class="cls-1" d="M52.94,659.2l.54.91-.22,1.06L50.9,660l-.07-1.34Zm56.63-7.11,2.4-1.73-.89,2.31-1.7,1.19-1-1.26Zm-61,4.27L52,654.83l1.41-2.1-.18-2.07,1-1.22-.68-3.21.83-2.16-.59-1.73,0-1.21-1.22-.71-.93.78-.6-1.52.35-1.5.72.17,2.42-.62.61-.76-1.08-1.9.18-1-1.43-.4L53.9,631l1.61-2.45-1-.38L54.44,627l1.92-1.27,1-2.12,1.07-.69,2.21-2.25,3.1-2.68-.33-1.76,1-.7-.43-1-1.59-.48.29-2.78-.29-.94.34-2.26,1.79-3.76-.1-1.45,1.86-.63,1.76-1.61-.86-2.09L67.8,595l1.35.6,1.08-1.48.36-1.49,2.89-.82,4.17,2.27,1.16-1,1.53,2.42,1,1.07-1,1.16.4,1.81,1.09,1.21.86,2-1.12.76-1.18,2.09,1.26,1.17.34,2.2,1.94.38.5,3.21.7,1.59-.9,3.06.21,1,1.48,1.42,1.35,2.82.15,1L88.88,626l1,1.3,1.7.66,1.68-.12-.53-1,1.88-.22L97.45,629l.33.83,2.18.58,1.86,1.24.72-1,1.6-.82,1.07.69,1,2.2,1.69,1,.46.92,1.1-.52-.06-1.15,1.35-2.1-1.67-1.3.06-.52,1.53-.94.34-.87,2.61.24,1.37-.27.86,3,.9,1.07,2.11,1.39.49,1.1.21,2.83,3.26,1,.88.77-.44.58-1.58.58-1.09.79-.43,1.68-.72,1-1-.07-1.23,1.11-3.86,2.42-.47,1.79-1.76,1.14-.22,1.21-4.31,2.6.11.94-.55,1.31.31.67-2.24,2.07-.62-.29-1.66,1.92-.88,1.75-1.28-.1-2.41.92-2.32,2-.85,2.75-1.4.67-.21-1.77-1.51,2.36-2-1-.51-1.13-1.23-.06-.5,2.74-.62.51-1.91,0L83,669.06l-2.24.55-.73.73-1.36-.15.49,1.37-2.67.54-2-.07-1.71-.65-.65.45-1.35-1.07-1.84-.2-.78-.82L67,669.41l-1.47.14-.88,1.72-.88.79-1.07,0,.16-1.67-1.36-.4-.06-1.32-1-1.34-1.58-.13-1.31-.93,0,1.62-4.89-.66L51,664.66l1.17-.47L53,662l3.14-1.48-1.76-1.39-3.49-.71-3.52-1.55Z" transform="translate(-18.6 -10.46)"/><path class="cls-1" d="M176,365.84l-1.89.94.34-1.62,1.27-.05Zm-3.58-8.62,1.17,1.67,1.44.34,1,1.3-.3,2,.84.28,1.27-.61,1.67,1.18-1.29,1.86-1.7.27-1.15-1.72-1.25.5-1.18-1.86-.06-1-.74-1.06-1.3-.63v-1.1l1-1.42Zm-25.76,28.14,1,2-2.4-1.07Zm3,.14-2,.29-.43-.85,1.22-1.08Zm-1.37,5.84,1.65-.94.43,1Zm26.08,6.52-2.07.93-2.18,2-.77-.25,1.23-2.47,1.24.11,1.75-.83Zm-45.05,5.78.93,1-2,1.07-1.37-.33.83-2ZM125.53,411l-2.72.86-.77-.44-3.65.73L116,413.87l-1.74-.16-1.89-.56-1-.93.08-2.09,2.26-2.07,2-.64,1.2.55,2.09-.77-.8-.89-1.27-.52,1.33-.92,8.29-1.35-.61,1.36.25,1.35,2.32-.06,1.86,1.37.21.83-1.77,1.51Zm-2.93-14.62.92,2.51-.38,2.31-1.22.51-1.6-.06-4.18.86-2.44-.94-.58.64-1.21.11-.56-.95,1.46-.41,4.58-.69,1.48-1.3,2.88-1.49Zm-5.2,11-1.43-.22.52-1,1.17.12Zm59.8-49.29-.5,1.91-1-1.17-.09-1-1.54,0-.42-1.53,1.43-.63,2.53.23Zm-10.07-15.27-.62-1.17,1.76-1.16Zm-2,4,.32-2.16,1.21-.78,1.88-.61,4.32-2.17-1.4,2.39-1.89,1.08-1.65,1.8-1.66,1Zm2.74-.11,1.36-1.57,2.85-1.46,1.07-1.47,2,.95-1.6.68-1.35,1.7-1.11-.23-2,1.58Zm4.29-.17.73-1.82.79-.64,1.56-.26.47,1.31,1,.13-1.17,1.86-2,1.69-1.76-1.6ZM178,360l-.1-2.09,2.05,2.88,0,.92-.82.91-1.93-1Zm0-16.8-1.12,1.48-.5-.69Zm6.22-8.37,1,.82-.12,1.15-1.61.85-.76,1-1.16.09-.56-.66,1.22-2.68Zm5.36-1.19-.51,4-2.7,2.26-.51-1.31,2.09-3.44Zm4.87,7.8.18.49,1.78.87,2.31-1.52,2.32.65,1.17-.6,1.38,2.43,1.76-.64,1.06.57.12-1.68,2.69,0,.84-1.24-.78-.81,1.16-.77.55-1.73,1.15-.25.63-1.76,1.36-.3,3.07.63,2.17.1,2.4-.88,2,.51,4.16-.72,2-.08,1.63-.56,1,.34,2-.89,3.27.87-3.7,6.73L232,345.55l-6.08,12.16-1,3,5,3.4,4.06,1.28.6.74,1.26,12.8-3.68,9-5.35-1.7-3.76-.87-6.87-1.3-6,1.85L205,390l-4.25,7.5-3.18,5-.65,2.07-3.24,3.86,1.32,5.53-2.75,5.8L189.88,424l5.23,12.9L192,441.62l1.31,7.44-1.79,6.51,4.37,13.52h-1l-1.77,1-1.61-1.75-1.59-.64L185,466.6l-1,1.64-.71-.21-.35-1.45-2.36.5-.75-.93-.88-2.29-1.36-2.06-1.26-.69-.66-1-1.91-.9-.42-1.84-1.45-2.09-.09-1.63-.83-.69-1.73-.27-2.53-1.49-1.69.14-1.33.63-1.19,1.59-.59-1-1.37-.53-1.25.56-5.88-1.69-3.25-.18-1.31,1.52-1.12,3-1.07.74-.52,1.3.64,2.66,1.2,3.66-3.31,1.37-.47,2-.76.5-1.33-.92-.09,2.28-.9,1.19-1.89.24-2.64,1.17-2.48-1.83-2.76-1.39-5.77-2.45-.77-.49,1.85-1.16,1-1.29.08-1.54,1.55-4.61-.47-.92h-1.46l-.88-1.62-2.05-2.91-.68.05-1.22-2.45,1.54-1.36,1.57-.13.45-.63,1.53.23,4.87-1.57-.86-.77.29-2.53-1-.78.54-1.31-.85-1-2,.32-.89-.54-.45-2.09,1-1.89-1-.92-.29-3-2.45.74-.25-1,.82-.46-.47-1.49-2.43.81-1.13-.66-2.71,2.41-3.58.55-.91-1.1-3.23,1.93-.9-.19-.85.7-.81-.47.37-1.78-1.12-1.18-.33-1.7,2.61-1,2,.89,1.35-.42,1.84.72,1-.26-.22-1.06,2.6-.92h1.66l2-.78.73-1.29-.93-1.73,1.15-1.33v-1.28l1-1.26-.65-.77-1.56-.43.19-1.48-1-1.24,1.4-.16,1.27.41,1.19-.19.68,1.13,1.44-1.91,1.41.28,1.17,2.34-.6,1.7.79,1.79.78-.88,1.36-.32-1.82-3.21,1.37-1.06,1,.2,2.49-1.19-1-.41-1.38.09-.88.8-1.5-.66,0-1.07,1.09-1.63,2.3-.7.86-.87,1.91-.05,1.75-2.12,1.65-.92,1,0,1.64-1,.71,2.62,1.4,2.5-.64,1.15,1,.72-.14.81,2.76,2.09-.92,3.32-.76,1.18-2,1.23,1,.4,2.22-1.59,2,.2,2.33,1.76,1.14-1.3-2.33-.78-1-1.56.22-.88,1.65-1,.91-1.15,2.56-.36,1.08,1.21,1.3-.25.68-.84,1.2,1.19,1.28.24.94-.65,3.57.74L167,415l-.57-1.37-1.45.15-1.14-1.49.43-1.69,2.59-.29-.71-.85.84-2.28-2,1.13-.81.84-2.22.47,1.05-2.88.91-.58,1.92-.32.31-.85,2.14-2.21,1.92.38,1.42-.6.84.23,1.34-.74-.14-1.65,1.66-.42.94.36,1.31-1.18,1.28-.64-.22-1.76-2.55-.35,1.32-2.05-.58-.61.74-2.5-.87.35-.53,1.12.23,1-.64,1.12-2.33.67-1.06.81h-1L171,394l2.88-1.6,1-1.55,3.13-1.26,1.74-1.36-2.27-.51-.2-1-1.75.13-1.32.63-1.2,1.39-1.14.43-2,1.35L167.85,393l-1.5,1-3.54,1.72,2.62-.3,3.29-2.52.17.58,1.52.79.4,2-1.45.91.19,1.11L168.06,401,165,402.4l-1.83.56-1.75.92-.5,1.25-1,1-5.6,3.29-1.52-.13-2.43,2.59-1.6.45-2.49-.65-.67-3.27-.87-.84-.92-2.06.44-.92.3-2.09,2.69-.1,1.74-1.64-.14-1.47-2.09.28-1.85,1.64-2.14.62h-1.58l-.32,1.35h-1.52l-.31-1.74,2.09-1.35-2.2-1.8,1.06-1.24,1-.35.48-1.68,1.71-1,.81,1.19,1.48-.44-.72-1.07,2-1.08.2,1.16,2.13-1.62,3.31-1.43-.24-.74-1.45.71-.07-1.08-2-.7.13-2.07,1.21-1.68-.84-1.34,1.17-1.11,1.44,1.44,1.11-1.12-1.27-.48-.21-.93,2.18-2.1-.49-1.27,1.77-.18-.12-1.37,1.08-.56,1-1.78,1.76-1,0-2.23,1.41-.17,2.25-1.11-1.19-1-1.33.28-1-.58,1.81-1.36.91.63.46-1.48,1.17.6,1.08-1.62,1,1.05.73-2.66,1.74.68,2.14-1.55-.8-1.88.72-1.69,1.76,1.48.54,2.08L174,366l-.69,1.22,2.79-.89,1,.2-.66,3.41,1.57-.78-.67-.64,1.1-1.24.81.59,1.54-.69-.81-1-1.1-.38.76-2,1.56,0-.32-2L182,362l3.11-1.22-.68-.61-1.69,1.11-1.63.24-1.94-1.91-.77-1.3-.37-1.83,1.22-1-.67-.51,2.37-1.3.59-1.25,1.09.64.61-1.2,3.37-.25,1.15-1.09-2.15-.62-.87.23-.94-1.56.72-1.64,4.45-2.19.92-.83,1.4.3,1.06-1.33L190,343l-.89,1-4.54,2.48-1,1.84-1.86,1.21-1.87.19.17.76-1.59,1.94-2.92,1.1-1.21-.8,3.14-.79,1.49-1.89-3.49-.34.85-2.24-.1-.6,1.59-1.7,3.19-2.26,2.91-.86,1.47.75-.11-1.54-2.62.34,1-1.3,1.53-.56,1.15,1.13,3.64-3.61h.47l1.49.34,0,2.44.72.73,1-1,1,1Z" transform="translate(-18.6 -10.46)"/><polygon class="cls-1" points="105.68 455.11 106.45 455.6 112.22 458.05 114.97 459.44 117.46 461.27 120.1 460.1 121.99 459.86 122.89 458.67 122.98 456.39 124.31 457.31 125.06 456.81 125.53 454.81 128.84 453.44 127.64 449.78 127 447.12 127.53 445.82 128.6 445.08 129.71 442.11 131.03 440.58 134.28 440.76 140.16 442.45 141.41 441.88 142.77 442.42 143.37 443.43 144.56 441.83 145.89 441.21 147.58 441.07 150.1 442.56 151.84 442.83 152.67 443.52 152.75 445.15 154.21 447.24 154.63 449.08 156.53 449.98 157.2 450.98 158.46 451.68 159.82 453.74 160.7 456.03 161.45 456.95 163.81 456.46 164.16 457.9 164.87 458.12 165.91 456.48 170.84 457.59 172.42 458.22 174.04 459.98 175.8 458.96 176.8 458.97 177.79 462.03 175.18 480.71 174.09 488.14 177.25 492.15 178.73 493.38 180.54 495.87 183.94 495.57 190.93 505.73 190.12 510.45 189.17 513.28 187.27 515.88 186.67 519.92 185.1 520.53 181.25 520.36 176.6 521.79 176 522.29 178.52 528.18 178.58 530.01 180.02 535.69 182.72 540.08 182.85 542.12 184.42 544.47 185.03 546.3 185.02 551.4 183.67 554.04 182.49 555.38 182.62 557.42 183.54 561.66 182.55 566.16 181.36 568.94 180.08 570.06 178.77 572.47 176.13 574.3 174.75 576.1 173.58 575.92 171.83 576.3 170.2 575.56 167.77 576.93 167.76 577.69 166.62 578.54 165.76 574.75 166.22 574.23 165.56 573.02 165.97 571.42 166.56 570.99 166.27 568.39 165.41 568.39 165.25 566.58 162.3 564.98 160.08 562.11 160.64 561.01 160.6 559.44 161.1 558.01 159.18 556.63 158.11 554.86 157.11 554.48 156.8 553.12 155.05 548.72 154 548.23 152.73 546.77 151.95 546.47 152.12 543.62 150.71 541.63 149.63 543.31 149.19 545.84 148.59 545.73 145.79 547.11 145.38 547.81 143.03 547.54 141.19 546.61 139.7 546.81 140.3 549.6 142.64 549.99 144.57 551.53 144.56 552.39 145.28 553.93 143.58 555.46 141.16 555.4 140.14 554.64 137.71 555.08 134.96 554.69 133.03 555.26 131.74 554.8 132.34 552.23 131.05 552.53 129.34 551.25 127.78 550.88 127.01 544.86 125.66 543.14 125.04 540.81 124.4 539.61 122.7 539.26 121.28 539.39 122.19 540.92 118.94 543.07 118.92 545.17 119.24 547.88 118.54 547.95 115.7 546.48 114.34 545.19 114.1 543.68 111.05 543.97 109.73 543.07 109.59 541.52 110.17 540.61 108.95 539.58 108.37 537.27 107.62 536.53 108.03 534.25 107.15 532.66 105.4 532.16 103.88 530.33 102.53 529.81 98.68 527.36 98.08 525.71 96.34 525.43 93.58 524.09 91.97 522.72 91.72 521.23 89.54 519.38 87.98 519.15 86.32 517.74 85.12 515.57 83.74 516.34 81.34 514.46 80.08 511.86 79.5 509.43 80 507.71 81.81 506.31 82.7 505.16 83.49 505.21 84.49 503.86 82.47 501.95 82.46 499.27 85.34 499.25 86.49 498.14 85.81 496.47 85.36 494.29 83.89 493.54 82.03 494.63 78.24 492.74 78.05 490.53 77.34 488.49 77.89 484.77 76.45 483.62 74.47 482.93 68.95 483.83 69.09 482.27 67.11 477.42 67.29 475.81 66.87 473.78 67.26 471.63 66.95 470.4 66.25 470.14 66.19 468.79 67.47 467.87 68.03 466.52 70.27 466.12 71.08 467.51 72.88 466.91 71.81 465.05 73.59 464.26 75.51 462.3 77.6 462.21 78.37 463.16 81.07 463.03 84.75 457.8 86.52 455.97 88.11 455.29 90.7 454.69 92.34 454.81 96 454.53 99.72 454.51 101.87 454.75 102.46 455.86 104.71 455.69 105.68 455.11"/><path class="cls-1" d="M165.8,624.33l1.07.44-.84,2.52-1,.53-.65-.62.38-1.4-.42-.95Zm-5-.08.24-1.17,1.69.4-1.1,1.6Zm-3.94-18.2-.42,1.69-1-.53.44-1.45Zm-6.81-3.36-.92-1.42-.25-2.07.16-1.12-.75-1.85-1-.32-3.52,0-.7,1.33-1.27.06-.87-.81-.53,1.84-1.2.63-.31,1,1.55,2.54.87.93.77,1.91-.92.38-1.89-.25-.61.58-1.68-.19-.78-.56-1.11.53v2.18l-2.9.09L130.51,606l-.77-1.79-2,.15,0-.58,1.2-2-1-1-1-4.07-.34-2.09-1.74-.47.58-1.21-.16-1.89.48-1-.77-.8-3.37-1.76-.09-1.86.45-2.44-2-2.12-1.1-.21-1.52-2.52-.11-2.67-.74-1.59-2.56-2.49-2.52-1.77-1.55.47-2.24-.4-1.9.31-2.4-.75-2.42.14-1.75-.74-2.5,0-1.19.89-3.34,1.06-2.69,1.46-1.12-.71-2.79-.73-3.87,1.06,2.52-3.51.88-3.25,1.72-2.28.93-6.28,1.19-4.48-1.32-.89-.7-1.12-.3-1.78.46-1.73-2-1.33L82.46,545l4.42-3.73,1.63.72,1-1.34-.4-1.55,2.64-4.82,1.87-1.18,1.22,1.37L96,534.3l1.39.51,2.51-3.66,2,.33.31-1.21,1.28-1.83-1.54-1.07.95-.91,1.38-.77,1.2,2.17,1.67,1.41,1.56.23,2.18,1.85.24,1.49,1.62,1.37,2.76,1.34,1.74.27.6,1.66,3.84,2.45,1.35.51,1.53,1.84,1.74.5.88,1.59-.4,2.28.75.74.58,2.31,1.22,1-.58.92.14,1.55,1.31.9,3.06-.29.24,1.51,1.36,1.28,2.84,1.48.7-.08-.32-2.71,0-2.09,3.24-2.15-.9-1.53,1.41-.13,1.7.35.65,1.2.61,2.33L146.1,555l.76,6,1.57.37,1.71,1.28,1.28-.3-.59,2.57,1.29.46,1.93-.57,2.74.39,2.44-.44,1,.76,2.43.06,1.7-1.53-.73-1.54,0-.86-1.93-1.54-2.34-.39-.6-2.79,1.48-.2,1.85.93,2.35.27.41-.7,2.8-1.38.6.11.43-2.53,1.09-1.68,1.41,2-.17,2.85.77.3,1.28,1.46,1,.49,1.75,4.39.32,1.37,1,.38,1.07,1.77,1.93,1.38-.51,1.43,0,1.57-.56,1.1,2.22,2.87,2.94,1.6.17,1.81h.85l.29,2.6-.58.43-.41,1.6.66,1.21-.47.52.87,3.8.85.58,1.22,1.68.34,4.66-1.23,0-.82,2.17-1.86.25-1.43.82-.79,1.82,1.62,6.32.47,3.46.89,2,.27,4.89-1.08,1.53-.22,3.56-.38,1,.3,1.26-1.63,2.63-.69,2.81.12.82-1.41,2.23-1,.85-3.36,0,.14-3,.28-1.93L174,623.82l-1.28-.7-2.5,1.26-1.17-2-.16-1.52-1.47,1.36-2.18-1-.62-1.77-1,.71-.54,1.82-.79-1-.25-1.66-1.61,1.62-.38-2.47-.94-1.28-.85,0,.35-2.63,1.19-1.28-.83-.89-1.86.77-.47-1,.15-2.08-.36-.72.23-1.82.8-1.95,0-1.75-.75-2.22.14-2.87-.71-2.82-.8-2.38,0-1.85,1.58-3.83,1.28.4.88,1.77.68-1.42,2.81,1,1.26-1.2-.52-1.61.23-2,.77-1.5-.45-2-1.2-.1-1.48-2,.23-1.85-.76-.17-1.16-2.83-1.36-.43-1.82,0-.76.79.13,2-2.27,2.76,3.06,2.34.51,2.89-1.2.86-2,.49-.88,2.75.59.88-.06,2.09.46,2.24-.15.88,2,1.6L156,601l-2.06,1.82-1.8.71-1.1-.45.76-4.71-.13-2.15-1.6-2.3-1.59-.52-.33-1.16-1.31.4.85,1.52,2.48,1.57.76,2.45-.53,2.24Z" transform="translate(-18.6 -10.46)"/><path class="cls-1" d="M113.06,418.62l.9-.39.4,1.2-1.4.31Zm-1.47,7.7L110,423.85l-.69-2.59,1.43.44,3.13-1.09.58,2.31,1.33.74.57,2-2.3,1Zm4.75-10.57,1.94.51.83,1.46v.87l-3.35.4-1.32-.44,1.12-2.58Zm-12.33-4,2.33-.13.39-.42,1.4,2v1.41l.71,1.36-.87,1.44-1.66.62-2.66-.1-.74-1.68-2.44-.17-.66-1,.06-1.36,2.33-1.44ZM73.4,447.48l-.6-1.21.87-.63-.49-.81,1-1,1.16.53,1.33,0,2-.54.25,2-2.59,1-1.7.19Zm-1.2-.5.25.71-1.91.17,1.11-1.93Zm-3.73-3-.9-1.89,1.33,0,.35.77Zm10.21-5,1.47.1-.77,1.53-.77-.19.1,2.19-1.53-1.18L75.62,441l.31-1.89,1-.44.78,1Zm8.65,10.34-1.46-.06-.92-.81,1-.75,1.07.66Zm22.61-23.16-1.76.23-.59-2.43,1.31-1,.35,1,1.39,1.61Zm-2.67.22-1.66.44-2.78-.29-.56-2,2.15-.69L105,423l1.66-.54.89,2.94ZM64.89,454.28,63.4,455l-.7-1.28,1.65,0ZM51,467.27,47,468l-1.42-2.07,1.2-3.22,1.69-.08,1.88.88,2.16.14-1.1,1.57.47,1.29Zm-7.3-3.58,1,.24L44,465.22l-1-.42Zm18.9-17.94,1.41,2-.44.48-1.92-2Zm-1.45,1.78.78.1.81,1.05-.42.88-1.17-.85v-1.18Zm-.84,2.92.27.95-2.66.84-.15-.78,1.36-.86ZM47,459.59l.8,1-1.74.34,0-1.4Zm3.47,0,.65.35-.87,1.86-.85-.14Zm4.69,4.74L54,465.57,53.12,463l.43-.9-.88-.9,0-1.82L54,457.79l1.94-.41,1.14.24.48,2.68,1.62.92-4,2.85Zm3-9-1.68.3.06-1.12,1.65.19Zm.23,2,0-.42,2.79.22.67-.46,3,1.25-1.37,1.19-2.44.24-1.6-.5ZM99.45,427l.74-.29.6,1.3-1.82.24Zm.39,1.44,1.49.19-.28,1.69L99,432.24l-2.2-.76.5-2.32Zm-5.45,2.44,1.26-1.24.56,2.19,1.1,1-1,1-1.12.39-2.31,1.49-1,.18-.27-1.17-2.35-1,.24-.9,1.28-.77.17-1.77,1.61-.38Zm-31.06,14.2,2.08.93-1.17.71Zm57.4-30.84,1,1.24-.19,1.48,1.57.43.64.77-.94,1.26,0,1.28-1.14,1.33.92,1.73-.73,1.29-4,.35-.93-.31-.35-1.52-1.13-1.46,0-2.25,4-1,.09-1-.79-2,0-1.12ZM108.9,433.05l.85-.71.9.19,3.23-1.93.91,1.1,3.58-.55,2.71-2.41,1.13.66,2.42-.81.48,1.49-.83.46.25,1,2.45-.74.3,3,1,.92-1,1.89.45,2.09.89.54,2-.32.84,1-.53,1.31,1,.78-.29,2.53.86.77-4.87,1.57-1.53-.23-.45.63-1.58.13-1.53,1.36,1.22,2.45.68-.05,2.05,2.91.87,1.62h1.47l.47.92-1.56,4.61-.07,1.54-1,1.29-1.85,1.16-1,.58-2.25.17-.59-1.1-2.15-.25-3.72,0-3.66.28-1.64-.12-2.6.6-1.58.68-1.77,1.83-3.69,5.23-2.7.13-.76-.94-2.09.08-1.92,2-1.78.79L92,477l-1.8.6-.81-1.39-2.24.4L86.54,478l-1.27.93.06,1.34-.81-.56-2.64-.16-2.56.32-.77,1-2-.38-3.8.59-.5.51-1.54.13-.85-.53-1.61.49-1.38,0-.9,1-1.43-1.44-.12-1.51-2.51.6-2.74-2.49L58,479.5l-2.46.6-1.42-2-.85-.21-2.92,1.18-1.76-.84-3.9.51L43,477.06l.65-1,.76-1.45.28-1.55.64-1.09-2.41-.39-.6-1.36,1-2L44.53,467l1.37,1.73,1.85-.1.67,1.84-.15.9,1,1.63.56-.36-1.12-1.48.63-2.15,3.37-1.29,1.32.87.65,1.52L54,472.71l.83.06,0-1.55,1-.06.46,1.18,1.62,2,.86-.57L56,469.8l-.78-1.89,1.12-.36-.09-1.09-.84-.77,1-.92,5.43-3.57,2.64-.46v.94l.89,1.56.38,3,.89.63.43,2.15,1.59,3.06.67.14L68,468.77l-.65-2.54-.55-.57-.54-3.12-.67-1.07.25-1.21,1.34-.66,1.94.65.35-1.1,1-.65,2.46-.83.55.86,2.64.36,1,1-.78,1.48.56,2.76,1.58,2.68,0,4.59.83-2.06v-2.57l2.18-.14.86,1,1.44.27.66-1.2-.35-.66-1.6.45L80.71,466l-.63-.73-1.6-.29-.47-.81-.52-2.35.58-.53-.18-1.91-1.41-1.77-1.34-.19.11-1-2.4.16-5.07,1.75-2-.27-1.49-1.63-1.52.06-.48-.62,3.22,0,.12-.38,3-.41,2.45.19-.74-2.14-2.85.27-2.37-.2-1.18-.63-.5-2,1.89-1.4,1,.57,4.18-.62-.07,1.47.74.25.76-1.88,3.18-.87,2.15,2.23,1.19-.74.85-1.08,2.66.2.77,2.4,1-1.16L84.78,451l3,.43.28,1.73,1.13,1.11,2,1,3-.49.69-1-3.09.53-1.9-1L89,451.93l-.31-1.52,1.87-.43.55-1,2.27-.67.55-.59,4.7-1.55,1.7.12,1.08-.53.94.24,1.79,1.67.57-1-2.95-2-.86-.24-8.4,2.78-2.38.58-.64-1.18,0-1.81.82-.46,3.26-.83,1.84.16-.11-.74-3.62.31-5.55,1.38-6.16.42.39-1.65-.45-1,1.15-1.74,1.19-.51,1.86.68.75-.65-1-.92-1.75.57-1.2-.13-.11-1.69-.63-.13-.79-2,3.29-2.59,2.51-.76L88,432l.61,1.78,1.68.94.6,1,0,1.49,1.53.06L94,436l2.18-1.33,2.36.53-1.87,1.6.9.25,2-1.32,2.17-.38.79-.44,1.9,1.07,1.1,1.6-.77,1.49.89,3.39.67.91,1.89,1.2,1.1-.17.31.89,1.19.63.59,1.05,1.74.87.41,2,1-.78-.62-2-4-2.87-.35-.73-1.63-.34-1.14-1-.73-3.09.31-1.19-.38-1.49-1.8-1.48-2.11-1.3-1.33.38v-1.71l.75-.78,1.3-.26.16-1.9,2.08-.94.78.35.61,1.74-.28,1.69,1.15,1.17,1.42.83,1.59,1.7-1.16,1.6,1,1.82,1.74,1.24.82,1.18,1.2-.51.65-1-2.21-2.73-.24-1.06,2-.06,3.34-.43-.14-1-1.33,0-1.84,1-.86-.55-2.22.34-1.19-2Z" transform="translate(-18.6 -10.46)"/><path class="cls-1" d="M24,577.6l.76,1.22-1.28.7-.54-1.27Zm13.48,5,2.45.52L39,586l-.95-.79.52-1.78Zm-13-.92.25-2,1-.34-.9-1.13.84-.61.56,1.4L28,581.18l.73,3.58L27,584.7l-.77.86-.84,2.83.4.92-.21,1.37-1,.94-.86-1,.08-2.42.42-3.22,1.52-.88-1.1-.75Zm4.93-1.78-1.47-2.13,0-1.4,1.31-1.27.21-1.93.91.15.72,1,1.78,1.49.74,1.78,0,4.82-2.17,1.77-1.35-.38-1.42-1.81.72-.32Zm3.14-9.5-.33,1-1.59.83-.6-1.62.82-2.83,1.44.68Zm-5.94.35L27,572l-.61.53-1.63.22-.57-1.52Zm-3.07-.42.67.39L23.52,572l-.73-.55Zm3.86-17.66L27.6,554l-1.2.11.22-2Zm18.39,13.18,1-.29.95.91-.12,1-.82,1.18L45.2,569.8l-.54-3.21Zm-7.51,7.39-.78.34-1.4,2.64-1.42,1.44-.56-.22-.46-2.37L33,575l-2.36-2.44,1.08-.56,1.39.15L33,571l.47-1.22,2.1-.43,3.31-.23,0,2.18Zm-2.67,5.54-.27,1.73-1-.78,0-1Zm1.86,6.93L37,586.88,35.81,586l.53-1.23Zm-16-45.41.32,1-.65,1.37-1-.4.09-1.55Zm3.57,17.27.9.95.9,3.23-1,1-1-.25L24,561.2,22.45,560l-.33-1.44.07-2.23,1.23,1,.45-.77-.56-2L23,550.47l.59-1.18.9.87-.53,1,1.07.73.15,1.15,1.58,3-.31,2.2ZM26.13,564l.44,2.44-1.42-1.6Zm1.79,4.62-.75-3,.42-.16,1,2.19.61.33-.09,2.23-.35,1-1.07.75-.76-.9-.52-1.66.24-1.42Zm-3.61-36,1.14,3-.56.12-1.78-1.53-.37-1,.53-.94Zm2.2,9.63,1.88.77,1.44,1.77.63,1.39-.61,1.19-1.79-1.33-2.21-.83-1.06-1.36.17-1.82Zm.17,4.13,2.71,1.83.31,3.51-1.12.83-.85-.05L27,550.11,25.94,549l.31-1.17-1.29-1,.43-1.1Zm-6-27.34,0,1.08.71.8L21,522.64l-1.47-.47-.37-1.65.3-1.26ZM22.87,518l.58,1.39L22,520l.1-2.36Zm3.26,5.34,1.32-.59.31,1.46-1.93.2Zm.63,2.36.42,1.84v3l-1.27-.14-.15-4.47ZM23.35,527l1,.51.45,1.85-1.27.06Zm5.84,16.44-.69-1.08-1.22-.16-.79-1.33-2-1.68-.91-1.34.08-1.44,2-.11.91,1,.77,2.54L28,540l1.39,1.9Zm12-4,1.29.66-.6,3.83-.92,3.3.14,2.48-1.16.09-1.54,1.76-1.8-.24-.67-.55-2.11-3.52-1.06-1.4,1.33-.25,1.94-.89.86-1.65,2-.6,1.58-2.76ZM30.05,517.32l-1.47.15,0-2.45.77.54ZM26.6,514.5l.65-1.29,1,.35.08,4-.34.93-2.35,1,.09-1.29-1.87,1.24v-3.9l1.7-2.12,1.22.14Zm1.21-20.73.07.83-1.75.19.86-1.33Zm.19-4.51.52,1.83-1.37-.24-.23-.85Zm.31,16.24,1.18-.31,0,2.57H27.81l-1.47-1.09,1.35-1.95Zm4.1-5.83-.09,1.07L31,500.61l.1-1.14ZM34,497.43l-.57.14-1.8-1,1-.66Zm5.52-21.28-.89.14.06-1.57,1.14.7Zm-6.09-1.34,2.09.4,0,2.74-1.31,1.4-.88-1.47.7-.79-.62-1-.85-.1-.58-1,.32-1.25ZM36.22,482l1.36.57L37.45,484l-1.11-.15-3.55,1-1.35.95-1.85.41-.16-3.23-1.72-1.12,2-1.58,1.26-.62,1.16,1Zm-7.68,4.65-1.68-1.78,1.19-.78,1.08,1.76ZM71,586.33l-2.93.28-4.07,2-1.15.88-1.48.26-1.29-.48-.06-.79,1.13-2.37-.22-.62.39-2.31-.65-.74-2.17.44-.69-.62-2.48,1.54-.47.74-2.37.2L51,586.64l-.28,1.73-1.07.45-.5,1.72-1,1.87v1.39l-1.58-.12-1.39-.77-2.25.72.09-.91-1.63-.82-.12-.69-1.35-.43-.17-.8-.69-.23L39,588.08l2.16-1.44,1.75-1.74,3.74,1.39.66-.48,1-2.06-1.34.11-.4,1.27-1.56.19-.93-.64-.43-1.31-1-.18-1,1-1.09-1.11L40,581.53l-.89-.69-1.23.26-.33-1.4,1.73-.53.28-1.62.76-1.08,1.51,0,1.67-1,1.74.17.48-1.5-.47-.82,1.6-3,2-1.17.76.1,1.39-.81-1.66-1.58-.83-2.45,1.12-1.2,1.39.13.69-1.74.67,0,.49-2,1.9-.46.67-1,.32-1.55,1,.23,2.39-.59.51-1.25L61,553.84l1.22.53,1.16,1L61.54,559l.06,1.08-1,1.7-.32,2.26-.86,2.44.63.06,1.41-3.08.13-1.9,1.1-2.11,0-.71,1-2.28,1.23-.89.59-1.21,1.3-.75.88-1,1.17.41,2.47-.52,1.48,1.07.6-.69-1.47-1.25-2.42.08.84-1.37,2.32-2.59-.31-.21L70,550,69,551.74l-1.38.17-1.9.73-.18.67-2.05,1-.77-1.62-2.41.15-1.78.94H57.37l-.41.85-2.86.71-.73,1-1.93.16.93,1.74-1.28.72.06,2.32-2.19.5-1.68-1.17-.4,1.88-1.08.74-.47,2.32-1.16,0-.31,1.28.33,1.59-.07,2-.38,1.41-1.27,1.66-2.17.49-.38-1.49-.73.3L39,570.41l.62-2.48.81-1.39-.56-1.14L39,565l-1.9.59-.84-.48.9-1.88,1.66-1.53.17-1.75-1.1-1.09L36.47,560l.24.68L35.37,563l-1.45.45-.75,2.18-1.2-.86-.41-1.26,0-2.63-1.93.92-.83-.81.56-.94-1.16-1.7.25-2-.57-2.83,1.75-1,1.58.84.37-1.23-.86-1.25-.36-2,.27-1.31,1-1,1.56,1,1.47,2.68L36.12,552l2.62-.09.67-1.19,2.13.25.05-4,.69-2.67.87-5-1.5-.34-.59-1.38-1.29,1.19-1.33.06.3,2.85-.88.7-1-.3-.86,1-1.78.86-.49.9-1,0-1,.89-1.3-1.14-.55-2.7L28,539.59l.39-.78,2.22,2L31,540l-2.83-3L27,533.83l-.83-.88,1-.94.77,1.69.53-.2,3.06,2.76,1.65.61.15,1.64,2.37,3.23.42-.27-1.62-2.09,1.42-.35-1.54-2.43-1.56-.83-.66-.89.94-1.4,1.78-1-.3-1.11.44-.79,2.49-.32.85,1.07.63-.57-1-.92-3.45.55-.42,1.74-.64.59-1.1-.94-1.09-.12-1,.88-.63-1.33-.9.29-.8-.69-.45-2.64.21-1.6-.58-1.2,2.71.07L28,524.23l-.1-2.59.56-1.23L30,520l4.31.82.44,1.73,3.92.93-.13-1.31,1-.73,1,.15L42.45,520l2.15.28,1.76-1.24,1.12.9.94-.77,2.23.27,1.13,1.19,2.14-.36,1.29.23.63.82,1.3.07L58.63,523l2.09.27,1.7-.47.92-.95,1.06.76,1.29-3.91L67.18,520l1.74.47,1.74,0,.48,1.38L71,523.08,74,524.59l.35,3.31,1.22,2.2,2.24,1.78-.18-1.43-1.31-.39-.88-1-.87-3.54.34-.55,0-2.12,4.15-.4.63-1.29,1.91,1.41.67-.21,1.54.8.09-2,.85-1,1.52-.62,2,.18.55-1H85.89l-1.63.43-.85-.46-.1-2.87L81.88,514l1.16-.52.94-1.08,0-.95,1.19-1.77,1-.4.43-1.43L89,505.88l-.56-.28-1.59,1.3-1.36.52-.34,1.4-1.56.79-.79,1.12.09,1.14-2.09,1.8.56,1.55.8.37.32,3.47.86.75-1.62,1.05L79.87,520l-1.3,0-1,1-4.84,1.13-.6-2.36-1.52-1.34-2.54,0-.72-1L65,517l0-1.6,2.21-1.64-.56-.39-2.47,1.9-.82,2.19.15,2.72-4,1-1.65-1.39-.63.1-1.39-1.69-3.52.55-1.68-1.29-2.48.22-2.66-.66-.91.19-.44,1.11-1.85-.8-.91,1-2,.89-2.17,1.35-1.46-1.56.19-1.27-2.44.87-.41-1.13,1.52-.33L33,515.92l-1.14.66-1.95-1.69.62-1.09,1.16,0,2.49,1.38.42-.9-2-1.41H29.78L29.22,511l-1-1.46,1.7.17.25-.65,1.34.2.48-.84,1.5.85.11-2.07,3.58.14.91-1-4.71.22-.55,1.2-2.19.28-1.09-4.13-.73-.66,2.42-1.31,3.77.16,1-.75,1.59.83,1.68-.6.2.86,1.09.3-.08-1.43-1.16-.47-1.38,0-2.62-1.06-1.52-.85.3-1.89,1.37.86,1.32.28,1.16-.71-2.46-1.64,1.25-1.5-.78-.88-2,.07-1.18-.63-2.53.34.56-1-.69-1.11.2-2.5L32.05,487l2.46.94.58-.75,2.3.23-.09-.78-2.48,0-1.27-.33,1.36-1.24,1.11-.06,2.33-.83.74-.65L39,482.33l1.79-1.54,1.11-.39.65.68,3.26.66,2.11.94.53,1.29-.89,1,2.65-.07,2.18-.6,2.69.9,1.8,3.57,1.22-.27L57,486.28l3-.53,1.83.54.86,1,2.21.92,1.2-.15,2.09-2,1.69-.77,1.54.61.27-.71-3-.82-2,.77L66,486.94l-2.45-.17L62,485.2l-2.26-.29-2.34.51-1.87-1.6h-2l-1-.57-2.55.29-1.43-1.28h4l1.48.34.29-.64-1.94-.56-.87.28L50,481.18l-2,.24-7.17-1.71-1.55.86-2.17-.48-1.1.77-.9-1.79.8-1.2.08-1,2.66.27,1.42-.6.56-3L38.94,472l-.45-.89-2.76-.26.1-1.23.7-.84-.71-2.37,2.57-.37.78,1.48,1.68.69-.53,2.2,1.55,1.65,1.53,2.11.23,1.87-.65,1,1.75,1.72,3.9-.52,1.76.84,2.92-1.18.85.22,1.42,2,2.46-.6,1.08-1.69,2.74,2.5,2.51-.61.12,1.51,1.43,1.44.9-1,1.38,0,1.61-.49.85.52,1.54-.13.5-.5,3.8-.6,2,.38.78-1,2.56-.32,2.63.16.82.56.7.27.31,1.23L86,483.91l.42,2-.18,1.61,2,4.85L88,494l5.53-.9,2,.69L97,494.9l-.54,3.71.7,2,.2,2.22,3.79,1.88,1.85-1.08,1.48.75.44,2.17.69,1.67-1.15,1.11-2.88,0v2.68l2,1.91-1,1.36-.79-.06-.9,1.15-1.8,1.4-.5,1.73.58,2.42,1.25,2.6,2.4,1.89-1,.91,1.54,1.07-1.27,1.83-.32,1.21-2-.34-2.5,3.67-1.4-.52-1,.14-1.22-1.37-1.87,1.18-2.64,4.82.4,1.55L88.5,542l-1.63-.73L82.45,545l2.53.32,2,1.33-.45,1.72.29,1.78.7,1.13,1.33.88-1.2,4.48-.93,6.28L85,565.19l-.87,3.24-2.52,3.51-1.25,1.9-.29,1.81L77.19,577l-.85-.17L75,578l-2.36,3.77L72.38,583l.39.87L72.34,585Zm-41,9.89-1.61.14-1.87.56-.33-.38L25,595l.13-1.78,1.13-.66,1-2.6,1.59-.59.86-.8.32,2,1.15-.32L30,588.46l1.29-2.21,1-.45,1,.4-.61,2.91-.56.55L32.2,592l-.7,2.87-1.21-.07Z" transform="translate(-18.6 -10.46)"/><path class="cls-1" d="M85.33,480.26l-.82-.56-2.63-.16-2.56.31-.78,1-2-.38-3.8.6-.5.51-1.54.12-.85-.52-1.61.49-1.38,0-.9,1-1.43-1.45-.12-1.51-2.51.61-2.74-2.5L58,479.5l-2.46.6-1.42-2-.85-.22-2.92,1.18-1.76-.84-3.9.52L43,477.06l.65-1m38,95.89,2.52-3.51.88-3.24,1.71-2.29.94-6.28,1.19-4.48-1.32-.88-.71-1.13-.29-1.78.46-1.73-2-1.33L82.46,545l4.42-3.73,1.62.72,1.06-1.34-.4-1.55,2.64-4.82,1.87-1.18,1.22,1.37L96,534.3l1.39.51,2.51-3.66,2,.34.31-1.22,1.27-1.83-1.53-1.07.95-.9m82.88,62.2-.86-3.8.46-.52-.66-1.21.41-1.59.58-.44-.28-2.6h-.86l-.17-1.81-2.94-1.6-2.22-2.87.56-1.1,0-1.56.5-1.44-1.93-1.38L177.19,565l-1-.38-.31-1.37-1.75-4.39-1-.49-1.27-1.46-.78-.3.17-2.85-1.41-2-1.08,1.68-.44,2.53-.6-.11-2.8,1.38-.41.7-2.35-.27-1.84-.93-1.48.2.59,2.79,2.35.39,1.93,1.54,0,.86.72,1.54-1.7,1.53-2.42-.06-1-.76-2.43.44-2.75-.39-1.93.57-1.29-.46.59-2.57-1.28.3-1.71-1.28-1.56-.37-.77-6-1.36-1.72-.61-2.33-.64-1.2-1.7-.35-1.42.13.91,1.53L138,553.19l0,2.09.32,2.72-.7.08-2.84-1.48-1.36-1.29-.24-1.5-3.06.29-1.31-.9-.14-1.55.58-.92-1.22-1-.58-2.31-.75-.74.41-2.29-.89-1.58-1.74-.51L123,540.45l-1.34-.51-3.85-2.45-.6-1.66-1.74-.28-2.76-1.33L111,532.84l-.24-1.48-2.18-1.86-1.56-.22-1.67-1.42-1.2-2.17-1.38.78-2.4-1.89L99.16,522l-.58-2.42.5-1.73,1.8-1.4.9-1.15.79.06,1-1.36-2-1.91v-2.68l2.88,0,1.15-1.11-.69-1.66-.45-2.18-1.47-.75-1.85,1.08-3.79-1.88-.2-2.22-.71-2L97,494.9l-1.43-1.15-2-.69L88,494l.15-1.56-2-4.85.18-1.61-.43-2,.4-2.15L86,480.53l-.7-.26-.07-1.35,1.28-.92.56-1.35,2.25-.41.81,1.4L92,477l-1.07-1.87,1.78-.78,1.91-2,2.1-.09.76.94,2.7-.12,3.69-5.24,1.77-1.82,1.58-.69,2.6-.6,1.64.13,3.65-.28,3.73,0,2.14.25.6,1.11,2.25-.17,1-.58m-2.92-40.16.73-1.29-.93-1.73,1.15-1.33v-1.28l1-1.26-.65-.77-1.57-.43.2-1.48-1-1.24m75.14,54.82h-1l-1.77,1-1.61-1.76-1.58-.63L185,466.6l-1,1.64-.71-.22-.35-1.44-2.36.5-.75-.93-.88-2.29-1.36-2.06-1.26-.7-.66-1-1.91-.9-.42-1.84-1.45-2.09-.09-1.63-.83-.69-1.73-.27-2.53-1.49-1.68.14-1.34.62-1.19,1.6-.59-1L160.5,452l-1.26.57-5.87-1.69-3.25-.18-1.32,1.52-1.12,3-1.07.74-.52,1.29.64,2.67,1.2,3.66-3.31,1.37-.47,2-.76.5-1.33-.92-.09,2.28-.9,1.19-1.89.24-2.64,1.17-2.48-1.84-2.75-1.38-5.77-2.45-.77-.49,1.84-1.16,1-1.29.08-1.54,1.55-4.62-.46-.91h-1.47l-.88-1.62-2.05-2.91-.67,0-1.23-2.44,1.54-1.36,1.57-.13.46-.63,1.53.23,4.86-1.57-.86-.78.29-2.52-1-.78.54-1.31-.85-1-2,.32-.9-.54-.45-2.09,1-1.89-1-.92-.29-3-2.45.73-.25-1,.82-.46-.47-1.49-2.43.81-1.13-.67-2.71,2.42-3.58.55-.9-1.1-3.23,1.92-.91-.18-.85.7m80.23-95.42.51-4m.73,3.7h-.47m4.71,3.5-1-1-1,1-.72-.73,0-2.44m46-3.18-3.27-.87-2,.9-1-.34-1.63.56-2,.08-4.16.72-2-.51-2.4.88-2.17-.1-3.07-.64-1.36.31-.63,1.76-1.15.25-.55,1.73-1.16.77.78.81-.84,1.23-2.69,0-.12,1.68-1.06-.57-1.76.64-1.38-2.43-1.17.6-2.32-.65-2.31,1.52-1.78-.87-.18-.5M156.88,584.83l-.5-2.9-3.06-2.33,2.27-2.76-.13-2,.75-.79,1.83,0,1.36.43,1.16,2.82.76.18-.23,1.85,1.48,2,1.2.1.44,2-.77,1.5-.22,2,.52,1.6-1.26,1.21-2.81-1m-36,49.67-.88-.77-3.26-1-.21-2.83-.49-1.1-2.12-1.39-.89-1.07-.86-3-1.38.27-2.6-.24-.34.87-1.53.94-.06.52,1.67,1.3-1.35,2.1.06,1.15-1.1.51-.46-.91-1.69-1-1-2.2-1.07-.69-1.6.82-.72,1L100,630.4l-2.18-.58-.33-.83-2.86-2.39-1.88.22.54,1-1.69.12-1.69-.66-1-1.3-1.44-2.59-.15-1-1.35-2.83-1.48-1.41-.21-1,.9-3.06-.7-1.59-.5-3.21L82,608.93l-.34-2.2-1.26-1.17,1.18-2.09,1.11-.76-.85-2-1.1-1.21-.39-1.81,1-1.16-1-1.07-1.53-2.43-1.16,1-4.17-2.27M71,586.33,72.35,585l.43-1.14-.4-.87.26-1.27L75,578l1.34-1.12.85.17,2.9-1.38.29-1.81,1.24-1.9,3.87-1.05,2.79.73,1.11.7,2.7-1.46,3.34-1.06,1.18-.89,2.51,0,1.75.74,2.42-.14,2.39.75,1.91-.3,2.23.39,1.55-.46,2.53,1.76,2.56,2.5.74,1.58.11,2.68,1.52,2.51,1.1.22,2,2.11-.45,2.44.09,1.87,3.37,1.75.77.8-.48,1,.16,1.9-.58,1.2,1.74.47.34,2.09,1,4.07,1,1-1.21,2,0,.58,2-.15.76,1.79,1.72,2.14,2.9-.09v-2.17l1.12-.54.78.56,1.68.19.61-.58,1.89.26.92-.39-.78-1.91-.86-.92L138.91,600l.32-1,1.2-.63.53-1.84.87.81,1.27-.06.69-1.33,3.53,0,1,.32.75,1.85-.16,1.12.25,2.08.92,1.41M264.15,168.86l-1.09.49-1.06-1.2.55-.58-1.32-2.15-1.12,2.71.1,1.2-1.1,0L258,171.47l-1.4.39-1.38-3.67,1-1.18-.4-1.74.83-1.24,1,.2.69-1.61-.07-1.69h1.35l2-2.32m37.88,7.68L297.29,163l-4.8.94-3.47.32-3.54,2-2.45.43-5.82-.3-2.46,3.16L272,170.7l.35,1.71M39.76,590l.17.81,1.35.43.12.69,1.63.82-.09.91,2.25-.72,1.39.77,1.57.12v-1.39l1-1.87.5-1.72,1.06-.45.29-1.73,1.5-1.86,2.37-.2.47-.74,2.48-1.54.69.62,2.17-.44.64.74L61,585.53l.22.62-1.13,2.37,0,.79,1.29.48,1.48-.26,1.16-.88,4.07-2,2.93-.28.26,1-.24,3,2.42,1.53-2.89.82-.36,1.49-1.08,1.49L67.8,595l-.57,3.52.86,2.09-1.76,1.61-1.86.63.1,1.46-1.79,3.76-.34,2.25.29.94-.29,2.79,1.59.47.43,1-1,.7.33,1.76-3.1,2.68-2.21,2.25-1.07.69-1,2.12L54.44,627l.09,1.16,1,.38L53.9,631l-1.1,2.71,1.43.4-.18,1,1.08,1.9-.61.76-2.42.63-.72-.17L51,639.67l.6,1.52.93-.78,1.22.71,0,1.21.59,1.73-.83,2.16.68,3.21-1,1.23.18,2.06L52,654.83l-3.43,1.53M26.24,596.54l.33.38,1.87-.56,1.61-.14" transform="translate(-18.6 -10.46)"/></g><g id="Layer_3" data-name="Layer 3"><path class="cls-2" d="M158.9,545.14a11.72,11.72,0,0,0-11.72,11.72c0,6.48,11.72,22.38,11.72,22.38s11.72-15.9,11.72-22.38A11.72,11.72,0,0,0,158.9,545.14Zm-9.59,11.72a9.59,9.59,0,0,1,19.18,0c0,3.69-5.33,12.58-9.59,18.71C154.64,569.44,149.31,560.55,149.31,556.86Zm9.42-9.67c-2.94,0-9,5.06-9,8s6.06,20,9,20,12-17.05,12-20S161.68,547.19,158.73,547.19Zm.17,12.87a3.2,3.2,0,1,1,3.2-3.2A3.21,3.21,0,0,1,158.9,560.06Z" transform="translate(-18.6 -10.46)"/><path class="cls-2" d="M86.09,635.06a11.72,11.72,0,0,0-11.73,11.72c0,6.47,11.73,22.38,11.73,22.38s11.72-15.91,11.72-22.38A11.72,11.72,0,0,0,86.09,635.06ZM76.5,646.78a9.59,9.59,0,0,1,19.18,0c0,3.68-5.33,12.58-9.59,18.71C81.83,659.36,76.5,650.46,76.5,646.78Zm9.42-9.67c-2.94,0-9,5.06-9,8s6.06,20,9,20,12-17.06,12-20S88.86,637.11,85.92,637.11ZM86.09,650a3.2,3.2,0,1,1,3.19-3.2A3.2,3.2,0,0,1,86.09,650Z" transform="translate(-18.6 -10.46)"/><path class="cls-2" d="M36.05,552.7a11.72,11.72,0,0,0-11.72,11.72c0,6.48,11.72,22.38,11.72,22.38s11.72-15.9,11.72-22.38A11.72,11.72,0,0,0,36.05,552.7Zm-9.59,11.72a9.59,9.59,0,0,1,19.18,0c0,3.69-5.33,12.58-9.59,18.72C31.79,577,26.46,568.11,26.46,564.42Zm9.43-9.66c-3,0-9,5-9,8s6,20,9,20,12-17.06,12-20S38.83,554.76,35.89,554.76Zm.16,12.86a3.2,3.2,0,1,1,3.2-3.2A3.19,3.19,0,0,1,36.05,567.62Z" transform="translate(-18.6 -10.46)"/><path class="cls-2" d="M38.1,491.38A11.72,11.72,0,0,0,26.38,503.1c0,6.48,11.72,22.38,11.72,22.38s11.72-15.9,11.72-22.38A11.72,11.72,0,0,0,38.1,491.38ZM28.51,503.1a9.59,9.59,0,1,1,19.18,0c0,3.69-5.33,12.58-9.59,18.71C33.84,515.68,28.51,506.79,28.51,503.1Zm9.42-9.67c-2.94,0-9,5.06-9,8s6.06,20,9,20,12-17,12-20S40.87,493.43,37.93,493.43Zm.17,12.87a3.2,3.2,0,1,1,3.19-3.2A3.2,3.2,0,0,1,38.1,506.3Z" transform="translate(-18.6 -10.46)"/><path class="cls-2" d="M65.92,427.72A11.72,11.72,0,0,0,54.2,439.44c0,6.47,11.72,22.38,11.72,22.38s11.72-15.91,11.72-22.38A11.72,11.72,0,0,0,65.92,427.72Zm-9.59,11.72a9.59,9.59,0,0,1,19.18,0c0,3.68-5.33,12.58-9.59,18.71C61.66,452,56.33,443.12,56.33,439.44Zm9.43-9.67c-3,0-9,5.06-9,8s6.05,20,9,20,12-17,12-20S68.7,429.77,65.76,429.77Zm.16,12.87a3.2,3.2,0,1,1,3.2-3.2A3.2,3.2,0,0,1,65.92,442.64Z" transform="translate(-18.6 -10.46)"/><path class="cls-2" d="M167.34,374.31A11.73,11.73,0,0,0,155.61,386c0,6.47,11.73,22.37,11.73,22.37s11.72-15.9,11.72-22.37A11.73,11.73,0,0,0,167.34,374.31ZM157.75,386a9.59,9.59,0,1,1,19.18,0c0,3.68-5.33,12.57-9.59,18.71C163.08,398.61,157.75,389.72,157.75,386Zm9.42-9.67c-2.94,0-9,5.06-9,8s6.06,20,9,20,12-17.06,12-20S170.11,376.37,167.17,376.37Zm.17,12.86a3.2,3.2,0,1,1,3.19-3.19A3.19,3.19,0,0,1,167.34,389.23Z" transform="translate(-18.6 -10.46)"/><path class="cls-2" d="M205.4,263.71a11.72,11.72,0,0,0-11.72,11.72c0,6.48,11.72,22.38,11.72,22.38s11.72-15.9,11.72-22.38A11.72,11.72,0,0,0,205.4,263.71Zm-9.59,11.72a9.59,9.59,0,1,1,19.18,0c0,3.69-5.33,12.58-9.59,18.72C201.14,288,195.81,279.12,195.81,275.43Zm9.42-9.66c-2.94,0-9,5.05-9,8s6.06,20,9,20,12-17.06,12-20S208.18,265.77,205.23,265.77Zm.17,12.86a3.2,3.2,0,1,1,3.2-3.2A3.2,3.2,0,0,1,205.4,278.63Z" transform="translate(-18.6 -10.46)"/><path class="cls-2" d="M234.6,144.92a11.72,11.72,0,0,0-11.72,11.72c0,6.48,11.72,22.38,11.72,22.38s11.73-15.9,11.73-22.38A11.73,11.73,0,0,0,234.6,144.92ZM225,156.64a9.6,9.6,0,0,1,19.19,0c0,3.69-5.33,12.58-9.6,18.72C230.34,169.22,225,160.33,225,156.64Zm9.43-9.66c-2.94,0-9,5.05-9,8s6.06,20,9,20,12-17.06,12-20S237.38,147,234.44,147Zm.16,12.86a3.2,3.2,0,1,1,3.2-3.2A3.19,3.19,0,0,1,234.6,159.84Z" transform="translate(-18.6 -10.46)"/><path class="cls-2" d="M348.07,59.55a11.73,11.73,0,0,0-11.73,11.72c0,6.48,11.73,22.38,11.73,22.38s11.72-15.9,11.72-22.38A11.72,11.72,0,0,0,348.07,59.55Zm-9.6,11.72a9.6,9.6,0,0,1,19.19,0c0,3.69-5.33,12.58-9.59,18.72C343.8,83.85,338.47,75,338.47,71.27Zm9.43-9.66c-2.94,0-9,5-9,8s6.06,20,9,20,12-17.06,12-20S350.84,61.61,347.9,61.61Zm.17,12.86a3.2,3.2,0,1,1,3.19-3.2A3.2,3.2,0,0,1,348.07,74.47Z" transform="translate(-18.6 -10.46)"/><path class="cls-2" d="M407.18,39a11.72,11.72,0,0,0-11.72,11.72c0,6.47,11.72,22.38,11.72,22.38s11.73-15.91,11.73-22.38A11.73,11.73,0,0,0,407.18,39Zm-9.59,11.72a9.59,9.59,0,1,1,19.18,0c0,3.68-5.33,12.58-9.59,18.71C402.92,63.27,397.59,54.37,397.59,50.69ZM407,41c-2.95,0-9,5.06-9,8s6.05,20,9,20,12-17,12-20S410,41,407,41Zm.16,12.87a3.2,3.2,0,1,1,3.2-3.2A3.2,3.2,0,0,1,407.18,53.89Z" transform="translate(-18.6 -10.46)"/><path class="cls-2" d="M453.71,11A11.72,11.72,0,0,0,442,22.68c0,6.48,11.72,22.38,11.72,22.38s11.72-15.9,11.72-22.38A11.72,11.72,0,0,0,453.71,11Zm-9.59,11.72a9.59,9.59,0,0,1,19.18,0c0,3.69-5.33,12.58-9.59,18.71C449.45,35.26,444.12,26.37,444.12,22.68ZM453.54,13c-2.94,0-9,5.06-9,8s6.06,20,9,20,12-17,12-20S456.48,13,453.54,13Zm.17,12.87a3.2,3.2,0,1,1,3.2-3.2A3.21,3.21,0,0,1,453.71,25.88Z" transform="translate(-18.6 -10.46)"/><path class="cls-2" d="M106.26,391.68A11.72,11.72,0,0,0,94.54,403.4c0,6.47,11.72,22.38,11.72,22.38S118,409.87,118,403.4A11.71,11.71,0,0,0,106.26,391.68ZM96.67,403.4a9.59,9.59,0,0,1,19.18,0c0,3.68-5.33,12.57-9.59,18.71C102,416,96.67,407.08,96.67,403.4Zm9.42-9.67c-2.94,0-9,5.06-9,8s6.06,20,9,20,12-17.06,12-20S109,393.73,106.09,393.73Zm.17,12.86a3.2,3.2,0,1,1,3.2-3.19A3.2,3.2,0,0,1,106.26,406.59Z" transform="translate(-18.6 -10.46)"/></g></svg>