<?xml version="1.0" encoding="utf-8"?>
<!-- Generator: Adobe Illustrator 25.0.0, SVG Export Plug-In . SVG Version: 6.00 Build 0)  -->
<svg version="1.1" xmlns="http://www.w3.org/2000/svg" xmlns:xlink="http://www.w3.org/1999/xlink" x="0px" y="0px"
	 viewBox="0 0 515.1 688.9" style="enable-background:new 0 0 515.1 688.9;" xml:space="preserve">
<style type="text/css">
	.st0{fill:#2B721A;stroke:#000000;stroke-width:0.5;stroke-miterlimit:10;}
	.st1{fill:#2B721A;stroke:#000000;stroke-width:0.5;stroke-linecap:round;stroke-linejoin:round;}
	.st2{fill:#0B2BAF;}
</style>
<g id="Ebene_1">
	<g>
		<path class="st0" d="M37.9,647l0.2,1.9l-1.1-0.1l-0.4-2L37.9,647z M33.5,616.7l-1.5-0.1l0.4-1.1L33.5,616.7z M32.3,614.1l1.6,0.5
			l1.5,0.1l0.7,1l-0.1,1.4l-0.7,0.4l-3.5-2.8L32.3,614.1z M44.3,610.3l0.1,0.6l-2.2,1.7l-0.5-1.1L44.3,610.3z M42.1,610.1l-0.9,0.3
			l-0.8-1.4l0.7-1.5l2.4-0.3l1.2,1.1l-0.2,1.3L42.1,610.1z M25,611l-0.5,1.4l-2.6-0.3l-0.4-2.9l0.6-1.4l0.3-2.4l0.7-0.8l-0.4-2
			l0.7-0.9l0.4-1.8l1.3,0.5l0.4,2l-0.6,0.8l1,1.3l-0.5,0.5l0.4,1.5L25,611z M29,610.9l-1.3,0.2l-1-0.8l0.6-2.3l1.5,1.2L29,610.9z
			 M38.8,612.7l-1,1.4l-1.1,0l-0.5-1.1l1.6-1.9L38.8,612.7z M24.7,595.3l0.7,0.5l0.9,0.8l0.3,0.4l1.9-0.6l1.6-0.1l0.4-0.8l1.2-0.1
			l1.5-1.8l0.1-4l1.1-1.7l2.1,0.7L39,590l0.8-0.1l0.2,0.8l1.4,0.4l0.1,0.7l1.6,0.8l-0.1,0.9l2.2-0.7l1.4,0.8l1.6,0.1l0-1.4l1-1.9
			l0.5-1.7l1.1-0.5l0.3-1.7l1.5-1.9l2.4-0.2l0.5-0.7l2.5-1.5l0.7,0.6l2.2-0.4l0.6,0.7l-0.4,2.3l0.2,0.6l-1.1,2.4l0.1,0.8l1.3,0.5
			l1.5-0.3l1.2-0.9l4.1-2l2.9-0.3l0.3,1l-0.2,3l2.4,1.5l-2.9,0.8l-0.4,1.5l-1.1,1.5l-1.3-0.6l-0.6,3.5l0.9,2.1l-1.8,1.6l-1.9,0.6
			l0.1,1.5l-1.8,3.8l-0.3,2.3l0.3,0.9l-0.3,2.8l1.6,0.5l0.4,1l-1,0.7l0.3,1.8l-3.1,2.7l-2.2,2.2l-1.1,0.7l-1,2.1l-1.9,1.3l0.1,1.2
			l1,0.4l-1.6,2.5l-1.1,2.7l1.4,0.4l-0.2,1l1.1,1.9l-0.6,0.8l-2.4,0.6l-0.7-0.2l-0.4,1.5l0.6,1.5l0.9-0.8l1.2,0.7l0,1.2l0.6,1.7
			l-0.8,2.2l0.7,3.2l-1,1.2l0.2,2.1l-1.4,2.1l-3.4,1.5l-1.5,0.3l-1.2-1.7l-3.6-1.7l-2.8-2l-1.1-2.3l-0.1-2.5l-2.8,0.1l-2.1-1.6
			l0.3-1.1l-1.1-1.1l-1-0.1l-1.1-1.1l-0.2-1.4l-2-4.4l0.3-1l-0.7-0.9l-0.1-2.7l1.3-1.4l-0.1-1.1l0.7-1.1l0.6-2.4l-0.2-2.2l0.6-0.9
			l-0.4-0.9l0.2-1.7l1.5-0.1l2.4,2.5l0.8,0.3l-0.4,1.9l2.3,0.2l0.5-1.4l2.2,0.8l0.7,1.1l-0.6,1.1l3.3,0.8l0.1-1.4l0.6-0.9l1.9-1.2
			l2.4-1.2l2.1,0l3.6-0.9l-0.2-0.5l-3.9,0.7l-2,0.1l-1.6,0.9l-2.8,2l-1,1.5l-0.8-1.1l-0.6-1.8l0.7-1l1-0.4l-0.6-1.1l-1.9-0.2
			l-1.1-2.2l-0.1-1l2.5-1.6l1.3,0.4l0.9-0.7l-1.2-0.7l2.1-2.4l0.1-0.7l3.2-2.3l1.2,0l1.6-1.5l-4.5,1.6l-0.8-1.5l0.6-1.1L43,605
			l0.9-1.7l2.2-0.9l0.1-0.7l1.8,0.1l1.4-2.4l0.5-1.7L53,597l1.2-1.3l-4.2,1.4l0.8-1.6l1.1-1.3l0.1-1.9l-1,0.2l0.2,1.9l-0.9,0.7
			l-0.7,1.8l-1.2,0.9l0.2,1.3l-1.6,2.1l-3.5,0.8l-1.7,2.4l-0.8-2.5l0.2-2.3l1.3,0.4l2-0.4l0.1-1l-3.4-0.1l-0.9-1.7l0.2-1.7l-1.4,0.9
			l0.8,2.7L37,600l0.5,0.4l1.8-0.4l0.4,2.1l0.6,0.7l-0.3,1.4l-1.8,0.8l-1.2-0.4l-2.9,2l-0.2-1.6l1-0.1l-0.8-3l-0.2-4.2l0.3-1.4
			l-1-0.1l-1.7,2.5l2.2,0.1l0.1,3.1l-0.5,0.3l-0.1,2.4l-1.9,2.6l-3.1-1.3l-0.5-1.3l0.2-1.3l-1.5,0.4l-0.5-2.5l-0.9-2l-0.3-1.7
			L24.7,595.3z"/>
		<path class="st0" d="M270.9,146.6l-1.8,0.5l-0.7-0.6l1.3-2l0.3,1.6L270.9,146.6z M268.2,151l-1.1-1.6l-1.7-1l0.5-1.7l1.4,0.2l1,1
			l1.6,0.3l0.8-0.6l0.9,0.3l0.4,1.2l-0.4,1.5l-0.8,1.3l-1.7-0.2L268.2,151z M277.3,156.4l0.6-2.3l1.1-2.2l1.2,2.3l1.9,2l-0.8,1.1
			l-2.5,0.6l-1.6,0.9l-0.9,0.1l0.3-2.2L277.3,156.4z M272.6,147.8l1.5,0.1l-1.4,1.5L272.6,147.8z M286.5,140.8l0.8,1l-0.4,1
			l-0.9,0.5l-0.8,2l-0.6,0.5l-0.6-2.2l0.8-2.4L286.5,140.8z M284.9,148.9l1,1.4l1.1,0.6l-1,1.5l-2.5,2.6l-1.4-0.4l-0.1-1.2l-1.8-3.5
			l0.3-0.9l1.3,0.5l0.8-0.9L284.9,148.9z M284,116.2l1.8,1.5l0.6,1.5l1.2,0.4l-0.7-3.2l0.7-0.3l1.3,2.5l0.9-1.5l1.2-0.2l1.4,2.4
			l2,1.4l-0.7,2.3l1.1,0.5l-0.2,3.7l-1.8,0.8l-0.4,1.2l1.1,3.5l-0.5,1.3l1.6,1l-0.8,0.8l-2.2,1.1l-1.9-0.4l-1.1,1l-2.2-0.8l0.1-1.1
			l-0.9-0.6l-2.6,4.2l-0.9,0.7l-1.5,2.6l1.1,1.2l-1.3,1l-1.9,0.5l0.1-1.5l0.7-1.4l-1.5,0.1l-0.5-0.5l-1.7,1.2l-1.8,0l-0.1-1.9
			l0.5-1.3l1.8,0.7l-0.3-1.3l3.1-0.7l0-1.9l-3-0.7l-0.3-1.7l1.5-0.3l1.4,0.4l0.3-1.2l-2.5-1l-1.1-1.6l2.8-1.4l-2.4-2l3.4-1.7
			l2.1-0.1l2.3,2.2l0.2-1.1l-1.1-0.3l-0.2-1l0.7-1l-2.4-0.8l-1-2l0.4-0.3l1.9,1.4l0.3-1.6l-0.6-1.6l2.1,1l0.6-0.1l1.4,1.3l0.6,1.2
			l1.5-0.4l-1.4-1.2l-2.7-3.7L284,116.2z M270,169.9l1.3,1.1l-1.4,0.9l0.7,1l-1.2,1.2l-1.1-0.1l-1.5,0.6l-2.1,1.4l-1-1.4l1.1-1.4
			l0-2.5l1.4-2.4l2.6-0.6l1.2,1.2L270,169.9z M294,111.4l1.2,1.1l-1.2,0.8L294,111.4z M308.5,82.2l0.6-0.2l0.9,1.2l0.3,4.9l-1.7,1.3
			l-2.5-2l1.8-2.1l1-0.1l-1.5-1.7L308.5,82.2z M316,88.1l0,0.9l-1.1,0.4l-1.2-0.2l-1.7-0.9l0.1-1.4l1-0.7l1.2,1.1L316,88.1z
			 M313.6,102.7l-1.5,1.3l-2.3,0.8l-0.5-0.2l-1.3-2.1l-1.3-0.6l-1-1.3l-2.2-0.8l-0.9-0.7l0.4-2l1.2,0.4l1-0.5l-1.2-1.1l0-1.3l0.9-1
			l1-0.1l2.1-1.9l0.4-0.9l1.2-0.5l1,0.7l1-0.7l-0.2,2.4l1.6,2l0.6-2.6l1.1-0.7l2.1,1.2l1.4,1.2l-0.7,1.8l-2.4,1l0.5,1.7l-0.7,0.9
			L313.6,102.7z M308.5,108.5l0.6,0.4l-0.7,2.7l-1.1,0.3l0-2.1L308.5,108.5z M308.7,104.6l0.6,0.9l-0.7,1.9l-2.1,2.6l-1.4,0.6
			l-0.6,2.1l1.4-0.1l0.3,1.2l-0.7,2.2l-1.3,0.4l-1-0.8l-0.7,1.4l-1.8,0.5l-1.4,0.8l-2.9,0.8l-0.8-0.3l-1.2-1.5l-1.5-0.1l0-2l1.2-0.4
			l0.9-1.1l2.3,0.5l-1.4-1.8l-0.8-2.3l2.8,0.8l0.7-0.6l2.4-0.2l0-0.6l-3.6,0.2l-0.6-3l1.2-1l2.3,0.8l0.2-1l0.8-0.6l1.2,0.1l-0.4,1.8
			l0.6,1.4l1,0.5l0.1-2.7l0.8-1.3l-2.1-1.1l-0.5-1.7l1-1l1.3-0.2l1.8,2.1l1.5,0.1L308.7,104.6z M300.2,102.4l0.7,0l0.5,1.3l-2.4,0.6
			l-0.2-0.8L300.2,102.4z M319.3,94.2l0.6-1.2l1,0.2l0.9,1.2l-1.4,2.5l-0.2,2.5l-0.4,1l-1.6,0.2l-3.5,1.1l0.8-2.7l0.7-1.4l1.3-0.8
			l1.7-2L319.3,94.2z M314.2,81.9l0.6-0.4l0.3-1.3l0.8-0.2l0.7,1.2l0.3,1.8l0.8-0.4l0.6,1.1l0.3,1.9l1-0.6l0-1.8l1.3,0.8l-0.2,0.8
			l1.4,2.2l2.7,0.6l-0.5,0.9l-1.3,0.5l0,1.2l-1.7,0.7l-2.2-0.1l-0.7-0.6l-0.5-1.6l0-1.4l-0.6-1.2l-1.6-2.1l-1.2-0.3L314.2,81.9z
			 M323.6,85.1l-1.6,0.4l-0.1-1.2L323.6,85.1z M325.4,81.5l-0.4-2.1l1.8,0.3l-0.6,1.4L325.4,81.5z M330.9,81.3l1.3-0.8l2.2-0.3
			l1.1,1.7l-0.5,4.6l1.2,2.2l-1.1,0.6l-1.3,0l-1.2,0.9l-1.3-0.6l-1,0.2l-1.4-1.3l-0.1-2.8l0.2-2.1l1.6-1.1L330.9,81.3z M337.4,87.7
			l-0.8,0.2l-1.2-2.1l0.9-2.2l1.8,2.6L337.4,87.7z M338.7,91.8l1.1-0.2l-0.7,2.1l-1.6,1.1l-1.6-1.4l0-0.9l-0.9-1.7l1.1-1.4l0.9,0.2
			L338.7,91.8z M303.8,93.5l-0.5,0.2l-0.8,2.2l-0.9-1l-0.2-3l0.5-0.9l-0.2-1.2l1.5,0.2l0.7,1.5l1.4-1.2l1.1,0.5l-0.6,1.7L303.8,93.5
			z M304.7,87.7l-1.9,0.2l0.6-2l1.2-0.1L304.7,87.7z M351.3,89.5l-2.5-0.8l0.9-1.5l2,1.3L351.3,89.5z M349.7,76.6l-1-0.9l-0.1-3
			l-0.5-1l1-0.4l1.3,1l-0.3,3.4L349.7,76.6z M364.1,68.1l1.9,0.3l0.1,1.1l1.8,1l1-0.2l0.2,1.2l1.2,1.7l-0.3,1.3l-1.9-0.3l-1.9,0.5
			l-2.9-0.2l-0.4-0.4l-2.7-0.8l-1.1-2.2l2.7-2.1L364.1,68.1z M352.3,92.2l0.1,0.8l-1.8-0.2l0.6-1.1L352.3,92.2z M333.2,98.2
			l-0.1-1.5l1.5-0.5l0.9,0.6l0,1.4l1,1.1l-0.3,0.9l-2.2,1.8l-0.6-0.7l-0.6-1.9L333.2,98.2z M406.3,67.3l-0.4-1.5l1.3,0.3L406.3,67.3
			z M378.5,57l-1.1-1.7l0.2-3.2l-1.1-0.4l-0.3-1.3l0.4-2l2-0.3l1.1,1.5l2.2,0.2l1.4,1l1.7,3l-0.1,1.1l-1.5,2.3l0.2,1l-1.4,1.2
			l-1.9,0.2l-0.9-0.6L378.5,57z M380.9,31.7l-0.9,0.9l-0.1,0.9l-1.4,0.2l0.8-1.5L380.9,31.7z M380.2,34.4l-0.3,0.7l1.4,1.6l1.4-0.1
			l0.5,0.9l-1.9,1l-1,1.1l-1.6-0.7l-0.8-1.1l-0.4-3.3l2.3-0.6L380.2,34.4z M362.3,50.2l2.4,1.3l0.7,0l0.5,2.7l1.1-1.7l0.1-1.3
			l0.7-1.5l-1.7-1.4l2.1-2.5l2.5,2.7l0.3-1.2l-0.7-0.4l-0.2-3.2l1.2,0.9l0,0.8l2.3,1.2l0.2,0.8l-1.5,0.9l0.3,1.2l-1.5,3l-1.1,0.5
			l-0.8,2.9l-0.3,2.2l-1.1,0.1l-1.2,0.8l0.4,1.8l-2.8,1.4l-0.7-1.4l-1.1-0.6l-0.8,0.3l0.7,2l-0.8,1l-2.6,0.7l-1.7-0.1l-2.1,0.8
			l-0.5-1.8l1.3-1.1l0.7-3.2l-1.6,0.1l-1.4,0.9l-2.1-0.1l0.8-1.3l-1.9-0.3l0.6-1.5l0.9,0.7l3.3,0.3l0.7-1l2,0.9l-1.3-2.3l0-1
			l2.1-0.1l1-0.8l1.7,0.9l-1.3,1.7l0.5,1l1.6-1.5l1.9-0.3l-1.2-1.3l-0.5-1.6l-1-0.9L362.3,50.2z M377.5,60.1l0.9,1.7l0.3,1.4l-2.9,5
			l-1.4,0.5l0.9,1.2l-2.3,2.3l-1.8-0.1l-0.9-1.8l-2.9-1.6l0.2-0.7l-1.1-3.2l0.8-0.7l0.7-1.6l0.8-1l1.9-0.5l-0.9-0.8l1.8-1l1.8-0.4
			l0.8-1.6l-1.4-1.9l2.3,0l1.6,1.2l-0.2,2.7L377.5,60.1z M410.8,45.7l-0.9-0.6l0.8-1.7l0.8,0.9L410.8,45.7z M403.3,21.8l0.3,1.5
			l1.2-1.3l0.8,0.3l-0.2,1.9l1.6,0.4l0.6-1.1l1-0.7l1.1,1.2l-0.7,1.7l-1,0.6l0.3,1.3l1.1,0.6l-0.9,1.2l2.6-0.8l0.2-1.5l1.6-1.3
			l0.3,1.5l-1,2l-1.5,1.4l-1.8,0.6l-1.6-0.1l-1-0.5l-0.6,1.7l0.4,0.8l-2,0.9l-1.1-0.6l-0.5-1.1l-1.4-0.9l1.6-1.4l-1-0.7l-2.1,1.8
			l-1.1-0.7l-0.3-1.5l0.9-0.6l-0.3-1.1l2.1-0.1l0.9-1.6l2.3,0.6l-2-2.5L403.3,21.8z M390.2,28.6l1.3-0.4l-0.9,2l0.6,0.6L391,32
			l-0.9,0.1l-2.1-1.3l0.9-2.5L390.2,28.6z M483,64.8l1.3-0.1l1.6,0.9l0.8,2.1l1-0.4l0.5,0.9l-1.7,1.6l-1.3,2l-2.4,0.9l0.4-5
			l-0.9-2.4L483,64.8z M487.6,64.8l-0.6,1.8l-0.7-1.6L487.6,64.8z M264.1,168.9l-1.1,0.5l-1.1-1.2l0.5-0.6l-1.3-2.1l-1.1,2.7
			l0.1,1.2l-1.1,0l-1.2,2.1l-1.4,0.4l-1.4-3.7l1-1.2l-0.4-1.7l0.8-1.2l1,0.2l0.7-1.6l-0.1-1.7l1.4,0l2-2.3l-0.1,2l-1.7,2.6l-1.5,1
			l-0.4,0.8l0.7,2.8l0.5-0.1l-0.5-2.5l1.9-1.5l2.2-2.8l-0.1-1.8l0.5-0.5l1.3,0.5l1.5-0.1l-0.1-1.1l-1.4-0.4l-1.4-2.2l0.6-1.4l1.1-1
			l1.2,0.1l0.4,1l1,0.4l-0.8-2.1l0.8-0.2l2.7,1.7l1,1.3l0.4,3.1l0.7,2l0.2,2.4l-1.3,2.6l0.2,1.7l-0.8,0.5l-1-0.5l-3.3,0.8l-0.8,1.3
			L264.1,168.9z M299.4,166.3l-2.1-3.3l-4.8,0.9l-3.5,0.3l-3.5,2l-2.5,0.4l-5.8-0.3l-2.5,3.2l-2.8,1.2l0.3,1.7l-0.9-1.9l-1.3-0.8
			l0.1-1.5l2.7-1.3l-1.1-0.8l0.1-1.5l0.7-1.5l1.2-0.5l1.9-1.7l1.7-0.1l1-1.5l1.4-0.2l0.1,1l1.3,1.2l0.5,1.1l1.3-0.8l-1.6-0.6
			l-0.1-1.9l2.3-1.1l-0.2-1l2.7-3.1l0.8-0.2l3.2,1.6l1.8,0.2l0.3-0.8l-2-0.1l-3.3-1.7l2.3-2.8l0.8-0.3l1.1,1.1l2.2,0.1l-2.6-3
			l-3.2,1.4l-1.1,0.9l-0.1-2.8l1.5-0.3l-0.2-1.3l-1-0.5l0.9-1.9l0.7-0.5l1.6-2.3l-1-1l1.5-0.7l1,0.1l2.3-1.6l2.2-0.3l-0.3-1.5
			l0.4-2.4l-1.6-0.9l-0.4-2.7l1.1-0.6l0.7-1.2l-0.2-2l0.7-0.9l0.1-1.4l-0.6-1.1l2.7-1.5l1.4,1.7l0,2l2.2,1l0.5,4.3l0.8,0.5l-0.3-3.7
			l0.9,0.5l-0.2,1l0.7,0.8l1.1-1.1l2.3-0.8l-3.2-1.4l-0.9-1.7l-2-1.6l-0.3-1.8l-0.7-1.3l1.5-0.6l1.1-0.9l0.9,0l3.2-1.3l0.5,2.2
			l1,2.8l1.6,1.1l-0.1,1.3l2,2l3.4-0.2l1.1,1.5l-1.6,3.1l1,1.2l2.3-1.5l-0.4-0.9l-0.2-2.6l-1.3-2.1l-1.3-0.5l-2.8,0.5l-0.8-0.8
			l-0.4-1.8l-1.7-1.3l0.4-2.7l-1.3-1.9l-0.4-2.3l0.6-2.1l1.2-1.9l0.2-2.4l1.2-0.5l0.3-1l1.2-0.9l1.4-0.1l5-2.5l1,0.3l0,1.4l-0.6,1.3
			l0.5,0.6l-0.3,1.8l0,2.1l1.4,0.6l-0.6,4.1l-0.5,0.9l0,1.7l0.9,0.9l-1.6,2.6l1.4-0.1l1.2-3l-0.1-1.5l-0.5-1.3l0.9-2.9l3.4,1.1
			l-0.8-1l-1.8-0.5l-0.5-1.6l-0.9-0.9l0.3-1.9l0.7-0.8l-0.3-1l0.9-1.6l0.3-1.9l0.9-0.4l0.2,2l1.3-7.5l1.2-0.4l1.1-1.8l1.3,1.6l1,2.1
			l-0.2,3.4l-0.5,3l0.1,5.1l1.5,0.9l-0.3,2.4l-1.5,0.6l0.3,3.8l0.7,0.1l-0.2,1.5l-1.1,0.9l0,2.5l-1.6,1.5l0.6,0.9l1.9-2l1.1,0.5
			l-0.2-1.9l0.9-2.1l0.4-3.6l0.1-2.7l2.1,0.6l0.4,1.2l1-0.1l0.6,1.1l1.1-0.3l-1.6-1.3l-1.4-2.2l-1-0.4l-0.5-1.2l0.7-3.4l-0.9-2.8
			l0.8-0.1l1.6-1.4l1-0.3l0.9-1.5l0.1-1.2l-0.8-1l0.2-0.8l1.2-1l0.4-1l1.3-0.7l0.7-1.3l0.9,0.6l-1.3,1.3l-1.5,3.6l0.8,0.8l0.6,1.5
			l0.8,0.8l1.1-0.9l-1-1l1-1.2l-0.5-1.6l2.3-0.8l0.7-0.8l-1.1-1.6l0.4-3.7l1.7-0.9l1.3,0.2l1.8,1.4l0.8,1.3l0.5,1.8l2.6,1.1l0.7,0
			l2,1.9l1.3,2.4l1.6,0.5l1.4,1l0.8-0.6l-3.4-3.1l0.7-1l-0.2-0.9l-1.5-0.3l-0.7-0.7l-0.8-2.4l0.8-0.9l-0.9-1.2l1.2-0.6l1.5-0.1
			l-0.9-1.7l-1.4,0.9l-1.2,0.2l-1.3-1l1.3-1.4l-0.4-0.5l-1.4,1.1l-2.8-1.1l-2.3-0.5l-1-1.9l-2.3-0.7l-1.5-2.6l1.3-1.8l0.7,0.1
			l1.1-1.1l0.5,0.9l1,0.5l-0.6-3.4l1.2-0.8l0.1,1.6l0.9,1l1.6,0.9l0.7,1.3l0.9,0.1l-0.2-2.5l0.7-0.8l1.4-2.7l1.1,0.1l2.4,1.3
			l1.4-0.2l1.1,0.4l-0.3,1.5l0.4,2.7l-0.5,2.7l2.1-0.2l-0.7-1l0.1-2.2l-0.3-3l1.7,0.1l2.9,1l3.2,0.2l1.7-0.3l0.9,0.3l-0.1,1.9
			l-1.8,3.1l-3.4,1.8l-2,0l-2.5,2.5l0.5,0.8l1.4-1.9l1.6-0.4l5.5-3l1.4-2.2l0.6,1.4l0.5,2.4l-0.5,0.9l1.3,1l0.7-0.9l1.2,3.2l1.3,0.4
			l0.8-1.1l1.8-0.8l0.3,0.6l1.4-0.9l0.6-1.8l-0.5-0.5l-2.3,0.6l-2.9-1.3l-1.3-1.2l1.4-1.1l1.7-0.3l0.6-1l-2-1.4l-0.2-1.1l-1.2-0.6
			l0.5-2.2l1.4-1.9l1.2-0.7l-0.4-2l1.6-3.2l2.5-3.3l0.2-1.5l0.7-1l1.5-1l1.2-0.4l1.1,0.7l2.8,0.2l-0.5-1.2l-2.1-0.9l-0.8-0.9
			l0.7-1.1l0.4-1.6l0.1-2.9l1-1.5l2.4,0l0.1,0.6l1.6,0.7l1,1.4l1.2-0.8l-0.3-0.9l-1.1-1l-1.5-2l-1.4-1.1l-2.3,0l-1.9-0.9l0.1-1.8
			l-0.8-1l1.5-2.1l1.6,2.1l2.9,1.5l0.2-1.7l-1.5-2.1l1.4-0.5l0-0.8l-1.9-0.4l-0.8-3.2l1.2-1.2l2.2-0.5l0,1.2l1.6,1.5l1.3-0.6
			l0.3-1.5l1.4,0l0.1,1.1l-1,2.1l1.3,0.4l0.3-1.5l0.9-1l1.4,1l0.9,1.4l1.1,2.6l0.9-1.3l-0.2-2.2l0.2-1.2l-2-2.6l0.6-0.7l1.5,0.4
			l0.3,0.6l1.9,1.3l-1.1,2.2l0.9,0.6l1.3-2.8l1.5-0.2l0.8,0.6l1.4-0.8l0.7,0.2l-0.2,1.5l-0.8,2.1l0.1,1.6l-2,1.2l-0.2,1.3l0.8,0.2
			l-2.1,3.8l-0.7,0.9l-1.7,4.8l-1.2,1.8l1.4,0.1l0.2,1.4l-0.7,0.5l-1.5-0.1l0.4,1.3l2.1-0.9l0.2,1.9l-0.6,1l1.4,0.3l-0.2,1.2
			l-1.3-0.6l-0.6,2l0.3,2.5l0.9-1.2l0.7,0.2l0.2,1.6l-1.3,1.9l-1.8,1.8l0,1.5l1,1.1l-0.5,1.5l0.7,3l1,0l-0.2-2.4l0.4-1.4l1.7,1.7
			l-0.1,1.6l1.3,0.6l0.9-1.5l0-4l0.9-1.5l0.3-2.5l1.1-1.3l0.2-2l-0.9,0.3l-1.5-0.9L408,61l1.5-1.9l0.8-3.3l0.1-1.5l1-1.3l1.3-3.2
			l1.4-2l-0.4-0.9l0.3-1.7l-0.4-2.3l0.3-1.2l0.9-0.4l-0.2-1.7l0.9-0.7l0.3-1.8l1.6-4.1l1.9-3.6l1.4-1.1l1.2,1.4l-0.2,0.8l0.6,1.8
			l-0.5,1l0.4,1.6l1.1,1l-0.4,1.6l0.4,1.3l-2,2.8l-1.6,1.2l-0.6,1.8l2.8-1.7l1.9,0.6l0.3,3.6l0.4,1.1l-0.6,1.6l0.3,1.4l0.7,0.2
			l-0.5,1.7l0,1.3l1,2l0.8-2.8l1.2,0.7l0.6-2.8l2.2-1.1l1,1l0.8-2l-2.1-2.3l-0.3-1.2l0.6-2.4l3.1,0.3l0.3-0.6l-2.9-1.2l-0.1-0.7
			l1.1-1.5l-1.5-0.8l-0.1-2.2l2.4-0.3l-0.5-4l1.3-0.3l1.3,0.5l0.6-1.9l-1.1-0.9l-2-0.5l-2.3,0.4l-1.8-1.1l0-2.7l0.8-0.1l2,1.2
			l0.2-0.6l-1.3-1.8l-1.2-0.5l0.8-1.7l1.7,0.6l2.2,0.2l0.3,1.5l0.8,0.2l-0.2-2l-1.5-1.1l-0.5-2.1l1.5-2.3l2,0.2l-0.5,2.5l2.5,0.9
			l0.6-0.3l2.3-3.2l1.1,0l0.7-0.9l1,0.3l0.7,1.6l-0.6,1.2l0.6,1.1l2.7-0.8l1.9,0.2l0.7,0.9l0.1,2.7L449,26l-1,2.8l-1.5,2.3l-5.5,0.7
			l0.2,1.3l1.6-0.3l2.2,0.3l0.9,0.7l-0.9,1.7l-2.8,2.5l1.6,0.7l3-2.9l0.3-1.1l1-0.9l0.8,1.4l0.1,2.8l-0.4,1.7l-1.5,2.6l-2.3,2.7
			l-0.4,1.7l2.2-0.5l0.9-1.2l2.3,0l0.3-1.2l1.6-0.6l0.6,1.6l1-0.9l1.2-0.3l-2.4-1.8l0.1-2.3l0.3-0.6l-0.1-2.8l-0.4-1.3l0.3-0.9
			l-0.7-1.1l1.3-3.7l0.6-3.1l1-1.5l2-0.9l0.4,0.6l1.5-0.5l1,0.9l1.7-0.3l1.2,2.4l1.8-0.1l-0.5,1.7l0.6,2.5l-0.9,1.7l1.1,0.5l0.4-1.4
			l1.3-1.5l2-0.9l1.6-1.8l1.5,0.1l0.6,1.5l0.1,1.8l0.9,0.4l0.9-3.4L476,27l1.7,0.6l1.7,1.7l1.7,0.9l-0.3,1.9l-0.8,1.4l-1.9,0.7
			l0.2,0.8l1.4,1l0.8-1.3l2.3-1.9l3.7-0.4l-0.1,1.4l3.1,1.2l0.3,1.8l0.8,0.2l1-1.3l1-0.7l2.6,2.2l0.7,1.3l0.6,2.7l-1.2,1.9l-1.9,1.4
			l-0.6,0l-3.5,2l-0.2,1.8l-1.8,1.1l0,1.7l0.9,0.9l-3.2,3.1l-0.4,1l-1.1,0.9l-1.9,0.9l-4.6-0.2l-2.5,0.2l-2,0.5l-0.7-0.5l-1.8,0.5
			l-1.3-0.4l-1.5,0.8l-0.9-0.3l-2.9-0.3l-1,0.6l-2,2.4l1.7,0.4l0.5-0.7l2-0.4l0.5,1.3l1-0.3l3.6,0.5l0.6-0.3l0.9,1.2l1.6,0l0.5-0.6
			l2.6,0.2l0.6,0.4l2.6,0l0.2,1.2l-2,2.2l-1.5,2.6l1.3,0.6l0.8-3.4l1.2-0.2l2.8,0.6l0.5,3l-0.2,2.6l-0.9,0.7l0.4,0.8l-0.4,2.4
			l0.9-0.5l0.4-1.8l1.4-0.9l1.2-0.1l2.8-2.7l0.5,0.4l-0.2,1.6l1.6,1l-0.9-2.1l1.5-1.1l-1.3-1.6l0.1-0.7l-1-1l0-1.1l2.3-1l0.5,1.1
			l1.1,0.2l1.3,2.7l1,2.9l0.8-0.9l-0.9-1.1l-0.9-2.4l1.1-0.9l0.6,0.4l1.6-0.4l2,1.3l1.1-1.3l2,2.4l0.2,1.2l1.4,1.1l-0.1,0.7l0.9,1.2
			l0.8,3.5l-1.4,2l-2.1,0.2l-2.9,0.7l-2.3-1.8l-3.8-1.9l-1.6-0.5l-0.9,0.8l1,0.6l1.9,3.4l0.2,1.3l-0.6,1.5l0.5,2l-1,2.8l-0.8,0.7
			l-1.8-0.4l-0.8,1.6l-0.9,0.6l-0.2,1.4l-1.4,2.6l-2.9,0.5l-1.4,1.8l0.3,2.3l0.9,0.8l0.3,2.6l-0.4,0.8l0.5,2.4l-1.8,5.3l-4.1-2
			l-1.3-1.4l-0.4-2.9l-0.6-2.4l4.1-9.8l0.9-4.3l-4.8-6.7l-1.3-2.4l-3.9-0.7l-9.3-1.9l-1.6-1.1l-0.2-1.5l-3.4-1.1l-3.9-3.6l-0.6-1.8
			l-0.9-1.6l-2.2,1.3l-0.7,0.8l-0.8-0.3l-1.4,0.4l-0.8,1.1l0,1.6l-1.5,0.6l-0.8,1.6l-1.2,1.1l0.7,0.8l-3.6,3.2l-1.1-1l-1.4,0.5
			l-1-1.1l-2,1.2l-0.9-0.8l-3.1,2l-0.5,2l0.1,2.3l-1.9,2.4l0,1l-0.9,2.9l-1.2,1.1l-0.6,0l-1.4,3.1l1.2,0.9l0.7,1.6l-0.2,1.8
			l-1.3,1.9l0.7,0.5l0,2.8l-0.3,2.4l1.1,1l-0.9,4.1l0.4,1.5l-0.4,1.5l0.3,2.5l1.4,2.6l0,1.7l1.3,3.5l0.6,0.6l-0.6,1.6l0.1,1.1
			l-0.7,3.7l-1.4,0.5l-1.1-0.6l-3.1,3.3l-0.8,2.2l-0.5,0.6l-0.2,2.2l0.4,3.7l0.6,1.7l-0.6,1.1l-1.9,0.6l-0.6,0.9l0.2,2.3l-0.8-0.2
			l-2-3.2l-3.4-1.6l-5.6-0.6l-2.9-1.2l-0.2-1.7l-1.3,0.7l-2-1.9l-2-0.1l-1.5,1.1l-0.2,3.5l-0.5,2.1l-3.9,1.4l-4.2,3.8l-2.6-2.5
			l-4.2,0.8l-3.7-1.3l-1.4-0.7l-2.6,1.8l-1.4-5.2l-3.3-4l-0.6-1.7l-4.1-5l-2.9-3l-2.6-3l-2.1-2.7l-6.1-0.8l-2.7,2.8l-1.3,2.1
			l-0.1,1.7l1.6,3.2l1,0.7l-0.4,3.2l-6.3-3.2l-2.4,3.2l-8.3,1.7l3.5,4.1l1.4,1.3l1.3,5.8L335,156l-2.1,3.9l-1.8,2l1.7,1.1l3.7,1.4
			l-3.7,5.3l-0.8,1.6l-17.4-5.8l-6.3,1.1l-4.1-3.2L299.4,166.3z"/>
		<path class="st0" d="M149.6,620.5l0.9,0.7l-0.2,2.8l-0.8-0.3L149.6,620.5z M150.7,620.3l-1.6-1.1l0.7-2.1l0-1.6l1,0.5l0.8,1.7
			l0.2,1.4L150.7,620.3z M73.5,591.8l-2.4-1.5l0.2-3l-0.3-1l1.3-1.3l0.4-1.1l-0.4-0.9l0.3-1.3L75,578l1.3-1.1l0.8,0.2l2.9-1.4
			l0.3-1.8l1.2-1.9l3.9-1.1l2.8,0.7l1.1,0.7l2.7-1.5l3.3-1.1l1.2-0.9l2.5,0l1.8,0.7l2.4-0.1l2.4,0.7l1.9-0.3l2.2,0.4l1.6-0.5
			l2.5,1.8l2.6,2.5l0.7,1.6l0.1,2.7l1.5,2.5l1.1,0.2l2,2.1l-0.5,2.4l0.1,1.9l3.4,1.8l0.8,0.8l-0.5,1l0.2,1.9l-0.6,1.2l1.7,0.5
			l0.3,2.1l1,4.1l1,1l-1.2,2l0,0.6l2-0.2l0.8,1.8l1.7,2.1l2.9-0.1l0-2.2l1.1-0.5l0.8,0.6l1.7,0.2l0.6-0.6l1.9,0.3l0.9-0.4l-0.8-1.9
			l-0.9-0.9l-1.6-2.5l0.3-1l1.2-0.6l0.5-1.8l0.9,0.8l1.3-0.1l0.7-1.3l3.5,0l1,0.3l0.7,1.9l-0.2,1.1l0.2,2.1l0.9,1.4l-1.1,0l-1.9-1.4
			l1.1,3l1.8,2.9l1.8-0.4l0.1,1l0.9,0.5l-0.9,2.2l0.1,1l1.3,1.5l-0.1,1.3l-0.7,1.1l-1.1,0.8l-1.8-1.1l0,1.9l-0.9,0.8l-0.6,2.9
			l0.1,1.3l-1.1,0l0.6,1.5l-1.2,1.6l-1.1-0.5l0.2,1.8l-1.9,1.5l-0.6-0.9l1.2-0.7l-0.2-0.7l-3.1,2.4l-0.2,1.2l-1.4-0.4l-0.5,1
			l-0.9-0.6l-1.4,0.4l-0.6-0.8l0.2-1.4l-1-1.4l-0.2-1.4l-1,0.5l-0.4-0.9l-1.2,0.1l0.1,1.2l1.1,1.7l-1.9,0.7l-0.6,1.6l-1.5,0.7
			l-0.3,1l-2-0.2l-1.2,1.9l-1.2,1l-2.1-0.4l-0.7,0.9l0.8,0.7l2-0.5l1.4,1.2l-2.5,1.3l-0.2,1.5l-0.9-0.8l-3.3-1l-0.2-2.8l-0.5-1.1
			l-2.1-1.4l-0.9-1.1l-0.9-3l-1.4,0.3l-2.6-0.2l-0.3,0.9l-1.5,0.9l-0.1,0.5l1.7,1.3l-1.3,2.1l0.1,1.2l-1.1,0.5l-0.5-0.9l-1.7-1
			l-1-2.2l-1.1-0.7l-1.6,0.8l-0.7,1l-1.9-1.2l-2.2-0.6l-0.3-0.8l-2.9-2.4l-1.9,0.2l0.5,1l-1.7,0.1l-1.7-0.7l-1-1.3l-1.4-2.6l-0.2-1
			l-1.4-2.8l-1.5-1.4l-0.2-1l0.9-3.1l-0.7-1.6l-0.5-3.2l-1.9-0.4l-0.3-2.2l-1.3-1.2l1.2-2.1l1.1-0.8l-0.9-2l-1.1-1.2l-0.4-1.8l1-1.2
			l-1-1.1l-1.5-2.4l-1.2,1L73.5,591.8z"/>
		<polygon class="st0" points="156.4,581.9 153.3,579.6 155.6,576.8 155.5,574.9 156.2,574.1 158,574.1 159.4,574.6 160.6,577.4 
			161.3,577.6 161.1,579.4 162.6,581.4 163.8,581.5 164.2,583.4 163.4,584.9 163.2,586.9 163.7,588.5 162.5,589.7 159.7,588.7 
			160.1,586.6 159.1,584.8 157.6,585.5 156.9,584.8 		"/>
		<path class="st0" d="M224.2,188.8l0.9,1.3l-1,0.7l-1.1-1.1l-0.2,2.4l-1.7,0.3l-0.3-1.1l-2.1,2.4l-0.8-1.2l1.1-3.5l-0.8-2.5
			l1.7-1.2l-1.3-0.7l0.9-1.8l1.6-1.3l2.1,1.4l1.1-0.7l1.3-2.3l1.4-0.2l0.6,1.4l0,1.7l1.8-0.4l0.9,1.2l-1.6,1.7l-1.1,1.8l-2.1-0.6
			L224.2,188.8z M215.3,188.2l1.2,0.2l1.3,1.2l-0.8,1.8l0.1,1.2l-1.8,3.3l-0.9,0.5l0-1.9l-1.4,1l-0.2-1.5l1-1.4l0.1-1.4l1.6,0.2
			l-0.3-1.7L215.3,188.2z M212.8,198l-0.6,0.8l-1.2,0l0.4,1.4l-2,2.2l-1.4,0.6l-0.5,1.7l-1.1,0.2l1-2.3l-0.3-1.4l0.9-1l0.3-2.3
			l0.8-0.5l0.5-2.7l1.1-1.9l0.7-0.6l-0.3-1.2l2.1,1.2l-1,0.6l0.5,1.2l0.5,3.2L212.8,198z M229.9,179.6l2.3,2.1l-0.4,1.7l-0.8,0.4
			l-1.6-2.1l-1.1-0.7l0.4-1L229.9,179.6z M243.4,171l-0.4,0.5l-2.6,0.2l-1.5-1.2l-1.2-1.9l1-1.1l4.3,0.6l1.4,0.5l0.1,1.3L243.4,171z
			 M257.8,136.8l0.4-2.6l1.2-0.7l0.5-0.8l1.8-1.2l1.3,1.3l0,1.1l-0.8,0.9l-0.1,3.3l-0.3,1.1l-1.2,1.2l-1.4,2.2l-0.4,1.6l-1.2,2
			l-2.4,1.5L254,148l-0.4,2.8l-1.4,2.6L251,152l0.4-1l-0.5-2.6l2.1-5.1l0.6-1.9l1.1-1l1.3-0.3l1.1-1.2l0-1.4L257.8,136.8z
			 M241.1,161.6l-0.7,1.5l-1.7-0.3l-0.5,2.5l-0.5,0.8l-2.1,1.1l-0.9-1.5l-0.2-1.3l-0.7-0.3l0.7-2.7l0.8-0.6l-0.9-1.1l0.2-1.2l1-0.3
			l0.6-1.1l1.1-0.1l0.1-1.1l1.4-0.3l0.1,2.2l-0.3,1.1l0.9,0.5l0.6-1.3l2.8-1l0.1-1.3l-0.5-1.2l1.1-0.7l2.5,0.4l-1.2-1.4l0.2-1.2
			l-0.9-1.3l0.2-2.4l1.1-1.5l1.5,0.2l-0.1,2.9l2.3,2.5l-0.1,1.7l1.8,1l-0.3,2.1l-1.1,1.8l1.9,1.3l0.3,2.1l-0.8,1.2l-1.9,1.7l-2,1
			l-1.8,1.8l-1.3-0.4l-1.9,0.1l-0.6-2.1l0.5-1.1l1.6-0.7l2.1-0.5l-0.3-0.6l1.2-2.1l0.1-1.2l-1.3-0.1l-0.5,2.4l-1.3-0.2l-0.6,1.6
			l-2.1,0.3L241.1,161.6z M242.4,151.3l0.9-0.2l0.6,1.8l-0.6,0.8l-1.3,0.1l-1-0.6l0.5-1.4L242.4,151.3z M267.1,190.8l1.2-1l0.9,0.9
			l-0.1,1.7l-2.2-0.8L267.1,190.8z M260.5,187.1l-0.3,1.8l-1.5-0.8l0.8-1L260.5,187.1z M256.2,195.6l-1.2-1.2l2-0.8l4.6,0.1l1,1.4
			l-1.2,0.7l-1.7-0.5l-1.1-1.1l-1,1.5L256.2,195.6z M250.9,196.9L249,197l-0.4-1.4l0.7-1.3l0.7-0.3L250.9,196.9z M247.7,196.8
			l0.4,0.7l1.9,0.3l0.3,1l-1.3,0.9l-1.4-0.4l-2.2,0.4l-0.4-1.7l0.6-1.2L247.7,196.8z M242.2,185.3L242,186l-1.3,0.7l-0.1-1.5
			L242.2,185.3z M242,182.4l0.8-1.1l1.1-0.5l0.6,0.7l-0.7,2.2l-0.8,1l-1.3-0.4L242,182.4z M237.3,177.6l-0.4-2.1l1.7-0.7l1.7-0.2
			l1.6,0.5l1.2-0.9h1.2l1.4-0.8l2.3,0.1l-2.2,4.2l-0.9,0.3l-0.5,1.3l-3,3.2l-1.1,0.9l-0.7-0.9l-1,1.8l-1.5,0.4l-0.8,1.2l-3.8,1.7
			l-1.3,0l0.3-1.3l-0.2-1.4l1.2-0.6l-0.2-0.7l0.7-1.4l-0.1-1.5l0.9-1l0.9,0.9l1.6-0.4l-1.1-1l-0.5-2l1.7-0.7L237.3,177.6z
			 M225.9,240.3l0.1,0.9l-1,0.5l-0.6-1.4L225.9,240.3z M227.6,239.1l-1.8,0.2l0.1-1.1L227.6,239.1z M232.7,236.6l0.4-1.3l0.8-0.8
			l0.3,2.2l-1.4,2.5l0.6,1.9l-0.2,2.1l-1.4-0.3l-0.3-2l-0.8-0.4l-1.4-1.6l0.6-0.5l0.1-1.8l1.5,0.8l1.1,0.1L232.7,236.6z
			 M239.9,232.8l-2.8,1.4l-1.4,0.9l-0.4-1.3l2.6-1.4L239.9,232.8z M236,223.2l-0.3,2l-1.3,0.2l-1-0.4l0.6-1.2l1.4-1.1L236,223.2z
			 M229,230.7l-1.8,1.2l0-1l0.9-0.6L229,230.7z M206.3,282.3l-0.4-1.5l-0.7-1l1.5-1.5l1.5,0.1l0.3,2.3l-1.4,1.8L206.3,282.3z
			 M206.7,267.3l-0.1-1.3l1.3-0.6l0.4,1.9L206.7,267.3z M203,265l0.4-1.3l1,0.5l-0.3,1.7L203,265z M211.2,263.8l-1.1-0.5l0.5-1.5
			l0.8-0.2L211.2,263.8z M211.2,274.2l-0.6-1.4l0.9-1.3l1.1,0.6l-0.1,1.5L211.2,274.2z M212.1,278.8l1.8,0.2l-3.4,2.5l-0.9-0.7
			l0.6-1.3L212.1,278.8z M206,291.9l3-1.1l0.3,1.6L206,294l-0.9,0.1l-1.9,1.7l-1.3,1.5l-2.4,0.5l-0.9-0.5l0.7-1.1l0.8,0.1l0-1.5
			l0.9-1.3l1.9-1.7l1.1,0.2l0.5,0.8L206,291.9z M206.4,285.7l-1.6-0.6l-0.3-1.4l1.4,0L206.4,285.7z M210,284l-1.7,0.9l-0.2-1.5
			l1.8-1L210,284z M217.4,254.9l1.9,0.2l-0.1,0.6l-2.2,0.8l-1.9-0.4L217.4,254.9z M218.4,251.9l1.6-0.2l0.8,0.8l-4,1l0.4-1.2
			L218.4,251.9z M197,291.8l1-1.2l0.7-1.7l-0.3-0.9l1.9-0.6l0.1-0.7l1.5-2l-1.3-0.3l-0.4-1l1.7-0.4l0.6-1.2l0.8,1.8l-0.4,2.7
			l0.7-0.1l0.4,1.5l-1.7,1.5L200,291L197,291.8z M201.7,297.7l-1.2,1.7l-0.6-0.7L201.7,297.7z M189.4,306.6l1.6,0.1l0.6,2.4
			l-2.3,3.1l-0.5,0.2l-1.1-1.3l-1.7-0.1l0.8-1.3l0.6-2.1l0.9-1L189.4,306.6z M199.4,307.2l-1.2,2.1l-1.1-0.4l1-1.3L199.4,307.2z
			 M200.8,303.3l-0.5,0.7l-1.2-0.7l1.8-1.4L200.8,303.3z M194.6,317.9l-0.6,0.8L193,322l-1-0.6l-0.2-0.9l1.3-1.2l1-1.7L194.6,317.9z
			 M191.8,330.8l-1.5-0.2l1.1-1.4L191.8,330.8z M190.4,337.3l-0.5,0l-0.8,0.3l0.5-4l1.7-0.9l0.3,0.8l-0.7,2.4l1.1-0.4l1.3-2.2
			l-0.2-1.4l1.9-1.4l1.3,1l0.7,1.8l-1.3,2.1l2-0.1l-0.6,1.3l-1.3,1l-2.2,0.5l-0.7-0.8L190.4,337.3z M194.6,340.8l-1-1l-1,1l-0.7-0.7
			l0-2.4l2.4,0.9l0.6,1.3L194.6,340.8z M261.5,158.6l-2,2.3l-1.4,0l0.1,1.7l-0.7,1.6l-1-0.2l-0.8,1.2l0.4,1.7l-1,1.2l1.4,3.7
			l1.4-0.4l1.2-2.1l1.1,0l-0.1-1.2l1.1-2.7l1.3,2.1l-0.5,0.6l1.1,1.2l1.1-0.5l-0.5,3.2l-1.1,1.2l-0.1,1.8l-2.3,1.4l0.4-3.9l-0.5,0.2
			l-0.5,2.6l-1.7,0.2l0.3,0.9l-1,2.4l-0.8,0.2l-0.2,1.2L255,180l-1-0.9l-3.4-1.4l1.5-2l1.5-1.5l0.8-1.9l1-0.8l-0.5-0.9l-2.1,3.5
			l-3.4,3.5l-1.2,2.6l-1,0.6l-2.1,0.2l-0.4-0.6l1.1-1.3l1.1-3l2.3-3.8l-0.8-1.1l0.7-1.4l-1.5,0l0.4-2l4.1-1.7l1-1.9l-1.3-2.9
			l0.4-2.3l-0.3-3l1.8-0.6l0-2.8l0.8-0.2l-0.1-1.5l0.4-1.1l1.3-1.1l1.2,0.5l1.1-0.8l1,0.2l0.4,2.6l0.6,0.5l-0.7,2.9l-0.2,2.2
			l1.8-0.2L261.5,158.6z M272.3,172.4l-0.3-1.7l2.8-1.2l2.5-3.2l5.8,0.3l2.5-0.4l3.5-2l3.5-0.3l4.8-0.9l2.1,3.3l0.1,6.3l1.8,9.8
			l-3.4,11.2l-4.5-2.9l-7.2-3.3l-1.5,3.4l-3.8,3.5l-3.6,3.6l-2.4,13.1l-0.9,2.5l-1.4,3l-4.5,1l-1.1,4.3l5,8l1.5,2.7l0.2,7.6
			l-3.4,3.2l-2.7,3.5l-0.7,1.9l-6.3,13.8l-3.1,3.6l-1.4,2.1l1.2,4.4l1.3,5.1l-8.3,6.5l-10,1.4l1.4,8.5l0.3,2.7l1,4.3l-1.5,5.4
			l-0.5,8.6l0.5,10.1l-2.4,3l-0.9,6.3l-3.3-0.9l-2,0.9l-1-0.3l-1.6,0.6l-2,0.1l-4.2,0.7l-2-0.5l-2.4,0.9l-2.2-0.1l-3.1-0.6l-1.4,0.3
			l-0.6,1.8l-1.2,0.2l-0.6,1.7l-1.2,0.8l0.8,0.8l-0.8,1.2l-2.7,0l-0.1,1.7l-1.1-0.6l-1.8,0.6l-1.4-2.4l-1.2,0.6l-2.3-0.6l-2.3,1.5
			l-1.8-0.9l-0.2-0.5l0.7-0.5l0-1.2l-0.6-1.3l2.5-1l0.4-0.6l2.1-1l2.2-1.5l1.1-0.3l1.3-1.1l1.2-1.6l1.6-1.5l1.3-2.3l2.2-2.2
			l-0.5-0.7l-2.1,2.6l-1.6,2.5l-5,4.4l-1.7-0.2l-1.3-0.9l0.4-0.9l1.1-0.7l0.4-1.4l-0.5-0.5l0-1.8l-1.2,0.1l-0.6-1l1.5-1.6l0.4-2.1
			l-1.7,1.9l-2.3,0.3l0.9,1.4l-1.5,2.5l-1.2,0.4l-0.7-0.4l0-1.2l0.6-0.9l-0.2-3.2l1.3-2.8l1.2-1.2l2-1.4l-0.5-1l-1.4,0.8l-1.1,0
			l0.9-1.6l0.4-3.7l1.2-0.1l0,1.7l1.1,1l2.2,2.9l1,1l1.8-0.7l-1.9-3.1l-0.7,0.6l-2-1.5l-1-4.4l1.8-3.4l2.7-3.2l0.6-1.8l-0.2-1
			l0.6-1.3l0.3-2.2l1-1.6l2.9-2.1l1.2,0.8l0.7,1.4l1.8,0.2l0.5,1.3l0.8,0.6l1.3-1.1l-2.2-1.8l-1.2,0l-1.8-1.7l1.1-1.2l-0.1-1.9
			l-2.8-0.2l0.5-0.8l-3.1,0.4l-0.1-0.4l3-2.9l3-1.2l1.6-0.4l3.4-1.5l0-0.7l1.4-1.1l1.1,0.4l3.9-0.8l0.6,1.6l-0.2,1.2l0.9,0.7l2-0.5
			l1,0.8l0.8-0.4l-1.8-1.1l-1.4,0.6l-0.9-2.2l1.5-1l1-0.1l1.6,0.9l2.4-1.3l0.1-1.1l2.7-1.7l-0.2-1.2l-1.9,1.3l-1.6,0.2l-1.2,1.4
			l-1.3,0.1l-3.7,1.8l-1.2-1.5l-1.8,1.3l-1.5,0.4l-1.3-0.6l-1.4,1.5l-1.6,1.2l-2.4,1.1l-0.2-1.4l1.4-1.6l1.6-1.1l0.3-1l3.5-1.3
			l1.3,0.1l0.1-1.7l-1.1,0l-3.2,1.4l-2,0.3l-2.6-1.3l0.1-1.4l1.5-0.8l1.4-1.2l-0.3-1.4l-1-1.1l0.1-2.1l-1,0.2l-0.4-1.8l1.3-0.9
			l2.3,1.5l0.1,1.2l1.1,0.3l1.1-2.1l2-0.8l2.1,0.1l2.3,1.4l-0.1-0.9l-2.1-1l-4.1-0.1l-0.9,0.6l-1.3-0.4l0.1-2.6l0.6-0.6l-1.8-1.6
			l1.1-0.9l0.7,0.4l2.1-0.1l3,0.6l-0.6-1l-2-0.6l-1.9-0.2l-1.2-1.5l2.9-0.4l4.1,1.9l2.3-0.3l0.2-1.5l-1.6,0.9l-1.2,0.1l-0.3-1.7
			l-1.3-2.1l0.1-0.7l3.8-0.5l2.3,0.8l3.4-0.2l-0.4-0.5l-3,0l-2.2-1.5l-0.2-1.5l-0.9-0.4l-0.5-1.2l-1.8,0.3l0.2-1.4l-0.8-1.1l4.2,0.4
			l1.4-0.7l0.2-1.2l1.1-0.8l2.3-0.4l-0.6,1.2l0.9,1l0.9-1.4l-0.9-1.9l0.4-1.7l1.2,0.5l0.5,2.1l1.7,1l1-3.1l1.5-1.1l-1-0.7l0.1-1.7
			l0.5-1l-0.1-1.2l2.4-0.5l2,0.1l-0.6-1.5l1.5-0.6l1.5,0.4l2.2-1.4l1.5,0.4l1.3-1l0.9,0.6l1.3,0l1.3,1.2l1.1-0.6l1.5,1.3l1.7,0.1
			l0.6,0.9l-0.6,1.9l0.1,1.2l1.4,0.4l-0.4-1.8l0.6-2.6l-0.9-1.2l-1.6-0.6l1.3-1.1l-1.4-0.8l-2.1-0.1l-1.1,0.8l-1.8-1.4l1.5-0.3
			l1.8-1.4l-0.1-1.3l-1.6,0.8l-2.4,0.4l-0.9,1.1l-1.7,0l-1,1.5l-2.1,1.4l-0.3-3.1l-2,1.3l-5.2,1l3-3.7l2.5-2.4l0.1-2.4l2.8-0.2
			l2.9,0.3l-0.2-0.8l-2.2-0.6l-1.1,0.5l-1.2-0.1l-0.9-1.2l2.1-2.2l2.8-2.5l2.2-0.9l0.7,0.3l1.2,1.4l0.1,1.2l1.5,1.2l3,0.2l1.4,0.8
			l0.1,1.7l1.3,1.7l0.2,1.8l1.2-0.2l-0.4-1.3l-1.6-2.8l0.2-1.3l0.8-1.5l1.7-1.8l-0.3-0.5l-2.6,2.8l-0.9-0.7l-1.6-0.4l-1.9,0
			l-1.3-1.1l0.6-2.1l0.9-0.8l-0.3-0.8l-1.7,0.7l-0.6-0.3l1.2-2.6l0.5-1.6l0.9-1l2.8,1.9l0.1-1l-1.3-1.4l2.3-1.2l1.5,0.3l1.9,1.4
			l0.3-0.9l-1.3-1.1l-1.7-0.4l-2.5-1.2l-2.3,1l-1.2,1.5l-1.2,2.1l-1.2,0.5l-0.8,1l-1.9,1.2l-2.6,0.4l-1.3-0.9l2.5-1.4l-1.4-0.5
			l-0.2-1.1l1.9,0l1.5-0.8l0.3-1.3l-3.1,0.5l-0.5-1.2l-0.8-0.3l1-2.2l1.4-1.9l1.7-1l1.1-0.2l1.5,0.7l2.6,0.1l2.5-1.9l5.4-2.4
			l1.7,0.6l0.7,1.9l1.6-3.1l-0.6-2.7l-2.1-0.4l-1.1,0.5l-0.7-0.6l-1.9,0l-0.2-1.1L255,192l-2.2,1.3l0.9,1.1l-2.5,0l-0.6-2l1.1-2.1
			l0.9-0.7l0.2-1.2l1.1-0.5l0.6,1l2.1-0.6l-0.2-2.3l1.7,0.8l0.4,3.5l1.4,0l0.9-0.9l0.8-1.6l-1.1-2.4l1.4,0.1l0.6-0.7l-0.6-2.3
			l0.6-0.4l1.4,0.4l0.3,1.3l0.8,0.9l-1.5,1.1l2.3,1.1l-0.5,1.9l0.3,1.7l-0.4,1.9l1.3,0.9l1.6,3.1l-0.5,2.7l1.3,0.5l1,1.3l2.4,1.2
			l0.4-1l-4.2-1.9l0.7-2.8l0-1.3l-1.8-1.2l1.4-0.8l1.2,2.6l2,2.6l0.2-1.5l-1-0.2l-1.4-2.3l-0.3-1.2l1.3,0l1.3,1.1l0.9-1l-2.9-0.5
			l0-2.5l-1.6-1.2l0.9-2.3l1.4-0.2l0.9-1.1l-0.6-1.7l-2.2,0.2l-0.9,0.7l-1.3,0l-0.3-1.1l1.5-0.1l1-0.7l-2.1-1.5l-1.2-0.1l0.4-1.8
			l1.7,0.4l1.8-0.3l3.4,2l1.4,2l-0.2,1.1l1.3,0.6l-1.3-4.4l-3-0.8l-2.7-1.2l-0.5-2.1l2.3-0.9l1.3-1.1l2.6-0.7l0.5,0.8l1.1-0.9l1.6,1
			l1.5,0.4l-0.3,2.3l2.9-1.4l-0.1-0.9l4.6-1.3l0.8-1.2l1.3,0.9l2.8,1.3l0.4-0.4l-3.2-1.3l-0.6-1.6l2.6-0.6l1.5,0.2l2.4,1.1l-2.4-2.4
			l-2.9,0.8l0-0.7l1-1.1l0.5-1.8l-2.6,0.9l-2,2.5l-0.8,0.6l-2.8,0.8l-1.3-0.2l1.5-1.5l-0.7-0.8l-1.2-0.4l-1.2,0.6l-1,1.7l-1.4,0.2
			l-2.1,0.8L272.3,172.4z"/>
		<path class="st0" d="M52.9,659.2l0.5,0.9l-0.2,1.1l-2.4-1.2l-0.1-1.3L52.9,659.2z M109.6,652.1l2.4-1.7l-0.9,2.3l-1.7,1.2l-1-1.3
			L109.6,652.1z M48.6,656.4l3.4-1.5l1.4-2.1l-0.2-2.1l1-1.2l-0.7-3.2l0.8-2.2l-0.6-1.7l0-1.2l-1.2-0.7l-0.9,0.8l-0.6-1.5l0.4-1.5
			l0.7,0.2l2.4-0.6l0.6-0.8l-1.1-1.9l0.2-1l-1.4-0.4l1.1-2.7l1.6-2.5l-1-0.4l-0.1-1.2l1.9-1.3l1-2.1l1.1-0.7l2.2-2.2l3.1-2.7
			l-0.3-1.8l1-0.7l-0.4-1l-1.6-0.5l0.3-2.8l-0.3-0.9l0.3-2.3l1.8-3.8l-0.1-1.5l1.9-0.6l1.8-1.6l-0.9-2.1l0.6-3.5l1.3,0.6l1.1-1.5
			l0.4-1.5l2.9-0.8l4.2,2.3l1.2-1l1.5,2.4l1,1.1l-1,1.2l0.4,1.8l1.1,1.2l0.9,2l-1.1,0.8l-1.2,2.1l1.3,1.2l0.3,2.2l1.9,0.4l0.5,3.2
			l0.7,1.6l-0.9,3.1l0.2,1l1.5,1.4l1.4,2.8l0.2,1l1.4,2.6l1,1.3l1.7,0.7l1.7-0.1l-0.5-1l1.9-0.2l2.9,2.4l0.3,0.8l2.2,0.6l1.9,1.2
			l0.7-1l1.6-0.8l1.1,0.7l1,2.2l1.7,1l0.5,0.9l1.1-0.5l-0.1-1.2l1.3-2.1l-1.7-1.3l0.1-0.5l1.5-0.9l0.3-0.9l2.6,0.2l1.4-0.3l0.9,3
			l0.9,1.1l2.1,1.4l0.5,1.1l0.2,2.8l3.3,1l0.9,0.8l-0.4,0.6l-1.6,0.6l-1.1,0.8l-0.4,1.7l-0.7,1l-1-0.1l-1.2,1.1l-3.9,2.4l-0.5,1.8
			l-1.8,1.1l-0.2,1.2l-4.3,2.6l0.1,0.9l-0.6,1.3l0.3,0.7l-2.2,2.1l-0.6-0.3l-1.7,1.9l-0.9,1.8l-1.3-0.1l-2.4,0.9l-2.3,2l-0.9,2.8
			l-1.4,0.7l-0.2-1.8l-1.5,2.4l-1.9-1l-0.5-1.1l-1.2-0.1l-0.5,2.7l-0.6,0.5l-1.9,0l-1.4-0.5l-2.2,0.5l-0.7,0.7l-1.4-0.2l0.5,1.4
			l-2.7,0.5l-1.9-0.1l-1.7-0.7l-0.7,0.4l-1.3-1.1l-1.8-0.2l-0.8-0.8l-1.2-0.3l-1.5,0.1l-0.9,1.7l-0.9,0.8l-1.1,0l0.2-1.7l-1.4-0.4
			l-0.1-1.3l-1-1.3l-1.6-0.1l-1.3-0.9l0,1.6l-4.9-0.7l-1.7-2.5l1.2-0.5L53,662l3.1-1.5l-1.8-1.4l-3.5-0.7l-3.5-1.6L48.6,656.4z"/>
		<path class="st0" d="M175.9,365.8l-1.9,0.9l0.3-1.6l1.3-0.1L175.9,365.8z M172.4,357.2l1.2,1.7l1.4,0.3l1,1.3l-0.3,2l0.8,0.3
			l1.3-0.6l1.7,1.2l-1.3,1.9l-1.7,0.3l-1.2-1.7l-1.2,0.5l-1.2-1.9l-0.1-1l-0.7-1.1l-1.3-0.6l0-1.1l1-1.4L172.4,357.2z M146.6,385.4
			l1,2l-2.4-1.1L146.6,385.4z M149.6,385.5l-2,0.3l-0.4-0.9l1.2-1.1L149.6,385.5z M148.3,391.3l1.6-0.9l0.4,1L148.3,391.3z
			 M174.3,397.9l-2.1,0.9l-2.2,2l-0.8-0.3l1.2-2.5l1.2,0.1l1.7-0.8L174.3,397.9z M129.3,403.6l0.9,1l-2,1.1l-1.4-0.3l0.8-2
			L129.3,403.6z M125.5,411l-2.7,0.9l-0.8-0.4l-3.7,0.7l-2.4,1.7l-1.7-0.2l-1.9-0.6l-1-0.9l0.1-2.1l2.3-2.1l2-0.6l1.2,0.5l2.1-0.8
			l-0.8-0.9l-1.3-0.5l1.3-0.9l8.3-1.4l-0.6,1.4l0.3,1.4l2.3-0.1l1.9,1.4l0.2,0.8l-1.8,1.5L125.5,411z M122.6,396.4l0.9,2.5l-0.4,2.3
			l-1.2,0.5l-1.6-0.1l-4.2,0.9l-2.4-0.9l-0.6,0.6l-1.2,0.1l-0.6-1l1.5-0.4l4.6-0.7l1.5-1.3l2.9-1.5L122.6,396.4z M117.4,407.4
			l-1.4-0.2l0.5-1l1.2,0.1L117.4,407.4z M177.2,358.1l-0.5,1.9l-1-1.2l-0.1-1l-1.5,0l-0.4-1.5l1.4-0.6l2.5,0.2L177.2,358.1z
			 M167.1,342.8l-0.6-1.2l1.8-1.2L167.1,342.8z M165.1,346.9l0.3-2.2l1.2-0.8l1.9-0.6l4.3-2.2l-1.4,2.4l-1.9,1.1l-1.6,1.8l-1.7,1
			L165.1,346.9z M167.8,346.8l1.4-1.6l2.9-1.5l1.1-1.5l2,1l-1.6,0.7l-1.4,1.7l-1.1-0.2l-2,1.6L167.8,346.8z M172.1,346.6l0.7-1.8
			l0.8-0.6l1.6-0.3l0.5,1.3l1,0.1l-1.2,1.9l-2,1.7l-1.8-1.6L172.1,346.6z M178,360l-0.1-2.1l2.1,2.9l0,0.9l-0.8,0.9l-1.9-0.9
			L178,360z M178.1,343.2l-1.1,1.5l-0.5-0.7L178.1,343.2z M184.3,334.8l1,0.8l-0.1,1.1l-1.6,0.8l-0.8,1l-1.2,0.1l-0.6-0.7l1.2-2.7
			L184.3,334.8z M189.6,333.6l-0.5,4l-2.7,2.3l-0.5-1.3l2.1-3.4L189.6,333.6z M194.5,341.4l0.2,0.5l1.8,0.9l2.3-1.5l2.3,0.6l1.2-0.6
			l1.4,2.4l1.8-0.6l1.1,0.6l0.1-1.7l2.7,0l0.8-1.2l-0.8-0.8l1.2-0.8l0.6-1.7l1.2-0.2l0.6-1.8l1.4-0.3l3.1,0.6l2.2,0.1l2.4-0.9l2,0.5
			l4.2-0.7l2-0.1l1.6-0.6l1,0.3l2-0.9l3.3,0.9l-3.7,6.7l-2.2,4.3l-6.1,12.2l-1,3l5,3.4l4.1,1.3l0.6,0.7l1.3,12.8l-3.7,9l-5.3-1.7
			l-3.8-0.9l-6.9-1.3l-6,1.8L205,390l-4.2,7.5l-3.2,5l-0.6,2.1l-3.2,3.9l1.3,5.5l-2.8,5.8l-2.4,4.3l5.2,12.9l-3.1,4.7l1.3,7.4
			l-1.8,6.5l4.4,13.5l-1,0l-1.8,1l-1.6-1.8l-1.6-0.6l-4.9-1.1l-1,1.6l-0.7-0.2l-0.4-1.4l-2.4,0.5l-0.8-0.9l-0.9-2.3l-1.4-2.1
			l-1.3-0.7l-0.7-1l-1.9-0.9l-0.4-1.8l-1.5-2.1l-0.1-1.6l-0.8-0.7l-1.7-0.3l-2.5-1.5l-1.7,0.1l-1.3,0.6l-1.2,1.6l-0.6-1l-1.4-0.5
			l-1.3,0.6l-5.9-1.7l-3.2-0.2l-1.3,1.5l-1.1,3l-1.1,0.7l-0.5,1.3l0.6,2.7l1.2,3.7l-3.3,1.4l-0.5,2l-0.8,0.5l-1.3-0.9l-0.1,2.3
			l-0.9,1.2l-1.9,0.2l-2.6,1.2l-2.5-1.8l-2.8-1.4l-5.8-2.5l-0.8-0.5l1.8-1.2l1-1.3l0.1-1.5l1.6-4.6l-0.5-0.9l-1.5,0l-0.9-1.6l-2-2.9
			l-0.7,0l-1.2-2.4l1.5-1.4l1.6-0.1l0.5-0.6l1.5,0.2l4.9-1.6l-0.9-0.8l0.3-2.5l-1-0.8l0.5-1.3l-0.8-1l-2,0.3l-0.9-0.5l-0.5-2.1
			l1-1.9l-1-0.9l-0.3-3l-2.4,0.7l-0.3-1l0.8-0.5l-0.5-1.5l-2.4,0.8l-1.1-0.7l-2.7,2.4l-3.6,0.6l-0.9-1.1l-3.2,1.9l-0.9-0.2l-0.8,0.7
			l-0.8-0.5l0.4-1.8l-1.1-1.2l-0.3-1.7l2.6-1l2,0.9l1.4-0.4l1.8,0.7l1-0.3l-0.2-1.1l2.6-0.9l1.7,0l2-0.8l0.7-1.3l-0.9-1.7l1.1-1.3
			l0-1.3l0.9-1.3l-0.6-0.8l-1.6-0.4l0.2-1.5l-1-1.2l1.4-0.2l1.3,0.4l1.2-0.2l0.7,1.1l1.4-1.9l1.4,0.3l1.2,2.3l-0.6,1.7l0.8,1.8
			l0.8-0.9l1.4-0.3l-1.8-3.2l1.4-1.1l1,0.2l2.5-1.2l-1-0.4l-1.4,0.1l-0.9,0.8l-1.5-0.7l0-1.1l1.1-1.6l2.3-0.7l0.9-0.9l1.9,0l1.8-2.1
			l1.6-0.9l1,0l1.6-1l0.7,2.6l1.4,2.5l-0.6,1.2l1,0.7l-0.1,0.8l2.8,2.1l-0.9,3.3l-0.8,1.2l-2,1.2l1,0.4l2.2-1.6l2,0.2l2.3,1.8
			l1.1-1.3l-2.3-0.8l-1-1.6l0.2-0.9l1.6-1l0.9-1.1l2.6-0.4l1.1,1.2l1.3-0.2l0.7-0.8l1.2,1.2l1.3,0.2l0.9-0.7l3.6,0.7l2.9-0.8
			l-0.6-1.4l-1.5,0.1l-1.1-1.5l0.4-1.7l2.6-0.3l-0.7-0.9l0.8-2.3l-2,1.1l-0.8,0.8l-2.2,0.5l1.1-2.9l0.9-0.6l1.9-0.3l0.3-0.9l2.1-2.2
			l1.9,0.4l1.4-0.6l0.8,0.2l1.3-0.7l-0.1-1.7l1.7-0.4l0.9,0.4l1.3-1.2l1.3-0.6l-0.2-1.8l-2.6-0.4l1.3-2l-0.6-0.6l0.7-2.5l-0.9,0.4
			l-0.5,1.1l0.2,1l-0.6,1.1l-2.3,0.7l-1.1,0.8l-1,0L171,394l2.9-1.6l1-1.6l3.1-1.3l1.7-1.4l-2.3-0.5l-0.2-1l-1.7,0.1l-1.3,0.6
			l-1.2,1.4l-1.1,0.4l-2,1.4l-2,2.4l-1.5,1l-3.5,1.7l2.6-0.3l3.3-2.5l0.2,0.6l1.5,0.8l0.4,2l-1.4,0.9l0.2,1.1l-1.5,2.7l-3.1,1.4
			l-1.8,0.6l-1.8,0.9l-0.5,1.2l-1,1l-5.6,3.3l-1.5-0.1l-2.4,2.6l-1.6,0.4l-2.5-0.6l-0.7-3.3l-0.9-0.8l-0.9-2.1l0.4-0.9l0.3-2.1
			l2.7-0.1l1.7-1.6l-0.1-1.5l-2.1,0.3l-1.9,1.6l-2.1,0.6l-1.6,0l-0.3,1.3l-1.5,0l-0.3-1.7l2.1-1.4l-2.2-1.8l1.1-1.2l1-0.4l0.5-1.7
			l1.7-1l0.8,1.2l1.5-0.4l-0.7-1.1l2-1.1l0.2,1.2l2.1-1.6l3.3-1.4l-0.2-0.7l-1.4,0.7l-0.1-1.1l-2-0.7l0.1-2.1l1.2-1.7l-0.8-1.3
			l1.2-1.1l1.4,1.4l1.1-1.1l-1.3-0.5l-0.2-0.9l2.2-2.1l-0.5-1.3l1.8-0.2l-0.1-1.4l1.1-0.6l1-1.8l1.8-1l0-2.2l1.4-0.2l2.3-1.1l-1.2-1
			l-1.3,0.3l-1-0.6l1.8-1.4l0.9,0.6l0.5-1.5l1.2,0.6l1.1-1.6l1,1l0.7-2.7l1.7,0.7l2.1-1.5l-0.8-1.9l0.7-1.7l1.8,1.5l0.5,2.1l2.2,3.1
			l-0.7,1.2l2.8-0.9l1,0.2l-0.7,3.4l1.6-0.8l-0.7-0.6l1.1-1.2l0.8,0.6l1.5-0.7l-0.8-1l-1.1-0.4l0.8-2l1.6,0l-0.3-2l1.1,0.2l3.1-1.2
			l-0.7-0.6l-1.7,1.1l-1.6,0.2l-1.9-1.9l-0.8-1.3l-0.4-1.8l1.2-1l-0.7-0.5l2.4-1.3l0.6-1.2l1.1,0.6l0.6-1.2l3.4-0.3l1.2-1.1
			l-2.2-0.6l-0.9,0.2l-0.9-1.6l0.7-1.6l4.5-2.2l0.9-0.8l1.4,0.3l1.1-1.3l-2.4,0.2l-0.9,1l-4.5,2.5l-1,1.8l-1.9,1.2l-1.9,0.2l0.2,0.8
			l-1.6,1.9l-2.9,1.1l-1.2-0.8l3.1-0.8l1.5-1.9l-3.5-0.3l0.8-2.2l-0.1-0.6l1.6-1.7l3.2-2.3l2.9-0.9l1.5,0.7l-0.1-1.5l-2.6,0.3l1-1.3
			l1.5-0.6l1.1,1.1l3.6-3.6l0.5,0l1.5,0.3l0,2.4l0.7,0.7l1-1l1,1L194.5,341.4z"/>
		<polygon class="st0" points="124.8,465.2 125.5,465.7 131.3,468.2 134.1,469.6 136.5,471.4 139.2,470.2 141.1,470 142,468.8 
			142.1,466.5 143.4,467.4 144.1,466.9 144.6,464.9 147.9,463.6 146.7,459.9 146.1,457.2 146.6,455.9 147.7,455.2 148.8,452.2 
			150.1,450.7 153.4,450.9 159.2,452.6 160.5,452 161.9,452.5 162.4,453.5 163.6,452 165,451.3 166.7,451.2 169.2,452.7 170.9,453 
			171.7,453.6 171.8,455.3 173.3,457.4 173.7,459.2 175.6,460.1 176.3,461.1 177.5,461.8 178.9,463.9 179.8,466.1 180.5,467.1 
			182.9,466.6 183.2,468 183.9,468.2 185,466.6 189.9,467.7 191.5,468.3 193.1,470.1 194.9,469.1 195.9,469.1 196.9,472.2 
			194.3,490.8 193.2,498.3 196.3,502.3 197.8,503.5 199.6,506 203,505.7 210,515.9 209.2,520.6 208.2,523.4 206.3,526 205.7,530 
			204.2,530.6 200.3,530.5 195.7,531.9 195.1,532.4 197.6,538.3 197.7,540.1 199.1,545.8 201.8,550.2 201.9,552.2 203.5,554.6 
			204.1,556.4 204.1,561.5 202.7,564.2 201.6,565.5 201.7,567.5 202.6,571.8 201.6,576.3 200.4,579.1 199.2,580.2 197.8,582.6 
			195.2,584.4 193.8,586.2 192.7,586 190.9,586.4 189.3,585.7 186.8,587.1 186.8,587.8 185.7,588.7 184.8,584.9 185.3,584.3 
			184.6,583.1 185,581.5 185.6,581.1 185.3,578.5 184.5,578.5 184.3,576.7 181.4,575.1 179.2,572.2 179.7,571.1 179.7,569.6 
			180.2,568.1 178.3,566.7 177.2,565 176.2,564.6 175.9,563.2 174.1,558.8 173.1,558.4 171.8,556.9 171,556.6 171.2,553.7 
			169.8,551.8 168.7,553.4 168.3,556 167.7,555.8 164.9,557.2 164.5,557.9 162.1,557.7 160.3,556.7 158.8,556.9 159.4,559.7 
			161.7,560.1 163.7,561.7 163.6,562.5 164.4,564 162.7,565.6 160.2,565.5 159.2,564.8 156.8,565.2 154,564.8 152.1,565.4 
			150.8,564.9 151.4,562.3 150.1,562.7 148.4,561.4 146.9,561 146.1,555 144.7,553.3 144.1,550.9 143.5,549.7 141.8,549.4 
			140.4,549.5 141.3,551 138,553.2 138,555.3 138.3,558 137.6,558.1 134.8,556.6 133.4,555.3 133.2,553.8 130.1,554.1 128.8,553.2 
			128.7,551.6 129.2,550.7 128,549.7 127.4,547.4 126.7,546.7 127.1,544.4 126.2,542.8 124.5,542.3 123,540.4 121.6,539.9 
			117.8,537.5 117.2,535.8 115.4,535.5 112.7,534.2 111,532.8 110.8,531.4 108.6,529.5 107.1,529.3 105.4,527.9 104.2,525.7 
			102.8,526.5 100.4,524.6 99.2,522 98.6,519.6 99.1,517.8 100.9,516.4 101.8,515.3 102.6,515.3 103.6,514 101.5,512.1 101.5,509.4 
			104.4,509.4 105.6,508.3 104.9,506.6 104.4,504.4 103,503.7 101.1,504.7 97.3,502.9 97.1,500.6 96.4,498.6 97,494.9 95.5,493.7 
			93.5,493.1 88,494 88.2,492.4 86.2,487.5 86.4,485.9 85.9,483.9 86.3,481.8 86,480.5 85.3,480.3 85.3,478.9 86.5,478 87.1,476.6 
			89.3,476.2 90.2,477.6 92,477 90.9,475.2 92.7,474.4 94.6,472.4 96.7,472.3 97.4,473.3 100.1,473.2 103.8,467.9 105.6,466.1 
			107.2,465.4 109.8,464.8 111.4,464.9 115.1,464.7 118.8,464.6 120.9,464.9 121.5,466 123.8,465.8 		"/>
		<path class="st0" d="M165.8,624.3l1.1,0.4l-0.8,2.5l-1,0.5l-0.6-0.6l0.4-1.4l-0.4-1L165.8,624.3z M160.8,624.2l0.2-1.2l1.7,0.4
			l-1.1,1.6L160.8,624.2z M156.9,606l-0.4,1.7l-1-0.5l0.4-1.5L156.9,606z M150.1,602.7l-0.9-1.4l-0.2-2.1l0.2-1.1l-0.7-1.9l-1-0.3
			l-3.5,0l-0.7,1.3l-1.3,0.1l-0.9-0.8l-0.5,1.8l-1.2,0.6l-0.3,1l1.6,2.5l0.9,0.9l0.8,1.9l-0.9,0.4l-1.9-0.3l-0.6,0.6l-1.7-0.2
			l-0.8-0.6l-1.1,0.5l0,2.2l-2.9,0.1l-1.7-2.1l-0.8-1.8l-2,0.2l0-0.6l1.2-2l-1-1l-1-4.1l-0.3-2.1l-1.7-0.5l0.6-1.2l-0.2-1.9l0.5-1
			l-0.8-0.8l-3.4-1.8l-0.1-1.9l0.5-2.4l-2-2.1l-1.1-0.2l-1.5-2.5l-0.1-2.7l-0.7-1.6l-2.6-2.5l-2.5-1.8l-1.6,0.5l-2.2-0.4l-1.9,0.3
			l-2.4-0.7l-2.4,0.1l-1.8-0.7l-2.5,0l-1.2,0.9l-3.3,1.1l-2.7,1.5l-1.1-0.7l-2.8-0.7l-3.9,1.1l2.5-3.5l0.9-3.2l1.7-2.3l0.9-6.3
			l1.2-4.5l-1.3-0.9l-0.7-1.1l-0.3-1.8l0.5-1.7l-2-1.3l-2.5-0.3l4.4-3.7l1.6,0.7l1.1-1.3l-0.4-1.6l2.6-4.8l1.9-1.2l1.2,1.4l1.1-0.1
			l1.4,0.5l2.5-3.7l2,0.3l0.3-1.2l1.3-1.8l-1.5-1.1l0.9-0.9l1.4-0.8l1.2,2.2l1.7,1.4l1.6,0.2l2.2,1.9l0.2,1.5l1.6,1.4l2.8,1.3
			l1.7,0.3l0.6,1.7l3.8,2.5l1.3,0.5l1.5,1.8l1.7,0.5l0.9,1.6l-0.4,2.3l0.7,0.7l0.6,2.3l1.2,1l-0.6,0.9l0.1,1.6l1.3,0.9l3.1-0.3
			l0.2,1.5l1.4,1.3l2.8,1.5l0.7-0.1l-0.3-2.7l0-2.1l3.2-2.2l-0.9-1.5l1.4-0.1l1.7,0.3l0.6,1.2l0.6,2.3l1.4,1.7l0.8,6l1.6,0.4
			l1.7,1.3l1.3-0.3l-0.6,2.6l1.3,0.5l1.9-0.6l2.7,0.4l2.4-0.4l1,0.8l2.4,0.1l1.7-1.5l-0.7-1.5l0-0.9l-1.9-1.5l-2.3-0.4l-0.6-2.8
			l1.5-0.2l1.8,0.9l2.3,0.3l0.4-0.7l2.8-1.4l0.6,0.1l0.4-2.5l1.1-1.7l1.4,2l-0.2,2.8l0.8,0.3l1.3,1.5l1,0.5l1.7,4.4l0.3,1.4l1,0.4
			l1.1,1.8l1.9,1.4l-0.5,1.4l0,1.6l-0.6,1.1l2.2,2.9l2.9,1.6l0.2,1.8l0.9,0l0.3,2.6l-0.6,0.4l-0.4,1.6l0.7,1.2l-0.5,0.5l0.9,3.8
			l0.9,0.6l1.2,1.7l0.3,4.7l-1.2,0l-0.8,2.2l-1.9,0.2l-1.4,0.8l-0.8,1.8l1.6,6.3l0.5,3.5l0.9,2l0.3,4.9l-1.1,1.5l-0.2,3.6l-0.4,1
			l0.3,1.3l-1.6,2.6l-0.7,2.8l0.1,0.8l-1.4,2.2l-1,0.9l-3.4,0l0.1-3l0.3-1.9l-2.3-5.3l-1.3-0.7l-2.5,1.3l-1.2-2l-0.2-1.5l-1.5,1.4
			l-2.2-1l-0.6-1.8l-1,0.7l-0.5,1.8l-0.8-1l-0.2-1.7l-1.6,1.6l-0.4-2.5l-0.9-1.3l-0.8,0l0.3-2.6l1.2-1.3l-0.8-0.9l-1.9,0.8l-0.5-1
			l0.1-2.1l-0.4-0.7l0.2-1.8l0.8-1.9l0-1.8l-0.8-2.2l0.1-2.9l-0.7-2.8l-0.8-2.4l0-1.9l1.6-3.8l1.3,0.4l0.9,1.8l0.7-1.4l2.8,1
			l1.3-1.2l-0.5-1.6l0.2-2l0.8-1.5l-0.4-2l-1.2-0.1l-1.5-1.9l0.2-1.8l-0.8-0.2l-1.2-2.8l-1.4-0.4l-1.8,0l-0.8,0.8l0.1,2l-2.3,2.8
			l3.1,2.3l0.5,2.9l-1.2,0.9l-2,0.5l-0.9,2.7l0.6,0.9l-0.1,2.1l0.5,2.2l-0.1,0.9l2,1.6l0.3,4.4l-2.1,1.8l-1.8,0.7l-1.1-0.5l0.8-4.7
			l-0.1-2.2l-1.6-2.3l-1.6-0.5l-0.3-1.2l-1.3,0.4l0.8,1.5l2.5,1.6l0.8,2.5l-0.5,2.2L150.1,602.7z"/>
		<path class="st0" d="M113.1,418.6l0.9-0.4l0.4,1.2l-1.4,0.3L113.1,418.6z M111.6,426.3l-1.6-2.5l-0.7-2.6l1.4,0.4l3.1-1.1l0.6,2.3
			l1.3,0.7l0.6,2l-2.3,1L111.6,426.3z M116.3,415.8l1.9,0.5l0.8,1.5l0,0.9l-3.4,0.4l-1.3-0.4l1.1-2.6L116.3,415.8z M104,411.8
			l2.3-0.1l0.4-0.4l1.4,2l0,1.4l0.7,1.4l-0.9,1.4l-1.7,0.6l-2.7-0.1l-0.7-1.7l-2.4-0.2l-0.7-1l0.1-1.4l2.3-1.4L104,411.8z
			 M73.4,447.5l-0.6-1.2l0.9-0.6l-0.5-0.8l1-1l1.2,0.5l1.3,0l2-0.5l0.3,2l-2.6,1l-1.7,0.2L73.4,447.5z M72.2,447l0.2,0.7l-1.9,0.2
			l1.1-1.9L72.2,447z M68.5,444l-0.9-1.9l1.3,0l0.4,0.8L68.5,444z M78.7,439l1.5,0.1l-0.8,1.5l-0.8-0.2l0.1,2.2l-1.5-1.2l-1.6-0.5
			l0.3-1.9l1-0.4l0.8,1L78.7,439z M87.3,449.4l-1.5-0.1l-0.9-0.8l1-0.8l1.1,0.7L87.3,449.4z M109.9,426.2l-1.8,0.2l-0.6-2.4l1.3-1
			l0.3,1l1.4,1.6L109.9,426.2z M107.3,426.4l-1.7,0.4l-2.8-0.3l-0.6-2l2.1-0.7l0.6-0.9l1.7-0.5l0.9,2.9L107.3,426.4z M64.9,454.3
			l-1.5,0.7l-0.7-1.3l1.6,0L64.9,454.3z M51,467.3l-4,0.7l-1.4-2.1l1.2-3.2l1.7-0.1l1.9,0.9l2.2,0.1l-1.1,1.6l0.5,1.3L51,467.3z
			 M43.7,463.7l1,0.2l-0.7,1.3l-1-0.4L43.7,463.7z M62.6,445.8l1.4,2l-0.4,0.5l-1.9-2L62.6,445.8z M61.2,447.5l0.8,0.1l0.8,1
			l-0.4,0.9l-1.2-0.9L61.2,447.5L61.2,447.5z M60.3,450.4l0.3,0.9l-2.7,0.8l-0.2-0.8l1.4-0.9L60.3,450.4z M47,459.6l0.8,1l-1.7,0.3
			l0-1.4L47,459.6z M50.5,459.6l0.6,0.4l-0.9,1.9l-0.8-0.1L50.5,459.6z M55.2,464.4l-1.2,1.2l-0.9-2.6l0.4-0.9l-0.9-0.9l0-1.8
			l1.2-1.6l1.9-0.4l1.1,0.2l0.5,2.7l1.6,0.9l-4,2.8L55.2,464.4z M58.2,455.3l-1.7,0.3l0.1-1.1l1.7,0.2L58.2,455.3z M58.4,457.3
			l0-0.4l2.8,0.2l0.7-0.5l3,1.3l-1.4,1.2l-2.4,0.2l-1.6-0.5L58.4,457.3z M99.4,427l0.7-0.3l0.6,1.3l-1.8,0.2L99.4,427z M99.8,428.5
			l1.5,0.2l-0.3,1.7l-2.1,1.9l-2.2-0.8l0.5-2.3L99.8,428.5z M94.4,430.9l1.3-1.2l0.6,2.2l1.1,1l-1,1l-1.1,0.4l-2.3,1.5l-1,0.2
			l-0.3-1.2l-2.3-1l0.2-0.9l1.3-0.8l0.2-1.8l1.6-0.4L94.4,430.9z M63.3,445.1l2.1,0.9l-1.2,0.7L63.3,445.1z M120.7,414.3l1,1.2
			l-0.2,1.5l1.6,0.4l0.6,0.8l-0.9,1.3l0,1.3l-1.1,1.3l0.9,1.7l-0.7,1.3l-4,0.4l-0.9-0.3l-0.4-1.5l-1.1-1.5l0-2.3l4-1l0.1-1l-0.8-2
			l0-1.1L120.7,414.3z M108.9,433l0.8-0.7l0.9,0.2l3.2-1.9l0.9,1.1l3.6-0.6l2.7-2.4l1.1,0.7l2.4-0.8l0.5,1.5l-0.8,0.5l0.3,1l2.4-0.7
			l0.3,3l1,0.9l-1,1.9l0.5,2.1l0.9,0.5l2-0.3l0.8,1l-0.5,1.3l1,0.8l-0.3,2.5l0.9,0.8l-4.9,1.6l-1.5-0.2l-0.5,0.6l-1.6,0.1l-1.5,1.4
			l1.2,2.4l0.7,0l2,2.9l0.9,1.6l1.5,0l0.5,0.9l-1.6,4.6l-0.1,1.5l-1,1.3l-1.8,1.2l-1,0.6l-2.3,0.2l-0.6-1.1l-2.1-0.2l-3.7,0
			l-3.7,0.3l-1.6-0.1l-2.6,0.6l-1.6,0.7l-1.8,1.8l-3.7,5.2l-2.7,0.1l-0.8-0.9l-2.1,0.1l-1.9,2l-1.8,0.8L92,477l-1.8,0.6l-0.8-1.4
			l-2.2,0.4l-0.6,1.4l-1.3,0.9l0.1,1.3l-0.8-0.6l-2.6-0.2l-2.6,0.3l-0.8,1l-2-0.4l-3.8,0.6l-0.5,0.5l-1.5,0.1l-0.8-0.5l-1.6,0.5
			l-1.4,0l-0.9,1l-1.4-1.4l-0.1-1.5l-2.5,0.6l-2.7-2.5l-1.1,1.7l-2.5,0.6l-1.4-2l-0.8-0.2l-2.9,1.2l-1.8-0.8l-3.9,0.5l-1.8-1.7
			l0.7-1l0.8-1.4l0.3-1.5l0.6-1.1l-2.4-0.4l-0.6-1.4l1-2l1.3-1.2l1.4,1.7l1.8-0.1l0.7,1.8l-0.2,0.9l1,1.6l0.6-0.4l-1.1-1.5l0.6-2.1
			l3.4-1.3l1.3,0.9l0.7,1.5l-0.6,2.6l0.8,0.1l0-1.6l1-0.1l0.5,1.2l1.6,2l0.9-0.6l-2.8-3.9l-0.8-1.9l1.1-0.4l-0.1-1.1l-0.8-0.8l1-0.9
			l5.4-3.6l2.6-0.5l0,0.9l0.9,1.6l0.4,3l0.9,0.6l0.4,2.1l1.6,3.1l0.7,0.1l-1.3-3.4l-0.7-2.5l-0.5-0.6l-0.5-3.1l-0.7-1.1l0.3-1.2
			l1.3-0.7l1.9,0.7l0.4-1.1l1-0.6l2.5-0.8l0.6,0.9l2.6,0.4l1,1l-0.8,1.5l0.6,2.8l1.6,2.7l0,4.6l0.8-2.1l0-2.6l2.2-0.1l0.9,1l1.4,0.3
			l0.7-1.2l-0.3-0.7l-1.6,0.4l-1.8-0.6l-0.6-0.7l-1.6-0.3l-0.5-0.8l-0.5-2.4l0.6-0.5l-0.2-1.9l-1.4-1.8l-1.3-0.2l0.1-1l-2.4,0.2
			l-5.1,1.8l-2.1-0.3l-1.5-1.6l-1.5,0.1l-0.5-0.6l3.2,0l0.1-0.4l3-0.4l2.4,0.2l-0.7-2.1l-2.9,0.3l-2.4-0.2l-1.2-0.6l-0.5-2l1.9-1.4
			l1,0.6l4.2-0.6l-0.1,1.5l0.7,0.2l0.8-1.9l3.2-0.9l2.1,2.2l1.2-0.7l0.9-1.1l2.7,0.2l0.8,2.4l1-1.2l1.1,1.1l3,0.4l0.3,1.7l1.1,1.1
			l2,1l3-0.5l0.7-1l-3.1,0.5l-1.9-1l-0.9-1.4l-0.3-1.5l1.9-0.4l0.6-1l2.3-0.7l0.6-0.6l4.7-1.5l1.7,0.1l1.1-0.5l0.9,0.2l1.8,1.7
			l0.6-1l-3-2l-0.9-0.2l-8.4,2.8l-2.4,0.6l-0.6-1.2l0-1.8l0.8-0.5l3.3-0.8l1.8,0.2l-0.1-0.7l-3.6,0.3l-5.6,1.4l-6.2,0.4l0.4-1.6
			l-0.4-1l1.2-1.7l1.2-0.5l1.9,0.7l0.8-0.6l-1-0.9l-1.8,0.6l-1.2-0.1l-0.1-1.7l-0.6-0.1l-0.8-2l3.3-2.6l2.5-0.8L88,432l0.6,1.8
			l1.7,0.9l0.6,1l0,1.5l1.5,0.1L94,436l2.2-1.3l2.4,0.5l-1.9,1.6l0.9,0.2l2-1.3l2.2-0.4l0.8-0.4l1.9,1.1l1.1,1.6l-0.8,1.5l0.9,3.4
			l0.7,0.9l1.9,1.2l1.1-0.2l0.3,0.9l1.2,0.6l0.6,1.1l1.7,0.9l0.4,2l1-0.8l-0.6-2l-4-2.9l-0.3-0.7l-1.6-0.3l-1.1-1l-0.7-3.1l0.3-1.2
			l-0.4-1.5l-1.8-1.5l-2.1-1.3l-1.3,0.4l0-1.7l0.8-0.8l1.3-0.3l0.2-1.9l2.1-0.9l0.8,0.3l0.6,1.7l-0.3,1.7l1.1,1.2l1.4,0.8l1.6,1.7
			l-1.2,1.6l1,1.8l1.7,1.2l0.8,1.2l1.2-0.5l0.6-1l-2.2-2.7l-0.2-1.1l2-0.1l3.3-0.4l-0.1-1l-1.3,0l-1.8,1l-0.9-0.5l-2.2,0.3l-1.2-2
			L108.9,433z"/>
		<path class="st0" d="M24,577.6l0.8,1.2l-1.3,0.7l-0.5-1.3L24,577.6z M37.5,582.6l2.5,0.5L39,586l-0.9-0.8l0.5-1.8L37.5,582.6z
			 M24.5,581.7l0.2-2l1-0.3l-0.9-1.1l0.8-0.6l0.6,1.4l1.8,2.2l0.7,3.6l-1.7-0.1l-0.8,0.9l-0.8,2.8l0.4,0.9l-0.2,1.4l-1,0.9l-0.9-1
			l0.1-2.4l0.4-3.2l1.5-0.9l-1.1-0.8L24.5,581.7z M29.4,579.9l-1.5-2.1l0-1.4l1.3-1.3l0.2-1.9l0.9,0.2l0.7,1.1l1.8,1.5l0.7,1.8
			l0,4.8l-2.2,1.8l-1.4-0.4l-1.4-1.8l0.7-0.3L29.4,579.9z M32.5,570.4l-0.3,1l-1.6,0.8l-0.6-1.6l0.8-2.8l1.4,0.7L32.5,570.4z
			 M26.6,570.8L27,572l-0.6,0.5l-1.6,0.2l-0.6-1.5L26.6,570.8z M23.5,570.3l0.7,0.4l-0.7,1.3l-0.7-0.6L23.5,570.3z M27.4,552.7
			l0.2,1.3l-1.2,0.1l0.2-2L27.4,552.7z M45.8,565.9l1-0.3l1,0.9l-0.1,1l-0.8,1.2l-1.6,1.1l-0.5-3.2L45.8,565.9z M38.3,573.3
			l-0.8,0.3l-1.4,2.6l-1.4,1.4l-0.6-0.2l-0.5-2.4L33,575l-2.4-2.4l1.1-0.6l1.4,0.2L33,571l0.5-1.2l2.1-0.4l3.3-0.2l0,2.2L38.3,573.3
			z M35.6,578.8l-0.3,1.7l-1-0.8l0-1L35.6,578.8z M37.5,585.7l-0.4,1.2l-1.2-0.9l0.5-1.2L37.5,585.7z M21.5,540.3l0.3,1l-0.6,1.4
			l-1-0.4l0.1-1.5L21.5,540.3z M25.1,557.6l0.9,0.9l0.9,3.2l-1,1l-1-0.2l-0.8-1.3l-1.6-1.2l-0.3-1.4l0.1-2.2l1.2,1l0.5-0.8l-0.6-2
			l-0.3-4.1l0.6-1.2l0.9,0.9l-0.5,1l1.1,0.7l0.1,1.1l1.6,3l-0.3,2.2L25.1,557.6z M26.1,564l0.4,2.4l-1.4-1.6L26.1,564z M27.9,568.6
			l-0.7-3l0.4-0.2l1,2.2l0.6,0.3l-0.1,2.2l-0.3,1l-1.1,0.8l-0.8-0.9l-0.5-1.7l0.2-1.4L27.9,568.6z M24.3,532.7l1.1,3l-0.6,0.1
			l-1.8-1.5l-0.4-1l0.5-0.9L24.3,532.7z M26.5,542.3l1.9,0.8l1.4,1.8l0.6,1.4l-0.6,1.2l-1.8-1.3l-2.2-0.8l-1.1-1.4l0.2-1.8
			L26.5,542.3z M26.7,546.4l2.7,1.8l0.3,3.5l-1.1,0.8l-0.8,0l-0.7-2.4l-1.1-1.1l0.3-1.2l-1.3-1l0.4-1.1L26.7,546.4z M20.7,519.1
			l0,1.1l0.7,0.8l-0.4,1.7l-1.5-0.5l-0.4-1.7l0.3-1.3L20.7,519.1z M22.9,518l0.6,1.4L22,520l0.1-2.4L22.9,518z M26.1,523.3l1.3-0.6
			l0.3,1.5l-1.9,0.2L26.1,523.3z M26.8,525.7l0.4,1.8l0,3l-1.3-0.1l-0.2-4.5L26.8,525.7z M23.3,527l1,0.5l0.4,1.8l-1.3,0.1L23.3,527
			z M29.2,543.4l-0.7-1.1l-1.2-0.2l-0.8-1.3l-2-1.7l-0.9-1.3l0.1-1.4l2-0.1l0.9,1l0.8,2.5L28,540l1.4,1.9L29.2,543.4z M41.2,539.4
			l1.3,0.7l-0.6,3.8l-0.9,3.3l0.1,2.5l-1.2,0.1l-1.5,1.8l-1.8-0.2l-0.7-0.5l-2.1-3.5l-1.1-1.4l1.3-0.2l1.9-0.9l0.9-1.6l2-0.6
			l1.6-2.8L41.2,539.4z M30.1,517.3l-1.5,0.1l0-2.4l0.8,0.5L30.1,517.3z M26.6,514.5l0.7-1.3l1,0.4l0.1,4l-0.3,0.9l-2.3,1l0.1-1.3
			l-1.9,1.2l0-3.9l1.7-2.1l1.2,0.1L26.6,514.5z M27.8,493.8l0.1,0.8l-1.8,0.2l0.9-1.3L27.8,493.8z M28,489.3l0.5,1.8l-1.4-0.2
			l-0.2-0.8L28,489.3z M28.3,505.5l1.2-0.3l-0.1,2.6l-1.6,0l-1.5-1.1l1.3-2L28.3,505.5z M32.4,499.7l-0.1,1.1l-1.4-0.1l0.1-1.1
			L32.4,499.7z M34,497.4l-0.6,0.1l-1.8-1l1-0.7L34,497.4z M39.5,476.2l-0.9,0.1l0.1-1.6l1.1,0.7L39.5,476.2z M33.4,474.8l2.1,0.4
			l0,2.7l-1.3,1.4l-0.9-1.5l0.7-0.8l-0.6-1l-0.9-0.1l-0.6-1l0.3-1.3L33.4,474.8z M36.2,482l1.4,0.6l-0.1,1.4l-1.1-0.1l-3.5,1l-1.4,1
			l-1.9,0.4l-0.2-3.2l-1.7-1.1l2-1.6l1.3-0.6l1.2,1L36.2,482z M28.5,486.6l-1.7-1.8l1.2-0.8l1.1,1.8L28.5,486.6z M71,586.3l-2.9,0.3
			l-4.1,2l-1.2,0.9l-1.5,0.3l-1.3-0.5l-0.1-0.8l1.1-2.4l-0.2-0.6l0.4-2.3l-0.6-0.7l-2.2,0.4l-0.7-0.6l-2.5,1.5l-0.5,0.7l-2.4,0.2
			l-1.5,1.9l-0.3,1.7l-1.1,0.5l-0.5,1.7l-1,1.9l0,1.4l-1.6-0.1l-1.4-0.8l-2.2,0.7l0.1-0.9l-1.6-0.8l-0.1-0.7l-1.4-0.4l-0.2-0.8
			l-0.7-0.2l-0.1-1.7l2.2-1.4l1.8-1.7l3.7,1.4l0.7-0.5l1-2.1l-1.3,0.1l-0.4,1.3l-1.6,0.2l-0.9-0.6l-0.4-1.3l-1-0.2l-1,1l-1.1-1.1
			l-0.5-1.6l-0.9-0.7l-1.2,0.3l-0.3-1.4l1.7-0.5l0.3-1.6l0.8-1.1l1.5,0l1.7-1l1.7,0.2l0.5-1.5l-0.5-0.8l1.6-3l2-1.2l0.8,0.1l1.4-0.8
			l-1.7-1.6l-0.8-2.4l1.1-1.2l1.4,0.1l0.7-1.7l0.7,0l0.5-2l1.9-0.5l0.7-1l0.3-1.5l1,0.2l2.4-0.6l0.5-1.2l1.3-1.1l1.2,0.5l1.2,1
			l-1.8,3.6l0.1,1.1l-1,1.7l-0.3,2.3l-0.9,2.4l0.6,0.1l1.4-3.1l0.1-1.9l1.1-2.1l0-0.7l1-2.3l1.2-0.9l0.6-1.2l1.3-0.8l0.9-1l1.2,0.4
			l2.5-0.5l1.5,1.1l0.6-0.7l-1.5-1.3l-2.4,0.1l0.8-1.4l2.3-2.6l-0.3-0.2L70,550l-1.1,1.8l-1.4,0.2l-1.9,0.7l-0.2,0.7l-2,1l-0.8-1.6
			l-2.4,0.2l-1.8,0.9l-1.2,0l-0.4,0.9l-2.9,0.7l-0.7,1l-1.9,0.2l0.9,1.7l-1.3,0.7l0.1,2.3l-2.2,0.5l-1.7-1.2l-0.4,1.9l-1.1,0.7
			l-0.5,2.3l-1.2,0l-0.3,1.3l0.3,1.6l-0.1,2l-0.4,1.4l-1.3,1.7l-2.2,0.5l-0.4-1.5l-0.7,0.3l-0.2-2.3l0.6-2.5l0.8-1.4l-0.6-1.1
			L39,565l-1.9,0.6l-0.8-0.5l0.9-1.9l1.7-1.5l0.2-1.7l-1.1-1.1l-1.4,1.2l0.2,0.7l-1.3,2.3l-1.5,0.5l-0.8,2.2l-1.2-0.9l-0.4-1.3
			l0-2.6l-1.9,0.9l-0.8-0.8l0.6-0.9l-1.2-1.7l0.2-2l-0.6-2.8l1.8-1l1.6,0.8l0.4-1.2l-0.9-1.3l-0.4-2l0.3-1.3l1-1l1.6,1l1.5,2.7
			l1.5,1.8l2.6-0.1l0.7-1.2l2.1,0.2l0-4l0.7-2.7l0.9-5l-1.5-0.3l-0.6-1.4l-1.3,1.2l-1.3,0.1l0.3,2.8l-0.9,0.7l-1-0.3l-0.9,1
			l-1.8,0.9l-0.5,0.9l-1,0l-1,0.9l-1.3-1.1l-0.6-2.7l-1.8-2.4l0.4-0.8l2.2,2L31,540l-2.8-3l-1.2-3.2l-0.8-0.9l1-0.9l0.8,1.7l0.5-0.2
			l3.1,2.8l1.6,0.6l0.2,1.6l2.4,3.2l0.4-0.3l-1.6-2.1l1.4-0.3l-1.5-2.4l-1.6-0.8l-0.7-0.9l0.9-1.4l1.8-1l-0.3-1.1l0.4-0.8l2.5-0.3
			l0.8,1.1l0.6-0.6l-1-0.9l-3.4,0.5l-0.4,1.7l-0.6,0.6l-1.1-0.9l-1.1-0.1l-1,0.9l-0.6-1.3l-0.9,0.3l-0.8-0.7l-0.5-2.6l0.2-1.6
			l-0.6-1.2l2.7,0.1l-1.8-1.2l-0.1-2.6l0.6-1.2L30,520l4.3,0.8l0.4,1.7l3.9,0.9l-0.1-1.3l1-0.7l1,0.2l1.9-1.5l2.1,0.3l1.8-1.2
			l1.1,0.9l0.9-0.8l2.2,0.3l1.1,1.2l2.1-0.4l1.3,0.2l0.6,0.8l1.3,0.1l1.5,1.6l2.1,0.3l1.7-0.5l0.9-0.9l1.1,0.8l1.3-3.9l1.5,1.3
			l1.7,0.5l1.7,0l0.5,1.4l-0.1,1.3l2.9,1.5l0.4,3.3l1.2,2.2l2.2,1.8l-0.2-1.4l-1.3-0.4l-0.9-1l-0.9-3.5l0.3-0.5l0-2.1l4.2-0.4
			l0.6-1.3l1.9,1.4l0.7-0.2l1.5,0.8l0.1-2l0.8-1l1.5-0.6l2,0.2l0.5-1l-2.9,0l-1.6,0.4l-0.9-0.5l-0.1-2.9l-1.4-1.8l1.2-0.5l0.9-1.1
			l0-0.9l1.2-1.8l1-0.4l0.4-1.4l2.5-1.9l-0.6-0.3l-1.6,1.3l-1.4,0.5l-0.3,1.4l-1.6,0.8l-0.8,1.1l0.1,1.1l-2.1,1.8l0.6,1.5l0.8,0.4
			l0.3,3.5l0.9,0.8l-1.6,1.1l-1.9-0.9l-1.3,0.1l-1,1l-4.8,1.1l-0.6-2.4l-1.5-1.3l-2.5,0l-0.7-1L65,517l0-1.6l2.2-1.6l-0.6-0.4
			l-2.5,1.9l-0.8,2.2l0.1,2.7l-4,1l-1.7-1.4l-0.6,0.1l-1.4-1.7l-3.5,0.6l-1.7-1.3l-2.5,0.2l-2.7-0.7l-0.9,0.2l-0.4,1.1l-1.8-0.8
			l-0.9,1l-2.1,0.9l-2.2,1.3l-1.5-1.6l0.2-1.3l-2.4,0.9l-0.4-1.1l1.5-0.3l-1.6-1.5l-1.1,0.7l-1.9-1.7l0.6-1.1l1.2,0l2.5,1.4l0.4-0.9
			l-2-1.4l-2.8,0l-0.6-1.9l-1-1.5l1.7,0.2l0.3-0.7l1.3,0.2l0.5-0.8l1.5,0.9l0.1-2.1l3.6,0.1l0.9-1l-4.7,0.2l-0.5,1.2l-2.2,0.3
			l-1.1-4.1l-0.7-0.7l2.4-1.3l3.8,0.2l1-0.8l1.6,0.8l1.7-0.6l0.2,0.9l1.1,0.3l-0.1-1.4l-1.2-0.5l-1.4,0l-2.6-1.1l-1.5-0.9l0.3-1.9
			l1.4,0.9l1.3,0.3l1.2-0.7l-2.5-1.6l1.2-1.5l-0.8-0.9l-2,0.1l-1.2-0.6l-2.5,0.3l0.6-1l-0.7-1.1l0.2-2.5L32,487l2.5,0.9l0.6-0.8
			l2.3,0.2l-0.1-0.8l-2.5,0l-1.3-0.3l1.4-1.2l1.1-0.1l2.3-0.8l0.7-0.7l-0.1-1.3l1.8-1.5l1.1-0.4l0.7,0.7l3.3,0.7l2.1,0.9l0.5,1.3
			l-0.9,1l2.6-0.1l2.2-0.6l2.7,0.9l1.8,3.6l1.2-0.3l-1.1-2.3l3-0.5l1.8,0.5l0.9,1.1l2.2,0.9l1.2-0.2l2.1-2l1.7-0.8l1.5,0.6l0.3-0.7
			l-3-0.8l-2,0.8l-0.6,1.8l-2.4-0.2l-1.6-1.6l-2.3-0.3l-2.3,0.5l-1.9-1.6l-2,0l-1-0.6l-2.6,0.3l-1.4-1.3l4,0l1.5,0.3l0.3-0.6
			l-1.9-0.6l-0.9,0.3l-1.4-0.5l-2,0.2l-7.2-1.7l-1.5,0.9l-2.2-0.5l-1.1,0.8l-0.9-1.8l0.8-1.2l0.1-1l2.7,0.3l1.4-0.6l0.6-3l-1.7-1.4
			l-0.4-0.9l-2.8-0.3l0.1-1.2l0.7-0.8l-0.7-2.4l2.6-0.4l0.8,1.5l1.7,0.7l-0.5,2.2l1.5,1.6l1.5,2.1l0.2,1.9l-0.7,1l1.8,1.7l3.9-0.5
			l1.8,0.8l2.9-1.2l0.8,0.2l1.4,2l2.5-0.6l1.1-1.7l2.7,2.5l2.5-0.6l0.1,1.5l1.4,1.4l0.9-1l1.4,0l1.6-0.5l0.8,0.5l1.5-0.1l0.5-0.5
			l3.8-0.6l2,0.4l0.8-1l2.6-0.3l2.6,0.2l0.8,0.6l0.7,0.3l0.3,1.2l-0.4,2.1l0.4,2l-0.2,1.6l2,4.8L88,494l5.5-0.9l2,0.7l1.4,1.1
			l-0.5,3.7l0.7,2l0.2,2.2l3.8,1.9l1.9-1.1l1.5,0.8l0.4,2.2l0.7,1.7l-1.2,1.1l-2.9,0l0,2.7l2,1.9l-1,1.4l-0.8-0.1l-0.9,1.1l-1.8,1.4
			l-0.5,1.7l0.6,2.4l1.3,2.6l2.4,1.9l-0.9,0.9l1.5,1.1l-1.3,1.8l-0.3,1.2l-2-0.3l-2.5,3.7l-1.4-0.5l-1.1,0.1l-1.2-1.4l-1.9,1.2
			l-2.6,4.8l0.4,1.5l-1.1,1.3l-1.6-0.7l-4.4,3.7l2.5,0.3l2,1.3l-0.5,1.7l0.3,1.8l0.7,1.1l1.3,0.9l-1.2,4.5l-0.9,6.3l-1.7,2.3
			l-0.9,3.2l-2.5,3.5l-1.2,1.9l-0.3,1.8l-2.9,1.4l-0.8-0.2L75,578l-2.4,3.8l-0.3,1.3l0.4,0.9l-0.4,1.1L71,586.3z M30.1,596.2
			l-1.6,0.1l-1.9,0.6l-0.3-0.4L25,595l0.1-1.8l1.1-0.7l1-2.6l1.6-0.6l0.9-0.8l0.3,2l1.2-0.3l-1.2-1.8l1.3-2.2l0.9-0.5l1,0.4
			l-0.6,2.9l-0.6,0.5l0.1,2.4l-0.7,2.9l-1.2-0.1L30.1,596.2z"/>
		<path class="st1" d="M85.3,480.3l-0.8-0.6l-2.6-0.2l-2.6,0.3l-0.8,1l-2-0.4l-3.8,0.6l-0.5,0.5l-1.5,0.1l-0.8-0.5l-1.6,0.5l-1.4,0
			l-0.9,1l-1.4-1.4l-0.1-1.5l-2.5,0.6l-2.7-2.5l-1.1,1.7l-2.5,0.6l-1.4-2l-0.8-0.2l-2.9,1.2l-1.8-0.8l-3.9,0.5l-1.8-1.7l0.7-1
			 M81.6,571.9l2.5-3.5l0.9-3.2l1.7-2.3l0.9-6.3l1.2-4.5l-1.3-0.9l-0.7-1.1l-0.3-1.8l0.5-1.7l-2-1.3l-2.5-0.3l4.4-3.7l1.6,0.7
			l1.1-1.3l-0.4-1.5l2.6-4.8l1.9-1.2l1.2,1.4l1.1-0.1l1.4,0.5l2.5-3.7l2,0.3l0.3-1.2l1.3-1.8l-1.5-1.1l0.9-0.9 M185.7,588.7
			l-0.9-3.8l0.5-0.5l-0.7-1.2l0.4-1.6l0.6-0.4l-0.3-2.6l-0.9,0l-0.2-1.8l-2.9-1.6l-2.2-2.9l0.6-1.1l0-1.6l0.5-1.4l-1.9-1.4l-1.1-1.8
			l-1-0.4l-0.3-1.4l-1.7-4.4l-1-0.5l-1.3-1.5l-0.8-0.3l0.2-2.8l-1.4-2l-1.1,1.7l-0.4,2.5l-0.6-0.1l-2.8,1.4l-0.4,0.7l-2.3-0.3
			l-1.8-0.9l-1.5,0.2l0.6,2.8l2.3,0.4l1.9,1.5l0,0.9l0.7,1.5l-1.7,1.5l-2.4-0.1l-1-0.8l-2.4,0.4l-2.7-0.4l-1.9,0.6l-1.3-0.5l0.6-2.6
			l-1.3,0.3l-1.7-1.3l-1.6-0.4l-0.8-6l-1.4-1.7l-0.6-2.3l-0.6-1.2l-1.7-0.4l-1.4,0.1l0.9,1.5l-3.2,2.2l0,2.1l0.3,2.7l-0.7,0.1
			l-2.8-1.5l-1.4-1.3l-0.2-1.5l-3.1,0.3l-1.3-0.9l-0.1-1.6l0.6-0.9l-1.2-1l-0.6-2.3l-0.7-0.7l0.4-2.3l-0.9-1.6l-1.7-0.5l-1.5-1.8
			l-1.3-0.5l-3.8-2.5l-0.6-1.7l-1.7-0.3l-2.8-1.3l-1.6-1.4l-0.2-1.5l-2.2-1.9l-1.6-0.2l-1.7-1.4l-1.2-2.2l-1.4,0.8l-2.4-1.9
			l-1.3-2.6l-0.6-2.4l0.5-1.7l1.8-1.4l0.9-1.1l0.8,0.1l1-1.4l-2-1.9l0-2.7l2.9,0l1.2-1.1l-0.7-1.7l-0.4-2.2l-1.5-0.8l-1.9,1.1
			l-3.8-1.9l-0.2-2.2l-0.7-2l0.5-3.7l-1.4-1.1l-2-0.7L88,494l0.1-1.6l-2-4.8l0.2-1.6l-0.4-2l0.4-2.1l-0.3-1.2l-0.7-0.3l-0.1-1.3
			l1.3-0.9l0.6-1.3l2.2-0.4l0.8,1.4L92,477l-1.1-1.9l1.8-0.8l1.9-2l2.1-0.1l0.8,0.9l2.7-0.1l3.7-5.2l1.8-1.8l1.6-0.7l2.6-0.6
			l1.6,0.1l3.7-0.3l3.7,0l2.1,0.2l0.6,1.1l2.3-0.2l1-0.6 M121.8,425.1l0.7-1.3l-0.9-1.7l1.1-1.3l0-1.3l0.9-1.3l-0.6-0.8l-1.6-0.4
			l0.2-1.5l-1-1.2 M195.9,469.1l-1,0l-1.8,1l-1.6-1.8l-1.6-0.6l-4.9-1.1l-1,1.6l-0.7-0.2l-0.4-1.4l-2.4,0.5l-0.8-0.9l-0.9-2.3
			l-1.4-2.1l-1.3-0.7l-0.7-1l-1.9-0.9l-0.4-1.8l-1.5-2.1l-0.1-1.6l-0.8-0.7l-1.7-0.3l-2.5-1.5l-1.7,0.1l-1.3,0.6l-1.2,1.6l-0.6-1
			l-1.4-0.5l-1.3,0.6l-5.9-1.7l-3.2-0.2l-1.3,1.5l-1.1,3l-1.1,0.7l-0.5,1.3l0.6,2.7l1.2,3.7l-3.3,1.4l-0.5,2l-0.8,0.5l-1.3-0.9
			l-0.1,2.3l-0.9,1.2l-1.9,0.2l-2.6,1.2l-2.5-1.8l-2.8-1.4l-5.8-2.5l-0.8-0.5l1.8-1.2l1-1.3l0.1-1.5l1.6-4.6l-0.5-0.9l-1.5,0
			l-0.9-1.6l-2-2.9l-0.7,0l-1.2-2.4l1.5-1.4l1.6-0.1l0.5-0.6l1.5,0.2l4.9-1.6l-0.9-0.8l0.3-2.5l-1-0.8l0.5-1.3l-0.8-1l-2,0.3
			l-0.9-0.5l-0.5-2.1l1-1.9l-1-0.9l-0.3-3l-2.4,0.7l-0.3-1l0.8-0.5l-0.5-1.5l-2.4,0.8l-1.1-0.7l-2.7,2.4l-3.6,0.6l-0.9-1.1l-3.2,1.9
			l-0.9-0.2l-0.8,0.7 M189.1,337.6l0.5-4 M190.4,337.3l-0.5,0 M194.6,340.8l-1-1l-1,1l-0.7-0.7l0-2.4 M237.9,334.5l-3.3-0.9l-2,0.9
			l-1-0.3l-1.6,0.6l-2,0.1l-4.2,0.7l-2-0.5l-2.4,0.9l-2.2-0.1l-3.1-0.6l-1.4,0.3l-0.6,1.8l-1.2,0.2l-0.6,1.7l-1.2,0.8l0.8,0.8
			l-0.8,1.2l-2.7,0l-0.1,1.7l-1.1-0.6l-1.8,0.6l-1.4-2.4l-1.2,0.6l-2.3-0.6l-2.3,1.5l-1.8-0.9l-0.2-0.5 M156.9,584.8l-0.5-2.9
			l-3.1-2.3l2.3-2.8l-0.1-2l0.8-0.8l1.8,0l1.4,0.4l1.2,2.8l0.8,0.2l-0.2,1.9l1.5,1.9l1.2,0.1l0.4,2l-0.8,1.5l-0.2,2l0.5,1.6
			l-1.3,1.2l-2.8-1 M123.7,638.4l-0.9-0.8l-3.3-1l-0.2-2.8l-0.5-1.1l-2.1-1.4l-0.9-1.1l-0.9-3l-1.4,0.3l-2.6-0.2l-0.3,0.9l-1.5,0.9
			l-0.1,0.5l1.7,1.3l-1.3,2.1l0.1,1.2l-1.1,0.5l-0.5-0.9l-1.7-1l-1-2.2l-1.1-0.7l-1.6,0.8l-0.7,1l-1.9-1.2l-2.2-0.6l-0.3-0.8
			l-2.9-2.4l-1.9,0.2l0.5,1l-1.7,0.1l-1.7-0.7l-1-1.3l-1.4-2.6l-0.2-1l-1.4-2.8l-1.5-1.4l-0.2-1l0.9-3.1l-0.7-1.6l-0.5-3.2l-1.9-0.4
			l-0.3-2.2l-1.3-1.2l1.2-2.1l1.1-0.8l-0.9-2l-1.1-1.2l-0.4-1.8l1-1.2l-1-1.1l-1.5-2.4l-1.2,1l-4.2-2.3 M71,586.3l1.3-1.3l0.4-1.1
			l-0.4-0.9l0.3-1.3L75,578l1.3-1.1l0.8,0.2l2.9-1.4l0.3-1.8l1.2-1.9l3.9-1.1l2.8,0.7l1.1,0.7l2.7-1.5l3.3-1.1l1.2-0.9l2.5,0
			l1.8,0.7l2.4-0.1l2.4,0.7l1.9-0.3l2.2,0.4l1.6-0.5l2.5,1.8l2.6,2.5l0.7,1.6l0.1,2.7l1.5,2.5l1.1,0.2l2,2.1l-0.5,2.4l0.1,1.9
			l3.4,1.8l0.8,0.8l-0.5,1l0.2,1.9l-0.6,1.2l1.7,0.5l0.3,2.1l1,4.1l1,1l-1.2,2l0,0.6l2-0.2l0.8,1.8l1.7,2.1l2.9-0.1l0-2.2l1.1-0.5
			l0.8,0.6l1.7,0.2l0.6-0.6l1.9,0.3l0.9-0.4l-0.8-1.9l-0.9-0.9l-1.6-2.5l0.3-1l1.2-0.6l0.5-1.8l0.9,0.8l1.3-0.1l0.7-1.3l3.5,0l1,0.3
			l0.7,1.9l-0.2,1.1l0.2,2.1l0.9,1.4 M264.1,168.9l-1.1,0.5l-1.1-1.2l0.5-0.6l-1.3-2.1l-1.1,2.7l0.1,1.2l-1.1,0l-1.2,2.1l-1.4,0.4
			l-1.4-3.7l1-1.2l-0.4-1.7l0.8-1.2l1,0.2l0.7-1.6l-0.1-1.7l1.4,0l2-2.3 M299.4,166.3l-2.1-3.3l-4.8,0.9l-3.5,0.3l-3.5,2l-2.5,0.4
			l-5.8-0.3l-2.5,3.2l-2.8,1.2l0.3,1.7 M39.8,590l0.2,0.8l1.4,0.4l0.1,0.7l1.6,0.8l-0.1,0.9l2.2-0.7l1.4,0.8l1.6,0.1l0-1.4l1-1.9
			l0.5-1.7l1.1-0.5l0.3-1.7l1.5-1.9l2.4-0.2l0.5-0.7l2.5-1.5l0.7,0.6l2.2-0.4l0.6,0.7l-0.4,2.3l0.2,0.6l-1.1,2.4l0.1,0.8l1.3,0.5
			l1.5-0.3l1.2-0.9l4.1-2l2.9-0.3l0.3,1l-0.2,3l2.4,1.5l-2.9,0.8l-0.4,1.5l-1.1,1.5l-1.3-0.6l-0.6,3.5l0.9,2.1l-1.8,1.6l-1.9,0.6
			l0.1,1.5l-1.8,3.8l-0.3,2.3l0.3,0.9l-0.3,2.8l1.6,0.5l0.4,1l-1,0.7l0.3,1.8l-3.1,2.7l-2.2,2.2l-1.1,0.7l-1,2.1l-1.9,1.3l0.1,1.2
			l1,0.4l-1.6,2.5l-1.1,2.7l1.4,0.4l-0.2,1l1.1,1.9l-0.6,0.8l-2.4,0.6l-0.7-0.2l-0.4,1.5l0.6,1.5l0.9-0.8l1.2,0.7l0,1.2l0.6,1.7
			l-0.8,2.2l0.7,3.2l-1,1.2l0.2,2.1l-1.4,2.1l-3.4,1.5 M26.2,596.5l0.3,0.4l1.9-0.6l1.6-0.1"/>
	</g>
</g>
<g id="Layer_2">
	<g>
		<g>
			<path class="st2" d="M158.9,544c-6.5,0-11.7,5.2-11.7,11.7c0,6.5,11.7,22.4,11.7,22.4s11.7-15.9,11.7-22.4
				C170.6,549.2,165.4,544,158.9,544z M149.3,555.7c0-5.3,4.3-9.6,9.6-9.6s9.6,4.3,9.6,9.6c0,3.7-5.3,12.6-9.6,18.7
				C154.6,568.3,149.3,559.4,149.3,555.7z M158.9,550.4c-2.9,0-5.3,2.4-5.3,5.3c0,2.9,2.4,5.3,5.3,5.3s5.3-2.4,5.3-5.3
				C164.2,552.8,161.8,550.4,158.9,550.4z M158.9,558.9c-1.8,0-3.2-1.4-3.2-3.2c0-1.8,1.4-3.2,3.2-3.2s3.2,1.4,3.2,3.2
				C162.1,557.5,160.6,558.9,158.9,558.9z"/>
		</g>
	</g>
	<g>
		<g>
			<path class="st2" d="M146,591.9c-6.5,0-11.7,5.2-11.7,11.7S146,626,146,626s11.7-15.9,11.7-22.4S152.5,591.9,146,591.9z
				 M136.5,603.6c0-5.3,4.3-9.6,9.6-9.6c5.3,0,9.6,4.3,9.6,9.6c0,3.7-5.3,12.6-9.6,18.7C141.8,616.2,136.5,607.3,136.5,603.6z
				 M146,598.3c-2.9,0-5.3,2.4-5.3,5.3c0,2.9,2.4,5.3,5.3,5.3c2.9,0,5.3-2.4,5.3-5.3C151.4,600.7,149,598.3,146,598.3z M146,606.8
				c-1.8,0-3.2-1.4-3.2-3.2s1.4-3.2,3.2-3.2s3.2,1.4,3.2,3.2S147.8,606.8,146,606.8z"/>
		</g>
	</g>
	<g>
		<g>
			<path class="st2" d="M122.8,611.1c-6.5,0-11.7,5.2-11.7,11.7c0,6.5,11.7,22.4,11.7,22.4s11.7-15.9,11.7-22.4
				S129.2,611.1,122.8,611.1z M113.2,622.8c0-5.3,4.3-9.6,9.6-9.6c5.3,0,9.6,4.3,9.6,9.6c0,3.7-5.3,12.6-9.6,18.7
				C118.5,635.4,113.2,626.5,113.2,622.8z M122.8,617.5c-2.9,0-5.3,2.4-5.3,5.3c0,2.9,2.4,5.3,5.3,5.3s5.3-2.4,5.3-5.3
				C128.1,619.9,125.7,617.5,122.8,617.5z M122.8,626c-1.8,0-3.2-1.4-3.2-3.2c0-1.8,1.4-3.2,3.2-3.2c1.8,0,3.2,1.4,3.2,3.2
				C126,624.6,124.5,626,122.8,626z"/>
		</g>
	</g>
	<g>
		<g>
			<path class="st2" d="M168.5,588.7c-6.5,0-11.7,5.2-11.7,11.7s11.7,22.4,11.7,22.4s11.7-15.9,11.7-22.4S174.9,588.7,168.5,588.7z
				 M158.9,600.4c0-5.3,4.3-9.6,9.6-9.6c5.3,0,9.6,4.3,9.6,9.6c0,3.7-5.3,12.6-9.6,18.7C164.2,613,158.9,604.1,158.9,600.4z
				 M168.5,595.1c-2.9,0-5.3,2.4-5.3,5.3c0,2.9,2.4,5.3,5.3,5.3c2.9,0,5.3-2.4,5.3-5.3C173.8,597.5,171.4,595.1,168.5,595.1z
				 M168.5,603.6c-1.8,0-3.2-1.4-3.2-3.2s1.4-3.2,3.2-3.2c1.8,0,3.2,1.4,3.2,3.2S170.2,603.6,168.5,603.6z"/>
		</g>
	</g>
	<g>
		<g>
			<path class="st2" d="M151.4,560.6c-6.5,0-11.7,5.2-11.7,11.7s11.7,22.4,11.7,22.4s11.7-15.9,11.7-22.4S157.8,560.6,151.4,560.6z
				 M141.8,572.3c0-5.3,4.3-9.6,9.6-9.6c5.3,0,9.6,4.3,9.6,9.6c0,3.7-5.3,12.6-9.6,18.7C147.1,584.9,141.8,576,141.8,572.3z
				 M151.4,566.9c-2.9,0-5.3,2.4-5.3,5.3c0,2.9,2.4,5.3,5.3,5.3c2.9,0,5.3-2.4,5.3-5.3C156.7,569.3,154.3,566.9,151.4,566.9z
				 M151.4,575.5c-1.8,0-3.2-1.4-3.2-3.2s1.4-3.2,3.2-3.2c1.8,0,3.2,1.4,3.2,3.2S153.1,575.5,151.4,575.5z"/>
		</g>
	</g>
	<g>
		<g>
			<path class="st2" d="M87.4,639.3c-6.5,0-11.7,5.2-11.7,11.7s11.7,22.4,11.7,22.4s11.7-15.9,11.7-22.4S93.8,639.3,87.4,639.3z
				 M77.8,651c0-5.3,4.3-9.6,9.6-9.6c5.3,0,9.6,4.3,9.6,9.6c0,3.7-5.3,12.6-9.6,18.7C83.1,663.6,77.8,654.7,77.8,651z M87.4,645.7
				c-2.9,0-5.3,2.4-5.3,5.3c0,2.9,2.4,5.3,5.3,5.3c2.9,0,5.3-2.4,5.3-5.3C92.7,648.1,90.3,645.7,87.4,645.7z M87.4,654.2
				c-1.8,0-3.2-1.4-3.2-3.2s1.4-3.2,3.2-3.2c1.8,0,3.2,1.4,3.2,3.2S89.1,654.2,87.4,654.2z"/>
		</g>
	</g>
	<g>
		<g>
			<path class="st2" d="M108.8,616.5c-6.5,0-11.7,5.2-11.7,11.7s11.7,22.4,11.7,22.4s11.7-15.9,11.7-22.4S115.3,616.5,108.8,616.5z
				 M99.2,628.2c0-5.3,4.3-9.6,9.6-9.6s9.6,4.3,9.6,9.6c0,3.7-5.3,12.6-9.6,18.7C104.5,640.8,99.2,631.9,99.2,628.2z M108.8,622.9
				c-2.9,0-5.3,2.4-5.3,5.3c0,2.9,2.4,5.3,5.3,5.3c2.9,0,5.3-2.4,5.3-5.3C114.1,625.3,111.7,622.9,108.8,622.9z M108.8,631.4
				c-1.8,0-3.2-1.4-3.2-3.2s1.4-3.2,3.2-3.2c1.8,0,3.2,1.4,3.2,3.2S110.6,631.4,108.8,631.4z"/>
		</g>
	</g>
	<g>
		<g>
			<path class="st2" d="M42.6,588.1c-6.5,0-11.7,5.2-11.7,11.7s11.7,22.4,11.7,22.4s11.7-15.9,11.7-22.4S49.1,588.1,42.6,588.1z
				 M33,599.8c0-5.3,4.3-9.6,9.6-9.6s9.6,4.3,9.6,9.6c0,3.7-5.3,12.6-9.6,18.7C38.3,612.4,33,603.5,33,599.8z M42.6,594.5
				c-2.9,0-5.3,2.4-5.3,5.3c0,2.9,2.4,5.3,5.3,5.3s5.3-2.4,5.3-5.3C47.9,596.9,45.5,594.5,42.6,594.5z M42.6,603
				c-1.8,0-3.2-1.4-3.2-3.2s1.4-3.2,3.2-3.2s3.2,1.4,3.2,3.2S44.4,603,42.6,603z"/>
		</g>
	</g>
	<g>
		<g>
			<path class="st2" d="M35.1,575.3c-6.5,0-11.7,5.2-11.7,11.7s11.7,22.4,11.7,22.4s11.7-15.9,11.7-22.4S41.6,575.3,35.1,575.3z
				 M25.5,587c0-5.3,4.3-9.6,9.6-9.6s9.6,4.3,9.6,9.6c0,3.7-5.3,12.6-9.6,18.7C30.9,599.6,25.5,590.7,25.5,587z M35.1,581.7
				c-2.9,0-5.3,2.4-5.3,5.3c0,2.9,2.4,5.3,5.3,5.3s5.3-2.4,5.3-5.3C40.5,584.1,38.1,581.7,35.1,581.7z M35.1,590.2
				c-1.8,0-3.2-1.4-3.2-3.2c0-1.8,1.4-3.2,3.2-3.2c1.8,0,3.2,1.4,3.2,3.2C38.3,588.8,36.9,590.2,35.1,590.2z"/>
		</g>
	</g>
	<g>
		<g>
			<path class="st2" d="M32.4,537c-6.5,0-11.7,5.2-11.7,11.7s11.7,22.4,11.7,22.4s11.7-15.9,11.7-22.4S38.9,537,32.4,537z
				 M22.8,548.8c0-5.3,4.3-9.6,9.6-9.6s9.6,4.3,9.6,9.6c0,3.7-5.3,12.6-9.6,18.7C28.1,561.3,22.8,552.5,22.8,548.8z M32.4,543.4
				c-2.9,0-5.3,2.4-5.3,5.3c0,2.9,2.4,5.3,5.3,5.3s5.3-2.4,5.3-5.3C37.7,545.8,35.4,543.4,32.4,543.4z M32.4,552
				c-1.8,0-3.2-1.4-3.2-3.2s1.4-3.2,3.2-3.2s3.2,1.4,3.2,3.2S34.2,552,32.4,552z"/>
		</g>
	</g>
	<g>
		<g>
			<path class="st2" d="M48.3,535.9c-6.5,0-11.7,5.2-11.7,11.7S48.3,570,48.3,570S60,554.1,60,547.6S54.8,535.9,48.3,535.9z
				 M38.7,547.6c0-5.3,4.3-9.6,9.6-9.6s9.6,4.3,9.6,9.6c0,3.7-5.3,12.6-9.6,18.7C44,560.2,38.7,551.3,38.7,547.6z M48.3,542.3
				c-2.9,0-5.3,2.4-5.3,5.3s2.4,5.3,5.3,5.3s5.3-2.4,5.3-5.3S51.2,542.3,48.3,542.3z M48.3,550.8c-1.8,0-3.2-1.4-3.2-3.2
				s1.4-3.2,3.2-3.2s3.2,1.4,3.2,3.2S50.1,550.8,48.3,550.8z"/>
		</g>
	</g>
	<g>
		<g>
			<path class="st2" d="M29.2,507.3c-6.5,0-11.7,5.2-11.7,11.7s11.7,22.4,11.7,22.4s11.7-15.9,11.7-22.4S35.7,507.3,29.2,507.3z
				 M19.6,519c0-5.3,4.3-9.6,9.6-9.6s9.6,4.3,9.6,9.6c0,3.7-5.3,12.6-9.6,18.7C25,531.6,19.6,522.7,19.6,519z M29.2,513.7
				c-2.9,0-5.3,2.4-5.3,5.3c0,2.9,2.4,5.3,5.3,5.3s5.3-2.4,5.3-5.3C34.5,516.1,32.2,513.7,29.2,513.7z M29.2,522.2
				c-1.8,0-3.2-1.4-3.2-3.2s1.4-3.2,3.2-3.2s3.2,1.4,3.2,3.2S31,522.2,29.2,522.2z"/>
		</g>
	</g>
	<g>
		<g>
			<path class="st2" d="M71.5,490.3c-6.5,0-11.7,5.2-11.7,11.7s11.7,22.4,11.7,22.4s11.7-15.9,11.7-22.4S78,490.3,71.5,490.3z
				 M61.9,502c0-5.3,4.3-9.6,9.6-9.6s9.6,4.3,9.6,9.6c0,3.7-5.3,12.6-9.6,18.7C67.2,514.6,61.9,505.7,61.9,502z M71.5,496.7
				c-2.9,0-5.3,2.4-5.3,5.3s2.4,5.3,5.3,5.3c2.9,0,5.3-2.4,5.3-5.3S74.4,496.7,71.5,496.7z M71.5,505.2c-1.8,0-3.2-1.4-3.2-3.2
				c0-1.8,1.4-3.2,3.2-3.2c1.8,0,3.2,1.4,3.2,3.2C74.7,503.8,73.3,505.2,71.5,505.2z"/>
		</g>
	</g>
	<g>
		<g>
			<path class="st2" d="M37.1,469.9c-6.5,0-11.7,5.2-11.7,11.7S37.1,504,37.1,504s11.7-15.9,11.7-22.4S43.6,469.9,37.1,469.9z
				 M27.5,481.6c0-5.3,4.3-9.6,9.6-9.6s9.6,4.3,9.6,9.6c0,3.7-5.3,12.6-9.6,18.7C32.8,494.2,27.5,485.3,27.5,481.6z M37.1,476.3
				c-2.9,0-5.3,2.4-5.3,5.3s2.4,5.3,5.3,5.3c2.9,0,5.3-2.4,5.3-5.3S40,476.3,37.1,476.3z M37.1,484.8c-1.8,0-3.2-1.4-3.2-3.2
				c0-1.8,1.4-3.2,3.2-3.2s3.2,1.4,3.2,3.2C40.3,483.4,38.9,484.8,37.1,484.8z"/>
		</g>
	</g>
	<g>
		<g>
			<path class="st2" d="M57.9,452.8c-6.5,0-11.7,5.2-11.7,11.7s11.7,22.4,11.7,22.4s11.7-15.9,11.7-22.4S64.4,452.8,57.9,452.8z
				 M48.3,464.6c0-5.3,4.3-9.6,9.6-9.6s9.6,4.3,9.6,9.6c0,3.7-5.3,12.6-9.6,18.7C53.6,477.1,48.3,468.2,48.3,464.6z M57.9,459.2
				c-2.9,0-5.3,2.4-5.3,5.3s2.4,5.3,5.3,5.3s5.3-2.4,5.3-5.3S60.8,459.2,57.9,459.2z M57.9,467.8c-1.8,0-3.2-1.4-3.2-3.2
				c0-1.8,1.4-3.2,3.2-3.2s3.2,1.4,3.2,3.2C61.1,466.3,59.7,467.8,57.9,467.8z"/>
		</g>
	</g>
	<g>
		<g>
			<path class="st2" d="M40.5,435.2c-6.5,0-11.7,5.2-11.7,11.7s11.7,22.4,11.7,22.4s11.7-15.9,11.7-22.4S46.9,435.2,40.5,435.2z
				 M30.9,446.9c0-5.3,4.3-9.6,9.6-9.6s9.6,4.3,9.6,9.6c0,3.7-5.3,12.6-9.6,18.7C36.2,459.5,30.9,450.6,30.9,446.9z M40.5,441.6
				c-2.9,0-5.3,2.4-5.3,5.3s2.4,5.3,5.3,5.3c2.9,0,5.3-2.4,5.3-5.3S43.4,441.6,40.5,441.6z M40.5,450.1c-1.8,0-3.2-1.4-3.2-3.2
				c0-1.8,1.4-3.2,3.2-3.2s3.2,1.4,3.2,3.2C43.7,448.7,42.2,450.1,40.5,450.1z"/>
		</g>
	</g>
	<g>
		<g>
			<path class="st2" d="M161.8,379.3c-6.5,0-11.7,5.2-11.7,11.7s11.7,22.4,11.7,22.4s11.7-15.9,11.7-22.4S168.3,379.3,161.8,379.3z
				 M152.2,391c0-5.3,4.3-9.6,9.6-9.6c5.3,0,9.6,4.3,9.6,9.6c0,3.7-5.3,12.6-9.6,18.7C157.5,403.6,152.2,394.7,152.2,391z
				 M161.8,385.7c-2.9,0-5.3,2.4-5.3,5.3s2.4,5.3,5.3,5.3c2.9,0,5.3-2.4,5.3-5.3S164.7,385.7,161.8,385.7z M161.8,394.2
				c-1.8,0-3.2-1.4-3.2-3.2c0-1.8,1.4-3.2,3.2-3.2c1.8,0,3.2,1.4,3.2,3.2C165,392.8,163.6,394.2,161.8,394.2z"/>
		</g>
	</g>
	<g>
		<g>
			<path class="st2" d="M85.3,415.7c-6.5,0-11.7,5.2-11.7,11.7s11.7,22.4,11.7,22.4s11.7-15.9,11.7-22.4S91.8,415.7,85.3,415.7z
				 M75.7,427.5c0-5.3,4.3-9.6,9.6-9.6s9.6,4.3,9.6,9.6c0,3.7-5.3,12.6-9.6,18.7C81.1,440,75.7,431.2,75.7,427.5z M85.3,422.1
				c-2.9,0-5.3,2.4-5.3,5.3s2.4,5.3,5.3,5.3c2.9,0,5.3-2.4,5.3-5.3S88.3,422.1,85.3,422.1z M85.3,430.7c-1.8,0-3.2-1.4-3.2-3.2
				c0-1.8,1.4-3.2,3.2-3.2c1.8,0,3.2,1.4,3.2,3.2C88.5,429.2,87.1,430.7,85.3,430.7z"/>
		</g>
	</g>
	<g>
		<g>
			<path class="st2" d="M111.4,388.6c-6.5,0-11.7,5.2-11.7,11.7s11.7,22.4,11.7,22.4s11.7-15.9,11.7-22.4S117.8,388.6,111.4,388.6z
				 M101.8,400.4c0-5.3,4.3-9.6,9.6-9.6s9.6,4.3,9.6,9.6c0,3.7-5.3,12.6-9.6,18.7C107.1,412.9,101.8,404,101.8,400.4z M111.4,395
				c-2.9,0-5.3,2.4-5.3,5.3s2.4,5.3,5.3,5.3c2.9,0,5.3-2.4,5.3-5.3S114.3,395,111.4,395z M111.4,403.6c-1.8,0-3.2-1.4-3.2-3.2
				c0-1.8,1.4-3.2,3.2-3.2c1.8,0,3.2,1.4,3.2,3.2C114.6,402.1,113.1,403.6,111.4,403.6z"/>
		</g>
	</g>
	<g>
		<g>
			<path class="st2" d="M169.3,325.2c-6.5,0-11.7,5.2-11.7,11.7s11.7,22.4,11.7,22.4s11.7-15.9,11.7-22.4S175.8,325.2,169.3,325.2z
				 M159.7,336.9c0-5.3,4.3-9.6,9.6-9.6s9.6,4.3,9.6,9.6c0,3.7-5.3,12.6-9.6,18.7C165.1,349.5,159.7,340.6,159.7,336.9z
				 M169.3,331.6c-2.9,0-5.3,2.4-5.3,5.3s2.4,5.3,5.3,5.3s5.3-2.4,5.3-5.3S172.3,331.6,169.3,331.6z M169.3,340.1
				c-1.8,0-3.2-1.4-3.2-3.2c0-1.8,1.4-3.2,3.2-3.2s3.2,1.4,3.2,3.2C172.5,338.7,171.1,340.1,169.3,340.1z"/>
		</g>
	</g>
	<g>
		<g>
			<path class="st2" d="M197.7,295.4c-6.5,0-11.7,5.2-11.7,11.7s11.7,22.4,11.7,22.4s11.7-15.9,11.7-22.4S204.2,295.4,197.7,295.4z
				 M188.1,307.1c0-5.3,4.3-9.6,9.6-9.6s9.6,4.3,9.6,9.6c0,3.7-5.3,12.6-9.6,18.7C193.5,319.7,188.1,310.8,188.1,307.1z
				 M197.7,301.8c-2.9,0-5.3,2.4-5.3,5.3s2.4,5.3,5.3,5.3s5.3-2.4,5.3-5.3S200.7,301.8,197.7,301.8z M197.7,310.3
				c-1.8,0-3.2-1.4-3.2-3.2c0-1.8,1.4-3.2,3.2-3.2s3.2,1.4,3.2,3.2C200.9,308.9,199.5,310.3,197.7,310.3z"/>
		</g>
	</g>
	<g>
		<g>
			<path class="st2" d="M208,246.2c-6.5,0-11.7,5.2-11.7,11.7c0,6.5,11.7,22.4,11.7,22.4s11.7-15.9,11.7-22.4
				C219.7,251.4,214.5,246.2,208,246.2z M198.4,257.9c0-5.3,4.3-9.6,9.6-9.6c5.3,0,9.6,4.3,9.6,9.6c0,3.7-5.3,12.6-9.6,18.7
				C203.7,270.5,198.4,261.6,198.4,257.9z M208,252.6c-2.9,0-5.3,2.4-5.3,5.3s2.4,5.3,5.3,5.3s5.3-2.4,5.3-5.3
				S210.9,252.6,208,252.6z M208,261.1c-1.8,0-3.2-1.4-3.2-3.2c0-1.8,1.4-3.2,3.2-3.2s3.2,1.4,3.2,3.2
				C211.2,259.7,209.8,261.1,208,261.1z"/>
		</g>
	</g>
	<g>
		<g>
			<path class="st2" d="M234.6,199.7c-6.5,0-11.7,5.2-11.7,11.7s11.7,22.4,11.7,22.4s11.7-15.9,11.7-22.4S241.1,199.7,234.6,199.7z
				 M225,211.4c0-5.3,4.3-9.6,9.6-9.6c5.3,0,9.6,4.3,9.6,9.6c0,3.7-5.3,12.6-9.6,18.7C230.3,224,225,215.1,225,211.4z M234.6,206
				c-2.9,0-5.3,2.4-5.3,5.3s2.4,5.3,5.3,5.3s5.3-2.4,5.3-5.3S237.5,206,234.6,206z M234.6,214.6c-1.8,0-3.2-1.4-3.2-3.2
				s1.4-3.2,3.2-3.2s3.2,1.4,3.2,3.2S236.3,214.6,234.6,214.6z"/>
		</g>
	</g>
	<g>
		<g>
			<path class="st2" d="M216.7,154.7c-6.5,0-11.7,5.2-11.7,11.7c0,6.5,11.7,22.4,11.7,22.4s11.7-15.9,11.7-22.4
				C228.5,160,223.2,154.7,216.7,154.7z M207.2,166.4c0-5.3,4.3-9.6,9.6-9.6s9.6,4.3,9.6,9.6c0,3.7-5.3,12.6-9.6,18.7
				C212.5,179,207.2,170.1,207.2,166.4z M216.7,161.1c-2.9,0-5.3,2.4-5.3,5.3c0,2.9,2.4,5.3,5.3,5.3s5.3-2.4,5.3-5.3
				C222.1,163.5,219.7,161.1,216.7,161.1z M216.7,169.6c-1.8,0-3.2-1.4-3.2-3.2c0-1.8,1.4-3.2,3.2-3.2s3.2,1.4,3.2,3.2
				C219.9,168.2,218.5,169.6,216.7,169.6z"/>
		</g>
	</g>
	<g>
		<g>
			<path class="st2" d="M246.3,138.4c-6.5,0-11.7,5.2-11.7,11.7c0,6.5,11.7,22.4,11.7,22.4s11.7-15.9,11.7-22.4
				C258,143.6,252.8,138.4,246.3,138.4z M236.7,150.1c0-5.3,4.3-9.6,9.6-9.6c5.3,0,9.6,4.3,9.6,9.6c0,3.7-5.3,12.6-9.6,18.7
				C242,162.7,236.7,153.8,236.7,150.1z M246.3,144.8c-2.9,0-5.3,2.4-5.3,5.3c0,2.9,2.4,5.3,5.3,5.3c2.9,0,5.3-2.4,5.3-5.3
				C251.6,147.2,249.3,144.8,246.3,144.8z M246.3,153.3c-1.8,0-3.2-1.4-3.2-3.2c0-1.8,1.4-3.2,3.2-3.2c1.8,0,3.2,1.4,3.2,3.2
				C249.5,151.9,248.1,153.3,246.3,153.3z"/>
		</g>
	</g>
	<g>
		<g>
			<path class="st2" d="M281.5,113.9c-6.5,0-11.7,5.2-11.7,11.7s11.7,22.4,11.7,22.4s11.7-15.9,11.7-22.4
				C293.2,119.2,288,113.9,281.5,113.9z M271.9,125.7c0-5.3,4.3-9.6,9.6-9.6c5.3,0,9.6,4.3,9.6,9.6c0,3.7-5.3,12.6-9.6,18.7
				C277.2,138.2,271.9,129.3,271.9,125.7z M281.5,120.3c-2.9,0-5.3,2.4-5.3,5.3s2.4,5.3,5.3,5.3s5.3-2.4,5.3-5.3
				S284.4,120.3,281.5,120.3z M281.5,128.8c-1.8,0-3.2-1.4-3.2-3.2s1.4-3.2,3.2-3.2c1.8,0,3.2,1.4,3.2,3.2S283.3,128.8,281.5,128.8z
				"/>
		</g>
	</g>
	<g>
		<g>
			<path class="st2" d="M321.7,69.4c-6.5,0-11.7,5.2-11.7,11.7c0,6.5,11.7,22.4,11.7,22.4s11.7-15.9,11.7-22.4
				C333.4,74.7,328.2,69.4,321.7,69.4z M312.1,81.1c0-5.3,4.3-9.6,9.6-9.6s9.6,4.3,9.6,9.6c0,3.7-5.3,12.6-9.6,18.7
				C317.5,93.7,312.1,84.8,312.1,81.1z M321.7,75.8c-2.9,0-5.3,2.4-5.3,5.3c0,2.9,2.4,5.3,5.3,5.3s5.3-2.4,5.3-5.3
				C327,78.2,324.7,75.8,321.7,75.8z M321.7,84.3c-1.8,0-3.2-1.4-3.2-3.2c0-1.8,1.4-3.2,3.2-3.2s3.2,1.4,3.2,3.2
				C324.9,82.9,323.5,84.3,321.7,84.3z"/>
		</g>
	</g>
	<g>
		<g>
			<path class="st2" d="M372.6,42.4c-6.5,0-11.7,5.2-11.7,11.7s11.7,22.4,11.7,22.4s11.7-15.9,11.7-22.4S379.1,42.4,372.6,42.4z
				 M363.1,54.1c0-5.3,4.3-9.6,9.6-9.6c5.3,0,9.6,4.3,9.6,9.6c0,3.7-5.3,12.6-9.6,18.7C368.4,66.7,363.1,57.8,363.1,54.1z
				 M372.6,48.8c-2.9,0-5.3,2.4-5.3,5.3s2.4,5.3,5.3,5.3c2.9,0,5.3-2.4,5.3-5.3S375.6,48.8,372.6,48.8z M372.6,57.3
				c-1.8,0-3.2-1.4-3.2-3.2s1.4-3.2,3.2-3.2c1.8,0,3.2,1.4,3.2,3.2S374.4,57.3,372.6,57.3z"/>
		</g>
	</g>
	<g>
		<g>
			<path class="st2" d="M405.6,38.9c-6.5,0-11.7,5.2-11.7,11.7S405.6,73,405.6,73s11.7-15.9,11.7-22.4S412.1,38.9,405.6,38.9z
				 M396,50.7c0-5.3,4.3-9.6,9.6-9.6c5.3,0,9.6,4.3,9.6,9.6c0,3.7-5.3,12.6-9.6,18.7C401.3,63.2,396,54.3,396,50.7z M405.6,45.3
				c-2.9,0-5.3,2.4-5.3,5.3s2.4,5.3,5.3,5.3c2.9,0,5.3-2.4,5.3-5.3S408.5,45.3,405.6,45.3z M405.6,53.9c-1.8,0-3.2-1.4-3.2-3.2
				c0-1.8,1.4-3.2,3.2-3.2c1.8,0,3.2,1.4,3.2,3.2C408.8,52.4,407.3,53.9,405.6,53.9z"/>
		</g>
	</g>
	<g>
		<g>
			<path class="st2" d="M426.9,21.5c-6.5,0-11.7,5.2-11.7,11.7s11.7,22.4,11.7,22.4s11.7-15.9,11.7-22.4S433.3,21.5,426.9,21.5z
				 M417.3,33.2c0-5.3,4.3-9.6,9.6-9.6c5.3,0,9.6,4.3,9.6,9.6c0,3.7-5.3,12.6-9.6,18.7C422.6,45.8,417.3,36.9,417.3,33.2z
				 M426.9,27.8c-2.9,0-5.3,2.4-5.3,5.3s2.4,5.3,5.3,5.3c2.9,0,5.3-2.4,5.3-5.3S429.8,27.8,426.9,27.8z M426.9,36.4
				c-1.8,0-3.2-1.4-3.2-3.2c0-1.8,1.4-3.2,3.2-3.2c1.8,0,3.2,1.4,3.2,3.2C430.1,34.9,428.6,36.4,426.9,36.4z"/>
		</g>
	</g>
	<g>
		<g>
			<path class="st2" d="M49.4,622.3c-6.5,0-11.7,5.2-11.7,11.7s11.7,22.4,11.7,22.4s11.7-15.9,11.7-22.4S55.9,622.3,49.4,622.3z
				 M39.8,634c0-5.3,4.3-9.6,9.6-9.6s9.6,4.3,9.6,9.6c0,3.7-5.3,12.6-9.6,18.7C45.1,646.6,39.8,637.7,39.8,634z M49.4,628.7
				c-2.9,0-5.3,2.4-5.3,5.3c0,2.9,2.4,5.3,5.3,5.3s5.3-2.4,5.3-5.3C54.7,631,52.3,628.7,49.4,628.7z M49.4,637.2
				c-1.8,0-3.2-1.4-3.2-3.2s1.4-3.2,3.2-3.2s3.2,1.4,3.2,3.2S51.2,637.2,49.4,637.2z"/>
		</g>
	</g>
</g>
</svg>
